<svg xmlns="http://www.w3.org/2000/svg" xmlns:xlink="http://www.w3.org/1999/xlink" width="1600" height="900"
    viewBox="0 0 1600 900" fill="none">
    <g clip-path="url(#clip-path-3fW4VUOm3lWlJ_imFjyIc)">
        <rect x="0" y="0" width="1600" height="900" fill="url(#linear_fill_ka59YjQ0g_3xpPPF6FOyO)"></rect>
        <g>
            <path fill="#FFFFFF"
                d="">
            </path>
        </g>
        <g>
            <path fill="#F3EDF6" fill-opacity="0.82"
                d="M124.4 422.15L128.4 422.15L128.4 416.5C133.9 415.55 137.1 411.7 137.1 406.35C137.1 394.7 121.65 396.4 121.65 389.1C121.65 386.05 123.65 384.25 126.85 384.25C129.7 384.25 131.45 385.35 133.5 387.3L136.45 383.95C134.35 381.75 132 380 128.4 379.6L128.4 374L124.4 374L124.4 379.7C119.35 380.5 116.1 384.2 116.1 389.4C116.1 400.05 131.55 398.65 131.55 406.75C131.55 409.95 129.65 411.9 125.75 411.9C122.6 411.9 119.85 410.45 117.3 408.35L114.65 412.25C117.15 414.55 120.9 416.25 124.4 416.65L124.4 422.15ZM153.45 424.55L156.3 424.55L156.3 421.35L154.95 421.35C152.1 421.35 151.4 420.05 151.4 416.6C151.4 413.3 151.65 410.4 151.65 406.75C151.65 402.95 150.6 401.15 148 400.5L148 400.25C150.6 399.6 151.65 397.85 151.65 394C151.65 390.3 151.4 387.4 151.4 384.1C151.4 380.65 152.1 379.35 154.95 379.35L156.3 379.35L156.3 376.15L153.45 376.15C148.85 376.15 146.65 377.95 146.65 383.85C146.65 387.9 147.15 390.55 147.15 394.3C147.15 396.4 146.15 398.5 142.4 398.6L142.4 402.1C146.15 402.15 147.15 404.3 147.15 406.45C147.15 410.15 146.65 412.85 146.65 416.9C146.65 422.8 148.85 424.55 153.45 424.55ZM174.15 416.7C177.7 416.7 180.9 415.45 183.4 413.75L181.4 410.1C179.4 411.4 177.3 412.15 174.85 412.15C170.1 412.15 166.8 409 166.35 403.75L184.2 403.75C184.35 403.05 184.5 401.95 184.5 400.8C184.5 393.05 180.55 387.8 173.25 387.8C166.85 387.8 160.7 393.3 160.7 402.25C160.7 411.35 166.6 416.7 174.15 416.7ZM166.3 399.75C166.85 394.95 169.9 392.35 173.35 392.35C177.35 392.35 179.5 395.05 179.5 399.75L166.3 399.75ZM187.4 416L193.4 416L196.6 410.15C197.45 408.5 198.3 406.85 199.15 405.3L199.4 405.3C200.4 406.85 201.35 408.55 202.25 410.15L205.85 416L212.1 416L203.25 402.25L211.5 388.45L205.5 388.45L202.6 394C201.8 395.55 201.05 397.1 200.35 398.65L200.1 398.65C199.2 397.1 198.35 395.55 197.5 394L194.25 388.45L188 388.45L196.25 401.65L187.4 416ZM228.45 416.7C231.6 416.7 234.85 415.5 237.4 413.25L235 409.4C233.35 410.85 231.3 411.9 229 411.9C224.45 411.9 221.25 408.1 221.25 402.25C221.25 396.45 224.55 392.55 229.2 392.55C231.05 392.55 232.6 393.4 234.1 394.7L236.95 390.95C234.95 389.2 232.4 387.8 228.9 387.8C221.65 387.8 215.3 393.1 215.3 402.25C215.3 411.4 221 416.7 228.45 416.7ZM254.6 416.7C258.15 416.7 261.35 415.45 263.85 413.75L261.85 410.1C259.85 411.4 257.75 412.15 255.3 412.15C250.55 412.15 247.25 409 246.8 403.75L264.65 403.75C264.8 403.05 264.95 401.95 264.95 400.8C264.95 393.05 261 387.8 253.7 387.8C247.3 387.8 241.15 393.3 241.15 402.25C241.15 411.35 247.05 416.7 254.6 416.7ZM246.75 399.75C247.3 394.95 250.35 392.35 253.8 392.35C257.8 392.35 259.95 395.05 259.95 399.75L246.75 399.75ZM271.4 416L277.15 416L277.15 398.9C278.85 394.5 281.55 392.95 283.8 392.95C284.95 392.95 285.6 393.1 286.6 393.4L287.6 388.35C286.75 388 285.9 387.8 284.55 387.8C281.55 387.8 278.65 389.9 276.7 393.4L276.6 393.4L276.1 388.45L271.4 388.45L271.4 416ZM291.85 427.15L297.6 427.15L297.6 418.25L297.45 413.55C299.75 415.55 302.25 416.7 304.65 416.7C310.85 416.7 316.5 411.25 316.5 401.8C316.5 393.3 312.6 387.8 305.65 387.8C302.55 387.8 299.55 389.5 297.15 391.5L297.05 391.5L296.55 388.45L291.85 388.45L291.85 427.15ZM303.55 411.85C301.9 411.85 299.75 411.2 297.6 409.4L297.6 395.95C299.9 393.75 301.95 392.6 304.1 392.6C308.7 392.6 310.55 396.15 310.55 401.9C310.55 408.3 307.55 411.85 303.55 411.85ZM332.6 416.7C334.6 416.7 336.5 416.15 338 415.65L336.95 411.4C336.15 411.7 334.95 412.05 334.05 412.05C331.15 412.05 330 410.35 330 407.05L330 393.1L337.15 393.1L337.15 388.45L330 388.45L330 380.85L325.2 380.85L324.55 388.45L320.25 388.8L320.25 393.1L324.25 393.1L324.25 407C324.25 412.8 326.45 416.7 332.6 416.7ZM351.1 416L357 416L357 384.05L367.8 384.05L367.8 379.15L340.35 379.15L340.35 384.05L351.1 384.05L351.1 416ZM381.15 416.7C387.95 416.7 391.6 412.9 391.6 408.25C391.6 403.1 387.35 401.4 383.55 399.95C380.5 398.8 377.8 397.9 377.8 395.6C377.8 393.7 379.2 392.2 382.3 392.2C384.5 392.2 386.45 393.2 388.4 394.6L391.05 391.05C388.9 389.3 385.8 387.8 382.15 387.8C376.05 387.8 372.35 391.25 372.35 395.85C372.35 400.5 376.4 402.45 380.05 403.85C383.05 405 386.1 406.1 386.1 408.6C386.1 410.7 384.55 412.3 381.3 412.3C378.35 412.3 375.95 411.05 373.55 409.1L370.8 412.85C373.45 415.05 377.35 416.7 381.15 416.7ZM397.7 427.15L403.45 427.15L403.45 418.25L403.3 413.55C405.6 415.55 408.1 416.7 410.5 416.7C416.7 416.7 422.35 411.25 422.35 401.8C422.35 393.3 418.45 387.8 411.5 387.8C408.4 387.8 405.4 389.5 403 391.5L402.9 391.5L402.4 388.45L397.7 388.45L397.7 427.15ZM409.4 411.85C407.75 411.85 405.6 411.2 403.45 409.4L403.45 395.95C405.75 393.75 407.8 392.6 409.95 392.6C414.55 392.6 416.4 396.15 416.4 401.9C416.4 408.3 413.4 411.85 409.4 411.85ZM435.7 416.7C439 416.7 441.95 415 444.45 412.85L444.65 412.85L445.1 416L449.8 416L449.8 399.45C449.8 392.1 446.65 387.8 439.8 387.8C435.4 387.8 431.55 389.6 428.7 391.4L430.85 395.3C433.2 393.8 435.9 392.5 438.8 392.5C442.85 392.5 444 395.3 444.05 398.45C432.6 399.7 427.6 402.75 427.6 408.7C427.6 413.55 430.95 416.7 435.7 416.7ZM437.45 412.1C435 412.1 433.15 411 433.15 408.25C433.15 405.2 435.9 403.1 444.05 402.15L444.05 408.85C441.8 410.95 439.85 412.1 437.45 412.1ZM457.95 416L463.7 416L463.7 396.5C466.15 394.05 467.85 392.8 470.4 392.8C473.65 392.8 475.05 394.65 475.05 399.4L475.05 416L480.8 416L480.8 398.7C480.8 391.7 478.2 387.8 472.35 387.8C468.6 387.8 465.75 389.8 463.25 392.3L463.15 392.3L462.65 388.45L457.95 388.45L457.95 416ZM496.6 416.7C503.4 416.7 507.05 412.9 507.05 408.25C507.05 403.1 502.8 401.4 499 399.95C495.95 398.8 493.25 397.9 493.25 395.6C493.25 393.7 494.65 392.2 497.75 392.2C499.95 392.2 501.9 393.2 503.85 394.6L506.5 391.05C504.35 389.3 501.25 387.8 497.6 387.8C491.5 387.8 487.8 391.25 487.8 395.85C487.8 400.5 491.85 402.45 495.5 403.85C498.5 405 501.55 406.1 501.55 408.6C501.55 410.7 500 412.3 496.75 412.3C493.8 412.3 491.4 411.05 489 409.1L486.25 412.85C488.9 415.05 492.8 416.7 496.6 416.7ZM510.8 424.55L513.65 424.55C518.25 424.55 520.4 422.8 520.4 416.9C520.4 412.85 519.9 410.15 519.9 406.45C519.9 404.3 520.95 402.15 524.7 402.1L524.7 398.6C520.95 398.5 519.9 396.4 519.9 394.3C519.9 390.55 520.4 387.9 520.4 383.85C520.4 377.95 518.25 376.15 513.65 376.15L510.8 376.15L510.8 379.35L512.1 379.35C514.95 379.35 515.7 380.65 515.7 384.1C515.7 387.4 515.45 390.3 515.45 394C515.45 397.85 516.45 399.6 519.05 400.25L519.05 400.5C516.45 401.15 515.45 402.95 515.45 406.75C515.45 410.4 515.7 413.3 515.7 416.6C515.7 420.05 514.95 421.35 512.1 421.35L510.8 421.35L510.8 424.55Z">
            </path>
        </g>
        <rect x="102" y="738" width="268" height="49" rx="24.5" fill="#0E0B17" fill-opacity="0.3"></rect>
        <g>
            <path fill="#FFFFFF" fill-opacity="0.85"
                d="M128.976 773.792L130.56 773.792L130.56 771.08C133.104 770.72 134.712 768.968 134.712 766.424C134.712 760.664 127.2 761.744 127.2 757.832C127.2 756.272 128.256 755.24 129.912 755.24C131.376 755.24 132.192 755.792 133.176 756.752L134.352 755.456C133.368 754.448 132.264 753.632 130.56 753.464L130.56 750.776L128.976 750.776L128.976 753.488C126.648 753.824 125.088 755.528 125.088 757.952C125.088 763.16 132.576 762.2 132.576 766.568C132.576 768.248 131.544 769.328 129.552 769.328C127.92 769.328 126.552 768.536 125.424 767.552L124.392 769.064C125.52 770.12 127.248 770.96 128.976 771.128L128.976 773.792ZM142.416 774.92L143.616 774.92L143.616 773.672L142.92 773.672C141.48 773.672 141.096 772.952 141.096 771.224C141.096 769.592 141.24 768.176 141.24 766.352C141.24 764.648 140.808 763.76 139.632 763.448L139.632 763.328C140.808 763.016 141.24 762.152 141.24 760.424C141.24 758.576 141.096 757.184 141.096 755.552C141.096 753.8 141.48 753.104 142.92 753.104L143.616 753.104L143.616 751.832L142.416 751.832C140.304 751.832 139.296 752.648 139.296 755.432C139.296 757.376 139.536 758.792 139.536 760.616C139.536 761.624 139.056 762.656 137.232 762.68L137.232 764.072C139.056 764.072 139.536 765.104 139.536 766.184C139.536 767.984 139.296 769.4 139.296 771.368C139.296 774.128 140.304 774.92 142.416 774.92ZM151.92 771.152C153.672 771.152 155.064 770.576 156.192 769.832L155.424 768.368C154.44 769.016 153.432 769.4 152.16 769.4C149.688 769.4 147.984 767.624 147.84 764.84L156.624 764.84C156.672 764.504 156.72 764.072 156.72 763.592C156.72 759.872 154.848 757.472 151.512 757.472C148.536 757.472 145.68 760.088 145.68 764.336C145.68 768.632 148.44 771.152 151.92 771.152ZM147.816 763.28C148.08 760.688 149.712 759.224 151.56 759.224C153.6 759.224 154.8 760.64 154.8 763.28L147.816 763.28ZM163.344 771.152C166.416 771.152 168.072 769.4 168.072 767.288C168.072 764.816 166.008 764.048 164.112 763.328C162.648 762.776 161.304 762.296 161.304 761.072C161.304 760.04 162.072 759.176 163.728 759.176C164.88 759.176 165.792 759.68 166.68 760.328L167.736 758.96C166.752 758.144 165.312 757.472 163.704 757.472C160.848 757.472 159.216 759.104 159.216 761.168C159.216 763.4 161.184 764.264 163.008 764.936C164.448 765.464 165.984 766.088 165.984 767.408C165.984 768.536 165.144 769.448 163.416 769.448C161.856 769.448 160.704 768.824 159.552 767.888L158.496 769.352C159.72 770.384 161.496 771.152 163.344 771.152ZM176.304 771.152C177.864 771.152 179.352 770.528 180.528 769.52L179.568 768.032C178.752 768.752 177.696 769.328 176.496 769.328C174.096 769.328 172.464 767.336 172.464 764.336C172.464 761.336 174.192 759.32 176.568 759.32C177.576 759.32 178.416 759.776 179.16 760.448L180.264 759.008C179.352 758.192 178.176 757.472 176.472 757.472C173.112 757.472 170.208 759.992 170.208 764.336C170.208 768.656 172.848 771.152 176.304 771.152ZM186.408 771.152C188.016 771.152 189.48 770.312 190.728 769.28L190.8 769.28L190.992 770.84L192.792 770.84L192.792 762.824C192.792 759.584 191.472 757.472 188.28 757.472C186.168 757.472 184.344 758.408 183.168 759.176L184.008 760.688C185.04 759.992 186.408 759.296 187.92 759.296C190.056 759.296 190.608 760.904 190.608 762.584C185.064 763.208 182.616 764.624 182.616 767.456C182.616 769.808 184.224 771.152 186.408 771.152ZM187.032 769.376C185.736 769.376 184.728 768.8 184.728 767.312C184.728 765.632 186.216 764.552 190.608 764.048L190.608 767.672C189.336 768.8 188.28 769.376 187.032 769.376ZM196.92 776.336L199.128 776.336L199.128 771.92L199.056 769.64C200.232 770.624 201.48 771.152 202.656 771.152C205.632 771.152 208.32 768.584 208.32 764.12C208.32 760.088 206.496 757.472 203.136 757.472C201.624 757.472 200.16 758.336 198.984 759.32L198.936 759.32L198.72 757.808L196.92 757.808L196.92 776.336ZM202.296 769.304C201.432 769.304 200.28 768.968 199.128 767.96L199.128 761.096C200.376 759.944 201.504 759.32 202.584 759.32C205.08 759.32 206.04 761.24 206.04 764.144C206.04 767.36 204.456 769.304 202.296 769.304ZM217.08 771.152C218.832 771.152 220.224 770.576 221.352 769.832L220.584 768.368C219.6 769.016 218.592 769.4 217.32 769.4C214.848 769.4 213.144 767.624 213 764.84L221.784 764.84C221.832 764.504 221.88 764.072 221.88 763.592C221.88 759.872 220.008 757.472 216.672 757.472C213.696 757.472 210.84 760.088 210.84 764.336C210.84 768.632 213.6 771.152 217.08 771.152ZM212.976 763.28C213.24 760.688 214.872 759.224 216.72 759.224C218.76 759.224 219.96 760.64 219.96 763.28L212.976 763.28ZM223.296 770.84L225.648 770.84L228.168 766.088C228.624 765.2 229.08 764.312 229.584 763.232L229.68 763.232C230.256 764.312 230.736 765.2 231.192 766.088L233.808 770.84L236.256 770.84L231.096 761.864L235.896 753.248L233.568 753.248L231.216 757.736C230.784 758.552 230.448 759.296 229.968 760.328L229.872 760.328C229.296 759.296 228.936 758.552 228.48 757.736L226.08 753.248L223.632 753.248L228.432 761.744L223.296 770.84ZM238.848 770.84L241.056 770.84L241.056 761.384C242.232 760.04 243.336 759.392 244.32 759.392C245.976 759.392 246.744 760.424 246.744 762.872L246.744 770.84L248.928 770.84L248.928 761.384C250.152 760.04 251.208 759.392 252.216 759.392C253.872 759.392 254.64 760.424 254.64 762.872L254.64 770.84L256.824 770.84L256.824 762.584C256.824 759.272 255.552 757.472 252.888 757.472C251.28 757.472 249.936 758.504 248.568 759.968C248.04 758.432 246.984 757.472 244.968 757.472C243.408 757.472 242.064 758.456 240.912 759.704L240.864 759.704L240.648 757.808L238.848 757.808L238.848 770.84ZM263.376 771.152C263.976 771.152 264.336 771.056 264.648 770.96L264.336 769.28C264.096 769.328 264 769.328 263.88 769.328C263.544 769.328 263.28 769.064 263.28 768.392L263.28 751.736L261.072 751.736L261.072 768.248C261.072 770.096 261.744 771.152 263.376 771.152ZM271.416 775.544L272.76 774.944C270.696 771.536 269.712 767.456 269.712 763.376C269.712 759.32 270.696 755.264 272.76 751.832L271.416 751.208C269.208 754.808 267.888 758.672 267.888 763.376C267.888 768.104 269.208 771.968 271.416 775.544ZM279.408 771.152C282.48 771.152 284.136 769.4 284.136 767.288C284.136 764.816 282.072 764.048 280.176 763.328C278.712 762.776 277.368 762.296 277.368 761.072C277.368 760.04 278.136 759.176 279.792 759.176C280.944 759.176 281.856 759.68 282.744 760.328L283.8 758.96C282.816 758.144 281.376 757.472 279.768 757.472C276.912 757.472 275.28 759.104 275.28 761.168C275.28 763.4 277.248 764.264 279.072 764.936C280.512 765.464 282.048 766.088 282.048 767.408C282.048 768.536 281.208 769.448 279.48 769.448C277.92 769.448 276.768 768.824 275.616 767.888L274.56 769.352C275.784 770.384 277.56 771.152 279.408 771.152ZM289.536 771.152C290.136 771.152 290.496 771.056 290.808 770.96L290.496 769.28C290.256 769.328 290.16 769.328 290.04 769.328C289.704 769.328 289.44 769.064 289.44 768.392L289.44 751.736L287.232 751.736L287.232 768.248C287.232 770.096 287.904 771.152 289.536 771.152ZM297.864 771.152C299.64 771.152 300.936 770.216 302.16 768.8L302.232 768.8L302.4 770.84L304.224 770.84L304.224 757.808L302.04 757.808L302.04 767.048C300.792 768.584 299.856 769.256 298.512 769.256C296.784 769.256 296.064 768.224 296.064 765.8L296.064 757.808L293.856 757.808L293.856 766.064C293.856 769.4 295.104 771.152 297.864 771.152ZM313.008 776.84C317.04 776.84 319.608 774.752 319.608 772.328C319.608 770.168 318.072 769.232 315.072 769.232L312.504 769.232C310.752 769.232 310.224 768.632 310.224 767.816C310.224 767.096 310.584 766.664 311.064 766.256C311.64 766.544 312.36 766.712 312.984 766.712C315.672 766.712 317.76 764.96 317.76 762.176C317.76 761.048 317.328 760.088 316.704 759.488L319.368 759.488L319.368 757.808L314.832 757.808C314.376 757.616 313.728 757.472 312.984 757.472C310.368 757.472 308.112 759.272 308.112 762.128C308.112 763.688 308.952 764.96 309.816 765.632L309.816 765.728C309.12 766.208 308.376 767.072 308.376 768.152C308.376 769.184 308.88 769.88 309.552 770.288L309.552 770.408C308.328 771.152 307.632 772.232 307.632 773.36C307.632 775.592 309.84 776.84 313.008 776.84ZM312.984 765.224C311.496 765.224 310.224 764.024 310.224 762.128C310.224 760.208 311.472 759.08 312.984 759.08C314.544 759.08 315.768 760.208 315.768 762.128C315.768 764.024 314.496 765.224 312.984 765.224ZM313.32 775.328C310.944 775.328 309.552 774.44 309.552 773.048C309.552 772.304 309.936 771.512 310.872 770.84C311.448 770.984 312.072 771.032 312.552 771.032L314.808 771.032C316.536 771.032 317.448 771.464 317.448 772.688C317.448 774.032 315.84 775.328 313.32 775.328ZM322.32 775.544C324.528 771.968 325.848 768.104 325.848 763.376C325.848 758.672 324.528 754.808 322.32 751.208L320.952 751.832C323.016 755.264 324.048 759.32 324.048 763.376C324.048 767.456 323.016 771.536 320.952 774.944L322.32 775.544ZM328.872 774.92L330.072 774.92C332.184 774.92 333.216 774.128 333.216 771.368C333.216 769.4 332.976 767.984 332.976 766.184C332.976 765.104 333.456 764.072 335.256 764.072L335.256 762.68C333.456 762.656 332.976 761.624 332.976 760.616C332.976 758.792 333.216 757.376 333.216 755.432C333.216 752.648 332.184 751.832 330.072 751.832L328.872 751.832L328.872 753.104L329.568 753.104C331.008 753.104 331.392 753.8 331.392 755.552C331.392 757.184 331.272 758.576 331.272 760.424C331.272 762.152 331.68 763.016 332.856 763.328L332.856 763.448C331.68 763.76 331.272 764.648 331.272 766.352C331.272 768.176 331.392 769.592 331.392 771.224C331.392 772.952 331.008 773.672 329.568 773.672L328.872 773.672L328.872 774.92Z">
            </path>
        </g>
        <g>
            <path fill="#FFFFFF" fill-opacity="0.42"
                d="M114.392 832.16L116.784 832.16L116.784 821.916C118.188 820.486 119.176 819.758 120.632 819.758C122.504 819.758 123.31 820.876 123.31 823.528L123.31 832.16L125.676 832.16L125.676 823.216C125.676 819.628 124.324 817.678 121.36 817.678C119.436 817.678 117.98 818.744 116.68 820.044L116.784 817.132L116.784 811.464L114.392 811.464L114.392 832.16ZM134.594 832.498C135.478 832.498 136.414 832.238 137.22 831.978L136.752 830.184C136.284 830.392 135.66 830.574 135.14 830.574C133.502 830.574 132.956 829.586 132.956 827.87L132.956 819.966L136.804 819.966L136.804 818.042L132.956 818.042L132.956 814.064L130.98 814.064L130.72 818.042L128.484 818.172L128.484 819.966L130.59 819.966L130.59 827.792C130.59 830.626 131.604 832.498 134.594 832.498ZM144.396 832.498C145.28 832.498 146.216 832.238 147.022 831.978L146.554 830.184C146.086 830.392 145.462 830.574 144.942 830.574C143.304 830.574 142.758 829.586 142.758 827.87L142.758 819.966L146.606 819.966L146.606 818.042L142.758 818.042L142.758 814.064L140.782 814.064L140.522 818.042L138.286 818.172L138.286 819.966L140.392 819.966L140.392 827.792C140.392 830.626 141.406 832.498 144.396 832.498ZM149.778 838.114L152.17 838.114L152.17 833.33L152.092 830.86C153.366 831.926 154.718 832.498 155.992 832.498C159.216 832.498 162.128 829.716 162.128 824.88C162.128 820.512 160.152 817.678 156.512 817.678C154.874 817.678 153.288 818.614 152.014 819.68L151.962 819.68L151.728 818.042L149.778 818.042L149.778 838.114ZM155.602 830.496C154.666 830.496 153.418 830.132 152.17 829.04L152.17 821.604C153.522 820.356 154.744 819.68 155.914 819.68C158.618 819.68 159.658 821.76 159.658 824.906C159.658 828.39 157.942 830.496 155.602 830.496ZM169.59 832.498C172.918 832.498 174.712 830.6 174.712 828.312C174.712 825.634 172.476 824.802 170.422 824.022C168.836 823.424 167.38 822.904 167.38 821.578C167.38 820.46 168.212 819.524 170.006 819.524C171.254 819.524 172.242 820.07 173.204 820.772L174.348 819.29C173.282 818.406 171.722 817.678 169.98 817.678C166.886 817.678 165.118 819.446 165.118 821.682C165.118 824.1 167.25 825.036 169.226 825.764C170.786 826.336 172.45 827.012 172.45 828.442C172.45 829.664 171.54 830.652 169.668 830.652C167.978 830.652 166.73 829.976 165.482 828.962L164.338 830.548C165.664 831.666 167.588 832.498 169.59 832.498ZM179.288 822.02C180.224 822.02 181.004 821.292 181.004 820.2C181.004 819.134 180.224 818.38 179.288 818.38C178.326 818.38 177.572 819.134 177.572 820.2C177.572 821.292 178.326 822.02 179.288 822.02ZM179.288 832.498C180.224 832.498 181.004 831.77 181.004 830.704C181.004 829.612 180.224 828.884 179.288 828.884C178.326 828.884 177.572 829.612 177.572 830.704C177.572 831.77 178.326 832.498 179.288 832.498ZM183.188 836.814L184.93 836.814L192.704 811.516L190.988 811.516L183.188 836.814ZM193.38 836.814L195.122 836.814L202.896 811.516L201.18 811.516L193.38 836.814ZM211.892 832.498C215.116 832.498 218.028 829.716 218.028 824.88C218.028 820.512 216.052 817.678 212.412 817.678C210.826 817.678 209.266 818.562 207.966 819.654L208.07 817.132L208.07 811.464L205.678 811.464L205.678 832.16L207.576 832.16L207.784 830.704L207.888 830.704C209.11 831.822 210.592 832.498 211.892 832.498ZM211.502 830.496C210.566 830.496 209.292 830.132 208.07 829.04L208.07 821.604C209.396 820.356 210.644 819.68 211.814 819.68C214.518 819.68 215.558 821.76 215.558 824.906C215.558 828.39 213.842 830.496 211.502 830.496ZM224.242 832.498C224.892 832.498 225.282 832.394 225.62 832.29L225.282 830.47C225.022 830.522 224.918 830.522 224.788 830.522C224.424 830.522 224.138 830.236 224.138 829.508L224.138 811.464L221.746 811.464L221.746 829.352C221.746 831.354 222.474 832.498 224.242 832.498ZM234.616 832.498C238.074 832.498 241.142 829.794 241.142 825.114C241.142 820.408 238.074 817.678 234.616 817.678C231.158 817.678 228.09 820.408 228.09 825.114C228.09 829.794 231.158 832.498 234.616 832.498ZM234.616 830.522C232.172 830.522 230.534 828.364 230.534 825.114C230.534 821.864 232.172 819.68 234.616 819.68C237.06 819.68 238.724 821.864 238.724 825.114C238.724 828.364 237.06 830.522 234.616 830.522ZM249.644 838.66C254.012 838.66 256.794 836.398 256.794 833.772C256.794 831.432 255.13 830.418 251.88 830.418L249.098 830.418C247.2 830.418 246.628 829.768 246.628 828.884C246.628 828.104 247.018 827.636 247.538 827.194C248.162 827.506 248.942 827.688 249.618 827.688C252.53 827.688 254.792 825.79 254.792 822.774C254.792 821.552 254.324 820.512 253.648 819.862L256.534 819.862L256.534 818.042L251.62 818.042C251.126 817.834 250.424 817.678 249.618 817.678C246.784 817.678 244.34 819.628 244.34 822.722C244.34 824.412 245.25 825.79 246.186 826.518L246.186 826.622C245.432 827.142 244.626 828.078 244.626 829.248C244.626 830.366 245.172 831.12 245.9 831.562L245.9 831.692C244.574 832.498 243.82 833.668 243.82 834.89C243.82 837.308 246.212 838.66 249.644 838.66ZM249.618 826.076C248.006 826.076 246.628 824.776 246.628 822.722C246.628 820.642 247.98 819.42 249.618 819.42C251.308 819.42 252.634 820.642 252.634 822.722C252.634 824.776 251.256 826.076 249.618 826.076ZM249.982 837.022C247.408 837.022 245.9 836.06 245.9 834.552C245.9 833.746 246.316 832.888 247.33 832.16C247.954 832.316 248.63 832.368 249.15 832.368L251.594 832.368C253.466 832.368 254.454 832.836 254.454 834.162C254.454 835.618 252.712 837.022 249.982 837.022ZM260.772 832.498C261.708 832.498 262.488 831.77 262.488 830.704C262.488 829.612 261.708 828.884 260.772 828.884C259.81 828.884 259.056 829.612 259.056 830.704C259.056 831.77 259.81 832.498 260.772 832.498ZM265.296 832.16L275.982 832.16L275.982 830.236L268.286 830.236L275.748 819.316L275.748 818.042L266.102 818.042L266.102 819.966L272.732 819.966L265.296 830.886L265.296 832.16ZM284.848 832.498C286.746 832.498 288.254 831.874 289.476 831.068L288.644 829.482C287.578 830.184 286.486 830.6 285.108 830.6C282.43 830.6 280.584 828.676 280.428 825.66L289.944 825.66C289.996 825.296 290.048 824.828 290.048 824.308C290.048 820.278 288.02 817.678 284.406 817.678C281.182 817.678 278.088 820.512 278.088 825.114C278.088 829.768 281.078 832.498 284.848 832.498ZM280.402 823.97C280.688 821.162 282.456 819.576 284.458 819.576C286.668 819.576 287.968 821.11 287.968 823.97L280.402 823.97ZM293.532 832.16L295.924 832.16L295.924 823.086C296.86 820.694 298.29 819.81 299.46 819.81C300.058 819.81 300.37 819.888 300.838 820.044L301.28 817.99C300.838 817.756 300.396 817.678 299.772 817.678C298.212 817.678 296.756 818.822 295.768 820.616L295.716 820.616L295.482 818.042L293.532 818.042L293.532 832.16ZM309.106 832.498C312.564 832.498 315.632 829.794 315.632 825.114C315.632 820.408 312.564 817.678 309.106 817.678C305.648 817.678 302.58 820.408 302.58 825.114C302.58 829.794 305.648 832.498 309.106 832.498ZM309.106 830.522C306.662 830.522 305.024 828.364 305.024 825.114C305.024 821.864 306.662 819.68 309.106 819.68C311.55 819.68 313.214 821.864 313.214 825.114C313.214 828.364 311.55 830.522 309.106 830.522ZM324.94 832.498C326.63 832.498 328.242 831.822 329.516 830.73L328.476 829.118C327.592 829.898 326.448 830.522 325.148 830.522C322.548 830.522 320.78 828.364 320.78 825.114C320.78 821.864 322.652 819.68 325.226 819.68C326.318 819.68 327.228 820.174 328.034 820.902L329.23 819.342C328.242 818.458 326.968 817.678 325.122 817.678C321.482 817.678 318.336 820.408 318.336 825.114C318.336 829.794 321.196 832.498 324.94 832.498ZM335.886 832.498C337.628 832.498 339.214 831.588 340.566 830.47L340.644 830.47L340.852 832.16L342.802 832.16L342.802 823.476C342.802 819.966 341.372 817.678 337.914 817.678C335.626 817.678 333.65 818.692 332.376 819.524L333.286 821.162C334.404 820.408 335.886 819.654 337.524 819.654C339.838 819.654 340.436 821.396 340.436 823.216C334.43 823.892 331.778 825.426 331.778 828.494C331.778 831.042 333.52 832.498 335.886 832.498ZM336.562 830.574C335.158 830.574 334.066 829.95 334.066 828.338C334.066 826.518 335.678 825.348 340.436 824.802L340.436 828.728C339.058 829.95 337.914 830.574 336.562 830.574ZM351.694 832.498C352.578 832.498 353.514 832.238 354.32 831.978L353.852 830.184C353.384 830.392 352.76 830.574 352.24 830.574C350.602 830.574 350.056 829.586 350.056 827.87L350.056 819.966L353.904 819.966L353.904 818.042L350.056 818.042L350.056 814.064L348.08 814.064L347.82 818.042L345.584 818.172L345.584 819.966L347.69 819.966L347.69 827.792C347.69 830.626 348.704 832.498 351.694 832.498ZM358.298 832.498C359.234 832.498 360.014 831.77 360.014 830.704C360.014 829.612 359.234 828.884 358.298 828.884C357.336 828.884 356.582 829.612 356.582 830.704C356.582 831.77 357.336 832.498 358.298 832.498ZM369.114 832.498C370.804 832.498 372.312 831.588 373.404 830.496L373.482 830.496L373.69 832.16L375.64 832.16L375.64 811.464L373.248 811.464L373.248 816.898L373.378 819.316C372.13 818.302 371.064 817.678 369.4 817.678C366.176 817.678 363.29 820.538 363.29 825.114C363.29 829.82 365.578 832.498 369.114 832.498ZM369.634 830.496C367.164 830.496 365.734 828.494 365.734 825.088C365.734 821.864 367.554 819.68 369.816 819.68C370.986 819.68 372.078 820.096 373.248 821.162L373.248 828.572C372.078 829.872 370.934 830.496 369.634 830.496ZM386.144 832.498C388.042 832.498 389.55 831.874 390.772 831.068L389.94 829.482C388.874 830.184 387.782 830.6 386.404 830.6C383.726 830.6 381.88 828.676 381.724 825.66L391.24 825.66C391.292 825.296 391.344 824.828 391.344 824.308C391.344 820.278 389.316 817.678 385.702 817.678C382.478 817.678 379.384 820.512 379.384 825.114C379.384 829.768 382.374 832.498 386.144 832.498ZM381.698 823.97C381.984 821.162 383.752 819.576 385.754 819.576C387.964 819.576 389.264 821.11 389.264 823.97L381.698 823.97ZM397.87 832.16L400.652 832.16L405.644 818.042L403.304 818.042L400.626 826.076C400.21 827.454 399.742 828.884 399.326 830.236L399.196 830.236C398.78 828.884 398.338 827.454 397.896 826.076L395.244 818.042L392.774 818.042L397.87 832.16Z">
            </path>
        </g>
        <circle cx="123" cy="787" r="320" fill="url(#linear_fill_GZUNL1nuo90sP0PC2widu)"></circle>
    </g>
    <defs>
        <clipPath id="clip-path-3fW4VUOm3lWlJ_imFjyIc">
            <path d="M0 900L1600 900L1600 0L0 0L0 900Z" fill="white" />
        </clipPath>
        <linearGradient id="linear_fill_ka59YjQ0g_3xpPPF6FOyO" x1="0" y1="0" x2="1600" y2="900"
            gradientUnits="userSpaceOnUse">
            <stop offset="0" stop-color="#433E6B" />
            <stop offset="1" stop-color="#E1D4E4" />
        </linearGradient>
        <radialGradient id="linear_fill_GZUNL1nuo90sP0PC2widu" cx="0" cy="0" r="1"
            gradientTransform="translate(123 807) rotate(62) scale(280.00000000000006, 340.00000000000006)"
            gradientUnits="userSpaceOnUse">
            <stop offset="0" stop-color="#F5ADC9" stop-opacity="0.24" />
            <stop offset="1" stop-color="#F5ADC9" stop-opacity="0" />
        </radialGradient>
    </defs>
</svg>