<svg xmlns="http://www.w3.org/2000/svg" xmlns:xlink="http://www.w3.org/1999/xlink" width="120" height="120" viewBox="0 0 120 120" fill="none"><g opacity="1"  transform="translate(0 0)  rotate(0)"><mask id="mask-0" fill="white"><path d="M30 120L90 120C106.57 120 120 106.57 120 90L120 30C120 13.43 106.57 0 90 0L30 0C13.43 0 0 13.43 0 30L0 90C0 106.57 13.43 120 30 120Z"  ></path></mask><g mask="url(#mask-0)"><path id="矩形 2" fill-rule="evenodd" fill="url(#linear_0)" opacity="1" d="M30 120L90 120C106.57 120 120 106.57 120 90L120 30C120 13.43 106.57 0 90 0L30 0C13.43 0 0 13.43 0 30L0 90C0 106.57 13.43 120 30 120Z"></path></g><g mask="url(#mask-0)"><g id="文本 2" filter="url(#filter_3)"><path id="文本 2" fill-rule="evenodd" style="fill:#FFFFFF" opacity="1" d="M67,72.6c0,4.1 -3.3,7.4 -7.3,7.4c-4.1,0 -7.4,-3.3 -7.4,-7.4c0,-4 3.3,-7.3 7.4,-7.3c4,0 7.3,3.3 7.3,7.3zM10,87.3c0,-1.3 0.3,-2.5 0.9,-3.5l0.1,-0.3l2.1,-3.5l2,-3.6c0,0 0.1,-0.1 0.1,-0.2l2.1,-3.6l2,-3.5l0.2,-0.3c1.3,-2.1 3.6,-3.5 6.3,-3.5c2.6,0 5,1.4 6.2,3.5l0.2,0.3c0.6,1 0.9,2.3 0.9,3.5c0,1.3 -0.3,2.6 -0.9,3.6l-0.1,0.2h-0.1l-2,3.6l-2,3.5h-0.1c0,0.1 0,0.2 -0.1,0.3c-0.6,1 -0.9,2.2 -0.9,3.5c0,1.3 0.3,2.5 0.9,3.6l0.2,0.2l2,3.6l2,3.5h0.1l0.1,0.2l4.1,7.2c0,0 0.1,0.1 0.1,0.2c1.3,2.1 3.7,3.5 6.3,3.5c2.7,0 5.1,-1.4 6.3,-3.6l0.1,-0.1l2.1,-3.6l2,-3.6l0.2,-0.2c1.3,-2.1 3.6,-3.5 6.3,-3.5c2.7,0 5,1.4 6.3,3.6l0.1,0.1l2,3.6l2.1,3.6c0,0 0.1,0.1 0.1,0.2c1.3,2.1 3.6,3.5 6.3,3.5c2.7,0 5.1,-1.4 6.3,-3.6l0.1,-0.1l2.1,-3.6l2,-3.6l0.2,-0.2l2,-3.5l2.1,-3.6l0.1,-0.2c0.6,-1.1 0.9,-2.3 0.9,-3.6c0,-1.3 -0.3,-2.5 -0.9,-3.6l-0.1,-0.1l-2.1,-3.6l-2,-3.6l-0.2,-0.2c-0.5,-1 -0.9,-2.3 -0.9,-3.6c0,-1.2 0.3,-2.5 0.9,-3.5l0.2,-0.3c1.3,-2.1 3.6,-3.5 6.3,-3.5c2.6,0 5,1.5 6.3,3.6l0.1,0.2l4,7l0.1,0.1c0,0.1 0.1,0.1 0.1,0.2l4.2,7.2v0.1c0.6,1.1 1,2.3 1,3.6c0,1.3 -0.4,2.5 -1,3.6l-0.1,0.2l-2,3.6l-2.1,3.5c0,0.1 -0.1,0.2 -0.1,0.3h-0.1l-2,3.5l-2,3.6l-0.1,0.1l-2.1,3.6l-2,3.6l-0.2,0.2l-2,3.6l-2.1,3.6l-0.1,0.1l-2.1,3.6l-2,3.5v0.1c-0.1,0 -0.1,0.1 -0.2,0.2l-2,3.6l-2.1,3.5l-0.1,0.2c-1.3,2.2 -3.6,3.6 -6.3,3.6c-2.7,0 -5,-1.4 -6.3,-3.5l-0.1,-0.3l-2.1,-3.5l-2,-3.6l-0.1,-0.2c-1.3,-2.1 -3.6,-3.6 -6.3,-3.6c-2.7,0 -5,1.4 -6.3,3.5v0.1c-0.1,0 -0.1,0.1 -0.2,0.2l-2,3.6l-2.1,3.5l-0.1,0.2c-1.3,2.1 -3.6,3.6 -6.3,3.6c-2.6,0 -5,-1.4 -6.3,-3.5l-0.1,-0.3l-2.1,-3.5l-2,-3.6c-0.1,-0.1 -0.1,-0.2 -0.1,-0.2l-0.1,-0.1l-4,-7h-0.1l-0.1,-0.3l-2,-3.5l-2.1,-3.6c0,-0.1 -0.1,-0.1 -0.1,-0.2l-2.1,-3.6l-2,-3.5l-0.2,-0.2l-4.1,-7.2c0,0 -0.1,-0.1 -0.1,-0.2l-2,-3.5l-2.1,-3.6l-0.1,-0.2c-0.6,-1.1 -0.9,-2.3 -0.9,-3.6z"></path></g></g><g mask="url(#mask-0)"><path id="文本 2" fill-rule="evenodd" style="fill:#FFFFFF" opacity="1" d="M67,72.3c0,4.1 -3.3,7.4 -7.3,7.4c-4.1,0 -7.4,-3.3 -7.4,-7.4c0,-4 3.3,-7.3 7.4,-7.3c4,0 7.3,3.3 7.3,7.3zM10,87c0,-1.3 0.3,-2.5 0.9,-3.5l0.1,-0.3l2.1,-3.5l2,-3.6c0,0 0.1,-0.1 0.1,-0.2l2.1,-3.6l2,-3.5l0.2,-0.3c1.3,-2.1 3.6,-3.5 6.3,-3.5c2.6,0 5,1.4 6.2,3.5l0.2,0.3c0.6,1 0.9,2.3 0.9,3.5c0,1.3 -0.3,2.6 -0.9,3.6l-0.1,0.2h-0.1l-2,3.6l-2,3.5h-0.1c0,0.1 0,0.2 -0.1,0.3c-0.6,1 -0.9,2.2 -0.9,3.5c0,1.3 0.3,2.5 0.9,3.6l0.2,0.2l2,3.6l2,3.5h0.1l0.1,0.2l4.1,7.2c0,0 0.1,0.1 0.1,0.2c1.3,2.1 3.7,3.5 6.3,3.5c2.7,0 5.1,-1.4 6.3,-3.6l0.1,-0.1l2.1,-3.6l2,-3.6l0.2,-0.2c1.3,-2.1 3.6,-3.5 6.3,-3.5c2.7,0 5,1.4 6.3,3.6l0.1,0.1l2,3.6l2.1,3.6c0,0 0.1,0.1 0.1,0.2c1.3,2.1 3.6,3.5 6.3,3.5c2.7,0 5.1,-1.4 6.3,-3.6l0.1,-0.1l2.1,-3.6l2,-3.6l0.2,-0.2l2,-3.5l2.1,-3.6l0.1,-0.2c0.6,-1.1 0.9,-2.3 0.9,-3.6c0,-1.3 -0.3,-2.5 -0.9,-3.6l-0.1,-0.1l-2.1,-3.6l-2,-3.6l-0.2,-0.2c-0.5,-1 -0.9,-2.3 -0.9,-3.6c0,-1.2 0.3,-2.5 0.9,-3.5l0.2,-0.3c1.3,-2.1 3.6,-3.5 6.3,-3.5c2.6,0 5,1.5 6.3,3.6l0.1,0.2l4,7l0.1,0.1c0,0.1 0.1,0.1 0.1,0.2l4.2,7.2v0.1c0.6,1.1 1,2.3 1,3.6c0,1.3 -0.4,2.5 -1,3.6l-0.1,0.2l-2,3.6l-2.1,3.5c0,0.1 -0.1,0.2 -0.1,0.3h-0.1l-2,3.5l-2,3.6l-0.1,0.1l-2.1,3.6l-2,3.6l-0.2,0.2l-2,3.6l-2.1,3.6l-0.1,0.1l-2.1,3.6l-2,3.5v0.1c-0.1,0 -0.1,0.1 -0.2,0.2l-2,3.6l-2.1,3.5l-0.1,0.2c-1.3,2.2 -3.6,3.6 -6.3,3.6c-2.7,0 -5,-1.4 -6.3,-3.5l-0.1,-0.3l-2.1,-3.5l-2,-3.6l-0.1,-0.2c-1.3,-2.1 -3.6,-3.6 -6.3,-3.6c-2.7,0 -5,1.4 -6.3,3.5v0.1c-0.1,0 -0.1,0.1 -0.2,0.2l-2,3.6l-2.1,3.5l-0.1,0.2c-1.3,2.1 -3.6,3.6 -6.3,3.6c-2.6,0 -5,-1.4 -6.3,-3.5l-0.1,-0.3l-2.1,-3.5l-2,-3.6c-0.1,-0.1 -0.1,-0.2 -0.1,-0.2l-0.1,-0.1l-4,-7h-0.1l-0.1,-0.3l-2,-3.5l-2.1,-3.6c0,-0.1 -0.1,-0.1 -0.1,-0.2l-2.1,-3.6l-2,-3.5l-0.2,-0.2l-4.1,-7.2c0,0 -0.1,-0.1 -0.1,-0.2l-2,-3.5l-2.1,-3.6l-0.1,-0.2c-0.6,-1.1 -0.9,-2.3 -0.9,-3.6z"></path></g></g><defs><linearGradient id="linear_0" x1="-11.759%" y1="21.705%" x2="92.283%" y2="93.361%" gradientUnits="objectBoundingBox"><stop offset="0" stop-color="#495AFF" stop-opacity="1" /><stop offset="1" stop-color="#0ACFFE" stop-opacity="1" /></linearGradient><filter id="filter_3" x="4" y="59.29998779296875" width="111.4" height="85.4" filterUnits="userSpaceOnUse" color-interpolation-filters="sRGB"><feFlood flood-opacity="0" result="BackgroundImageFix"/>
          <feBlend mode="normal" in="SourceGraphic" in2="BackgroundImageFix" result="shape"/>
          <feGaussianBlur stdDeviation="3" result="effect1_foregroundBlur" /></filter></defs></svg>