<svg xmlns="http://www.w3.org/2000/svg" xmlns:xlink="http://www.w3.org/1999/xlink" width="482" height="87" viewBox="0 0 482 87" fill="none"><g opacity="1" transform="translate(0 0)  rotate(0 241 43.5)"><g opacity="1" transform="translate(164 0)  rotate(0 23.5 15.999999999999996)"><path id="路径 1" fill-rule="evenodd" style="fill:#C3D2FB" transform="translate(0 13.714049358885966)  rotate(0 11.32536046511637 9.142975320557008)" opacity="1" d="M18.12,9.14C18.12,4.09 14.06,0 9.06,0C4.06,0 0,4.09 0,9.14C0,14.19 4.06,18.29 9.06,18.29L22.65,18.29L22.65,9.14L18.12,9.14Z " /><path id="路径 2" fill-rule="evenodd" style="fill:#7094F3" transform="translate(7.927697674418994 0)  rotate(0 15.855395348837332 15.999999999999996)" opacity="1" d="M15.86,0C7.1,0 0,7.16 0,16C0,24.84 7.1,32 15.86,32L25.48,32L25.48,28.71C29.27,25.79 31.71,21.18 31.71,16C31.71,7.16 24.61,0 15.86,0Z " /><path id="路径 3" fill-rule="evenodd" style="fill:#386BF3" transform="translate(22.084534883720735 6.857300427409356)  rotate(0 12.45773255813963 12.571349786295318)" opacity="1" d="M12.46,25.14C19.33,25.14 24.92,19.51 24.92,12.57C24.92,5.63 19.33,0 12.46,0C5.58,0 0,5.63 0,12.57C0,19.51 5.58,25.14 12.46,25.14Z " /></g><g opacity="1" transform="translate(0 0)  rotate(0 241 43.5)"><g opacity="1" transform="translate(0 0)  rotate(0 241 43.5)"><text><tspan x="127.22499999999997" y="61.7" font-size="50" line-height="0" fill="#FFFFFF" opacity="1" font-family="AlibabaPuHuiTi-Regular" letter-spacing="0" >OurWorld</tspan></text></g></g></g></svg>