<svg xmlns="http://www.w3.org/2000/svg" xmlns:xlink="http://www.w3.org/1999/xlink" width="198" height="198" viewBox="0 0 198 198" fill="none"><g opacity="1"  transform="translate(0 0)  rotate(0)"><path id="矩形 2" fill-rule="evenodd" fill="url(#linear_0)" opacity="1" d="M30 198L168 198C184.57 198 198 184.57 198 168L198 30C198 13.43 184.57 0 168 0L30 0C13.43 0 0 13.43 0 30L0 168C0 184.57 13.43 198 30 198Z"></path><g opacity="1"  transform="translate(25.6982421875 35.10400390625)  rotate(0)"><path id="文本 1" fill-rule="evenodd" style="fill:#FFFFFF" opacity="1" d="M13.29,59.62c-8.86,0 -11.74,-7.24 -11.74,-7.24c-2.88,-7.24 -0.86,-22.43 -0.86,-22.43c2.08,-15.48 7.12,-22.71 7.12,-22.71c5.04,-7.24 13.11,-7.24 13.11,-7.24c9,0 11.84,7.24 11.84,7.24c2.85,7.23 0.76,22.71 0.76,22.71c-2.02,15.19 -7.02,22.43 -7.02,22.43c-5.01,7.24 -13.21,7.24 -13.21,7.24zM21.46,47.2c2.48,-5.58 4.28,-17.25 4.28,-17.25c1.8,-11.81 0.65,-17.46 0.65,-17.46c-1.15,-5.65 -6.05,-5.65 -6.05,-5.65c-4.97,0 -7.52,5.65 -7.52,5.65c-2.56,5.65 -4.36,17.46 -4.36,17.46c-1.8,11.67 -0.54,17.25 -0.54,17.25c1.26,5.58 6.09,5.58 6.09,5.58c4.96,0 7.45,-5.58 7.45,-5.58zM58.29,14.98h6.98l-6.26,43.92h-6.56l0.36,-4.25c-1.8,2.66 -3.99,3.81 -3.99,3.81c-2.2,1.16 -4.29,1.16 -4.29,1.16c-2.59,0 -4.64,-1.26 -4.64,-1.26c-2.05,-1.26 -2.99,-4.11 -2.99,-4.11c-0.93,-2.84 -0.29,-7.59 -0.29,-7.59l4.47,-31.68h7.05l-4.39,30.52c-1.08,7.64 3.67,7.64 3.67,7.64c2.31,0 4.04,-2.16 4.04,-2.16c1.72,-2.16 2.52,-5.55 2.52,-5.55zM72.33,58.9h-6.84l6.19,-44.14h6.84l-0.79,5.54c2.08,-3.16 4.96,-4.53 4.96,-4.53c2.88,-1.37 6.05,-1.37 6.05,-1.37l-0.93,7.13c-3.96,-0.51 -7.2,1.98 -7.2,1.98c-3.24,2.48 -4.4,7.88 -4.4,7.88z"></path><path id="文本 1" fill-rule="evenodd" style="fill:#FFFFFF" opacity="1" d="M2.26953,67.716h7.56l0.71997,37.52c0.07,1.87 0.11,4.03 0.11,4.03c0.03,2.16 0.03,4.25 0.03,4.25c0.58,-2.02 1.3,-4.36 1.3,-4.36c0.72,-2.34 1.37,-4.72 1.37,-4.72l10.29,-36.72h7.71l0.72,37.52c0.07,1.87 0.11,3.99 0.11,3.99c0.03,2.13 0.03,4.29 0.03,4.29c0.58,-2.02 1.3,-4.36 1.3,-4.36c0.72,-2.34 1.37,-4.72 1.37,-4.72l10.29,-36.72h7.71l-18.8,58.18h-6.98l-1.51,-34.85c-0.07,-1.44 -0.04,-3.56 -0.04,-3.56c0.04,-2.13 0.11,-4.36 0.11,-4.36c-0.58,2.16 -1.15,4.21 -1.15,4.21c-0.58,2.06 -1.01,3.42 -1.01,3.42l-10.94,35.14h-6.98997zM61.3095,126.616c-6.98,0 -9.58,-5.51 -9.58,-5.51c-2.59,-5.51 -1.08,-17.1 -1.08,-17.1c1.52,-11.73 5.51,-17.24 5.51,-17.24c4,-5.51 10.84,-5.51 10.84,-5.51c7.05,0 9.65,5.51 9.65,5.51c2.59,5.51 1.08,17.24 1.08,17.24c-1.52,11.59 -5.51,17.1 -5.51,17.1c-4,5.51 -10.91,5.51 -10.91,5.51zM67.2495,116.216c2.12,-3.93 3.28,-12.21 3.28,-12.21c1.22,-8.35 0.21,-12.31 0.21,-12.31c-1.01,-3.96 -4.32,-3.96 -4.32,-3.96c-3.17,0 -5.25,3.96 -5.25,3.96c-2.09,3.96 -3.32,12.31 -3.32,12.31c-1.15,8.28 -0.21,12.21 -0.21,12.21c0.93,3.92 4.17,3.92 4.17,3.92c3.32,0 5.44,-3.92 5.44,-3.92zM88.2395,125.896h-6.84l6.19,-44.14h6.84l-0.79,5.55c2.09,-3.17 4.97,-4.54 4.97,-4.54c2.8805,-1.37 6.0405,-1.37 6.0405,-1.37l-0.93,7.13c-3.9605,-0.5 -7.2005,1.98 -7.2005,1.98c-3.24,2.49 -4.39,7.89 -4.39,7.89zM109.41,125.896h-6.99l8.57,-60.48h6.98zM142.24,125.896h-6.63l0.36,-3.96c-1.58,2.16 -3.56,3.42 -3.56,3.42c-1.98,1.26 -4.14,1.26 -4.14,1.26c-2.38,0 -4.46,-1.15 -4.46,-1.15c-2.09,-1.15 -3.46,-3.89 -3.46,-3.89c-1.37,-2.74 -1.73,-7.31 -1.73,-7.31c-0.36,-4.57 0.58,-11.41 0.58,-11.41c1.58,-10.94 5.54,-16.24 5.54,-16.24c3.96,-5.29 9.22,-5.29 9.22,-5.29c4.82,0 6.98,4.39 6.98,4.39l2.88,-20.3h6.99zM125.68,111.996c-0.07,3.75 0.93,5.94 0.93,5.94c1.01,2.2 3.53,2.2 3.53,2.2c1.73,0 3.13,-1.26 3.13,-1.26c1.41,-1.26 2.42,-3.28 2.42,-3.28c1,-2.01 1.58,-4.32 1.58,-4.32l2.3,-15.91c0.08,-3.31 -1.22,-5.43 -1.22,-5.43c-1.3,-2.13 -3.74,-2.13 -3.74,-2.13c-2.24,0 -3.89,2.16 -3.89,2.16c-1.66,2.16 -2.74,5.76 -2.74,5.76c-1.08,3.6 -1.65,7.92 -1.65,7.92c-0.58,4.61 -0.65,8.35 -0.65,8.35z"></path></g></g><defs><linearGradient id="linear_0" x1="-11.759%" y1="21.705%" x2="92.28300000000002%" y2="93.361%" gradientUnits="objectBoundingBox"><stop offset="0" stop-color="#495AFF" stop-opacity="1" /><stop offset="1" stop-color="#0ACFFE" stop-opacity="1" /></linearGradient></defs></svg>