<svg xmlns="http://www.w3.org/2000/svg" xmlns:xlink="http://www.w3.org/1999/xlink" width="100" height="100" viewBox="0 0 100 100" fill="none"><g opacity="1"  transform="translate(0 0)  rotate(0)"><path id="矩形 2" fill-rule="evenodd" fill="url(#linear_0)" opacity="1" d="M0 100L100 100L100 0L0 0L0 100Z"></path><path id="文本 1" fill-rule="evenodd" style="fill:#FFFFFF" opacity="1" d="M22.9883,79.724c-8.8601,0 -11.7401,-7.24 -11.7401,-7.24c-2.87996,-7.24 -0.86,-22.43 -0.86,-22.43c2.08,-15.48 7.12,-22.71 7.12,-22.71c5.0401,-7.24 13.1101,-7.24 13.1101,-7.24c9,0 11.84,7.24 11.84,7.24c2.85,7.23 0.76,22.71 0.76,22.71c-2.02,15.19 -7.02,22.43 -7.02,22.43c-5.01,7.24 -13.21,7.24 -13.21,7.24zM31.1583,67.304c2.48,-5.58 4.28,-17.25 4.28,-17.25c1.8,-11.81 0.65,-17.46 0.65,-17.46c-1.15,-5.65 -6.05,-5.65 -6.05,-5.65c-4.97,0 -7.52,5.65 -7.52,5.65c-2.56,5.65 -4.3601,17.46 -4.3601,17.46c-1.8,11.67 -0.54,17.25 -0.54,17.25c1.2601,5.58 6.0901,5.58 6.0901,5.58c4.96,0 7.45,-5.58 7.45,-5.58zM51.7083,79.004l-3.09,-43.92h7.13l1,26.06c0.08,2.45 0.18,4.93 0.18,4.93c0.11,2.49 0.26,4.93 0.26,4.93c0.72,-2.44 1.47,-4.89 1.47,-4.89c0.76,-2.45 1.55,-4.97 1.55,-4.97l8.06,-26.06h6.99l1.22,26.06c0.15,2.45 0.25,4.9 0.25,4.9c0.11,2.44 0.18,4.89 0.18,4.89c0.8,-2.45 1.55,-4.89 1.55,-4.89c0.76,-2.45 1.48,-4.9 1.48,-4.9l8.06,-26.06h7.2l-15.41,43.92h-8.35l-1.58,-23.76c-0.07,-1.16 -0.11,-2.63 -0.11,-2.63c-0.04,-1.48 -0.04,-3.13 -0.04,-3.13c-0.28,1.22 -0.57,2.34 -0.57,2.34c-0.29,1.11 -0.58,1.9 -0.58,1.9l-8.49,25.28z"></path></g><defs><linearGradient id="linear_0" x1="-11.759%" y1="21.705%" x2="92.283%" y2="93.361%" gradientUnits="objectBoundingBox"><stop offset="0" stop-color="#495AFF" stop-opacity="1" /><stop offset="1" stop-color="#0ACFFE" stop-opacity="1" /></linearGradient></defs></svg>