<svg version="1.1" xmlns="http://www.w3.org/2000/svg" xmlns:xlink="http://www.w3.org/1999/xlink" width="21.00753" height="9.01864" viewBox="0,0,21.00753,9.01864"><g transform="translate(-229.30179,-163.47859)"><g data-paper-data="{&quot;isPaintingLayer&quot;:true}" fill="#ff9400" fill-rule="nonzero" stroke="none" stroke-width="1" stroke-linecap="butt" stroke-linejoin="miter" stroke-miterlimit="10" stroke-dasharray="" stroke-dashoffset="0" style="mix-blend-mode: normal"><path d="M249.09,165.78581l-1.44,-0.35l-4,0.62h-0.07h-0.07h-0.51l0.08,0.11h1.23l3.78,0.32c0.54915,0.04767 0.95616,0.53073 0.91,1.08c-0.02282,0.26564 -0.15078,0.51117 -0.35545,0.68204c-0.20467,0.17087 -0.4691,0.25293 -0.73455,0.22796l-3.73,-0.31h-0.18c0.03532,0.2049 0.05537,0.41213 0.06,0.62c-0.16569,2.20914 -2.09086,3.86569 -4.3,3.7c-2.20914,-0.16569 -3.86569,-2.09086 -3.7,-4.3h-0.31l-3.52,0.36c-0.54591,0.05241 -1.03218,-0.34463 -1.09,-0.89c-0.02799,-0.26392 0.05008,-0.52814 0.21701,-0.73446c0.16694,-0.20633 0.40904,-0.33783 0.67299,-0.36554l3.56,-0.36h1.41l0.08,-0.09h-1l-4.14,-0.56l-1.38,0.37c-0.53572,0.14083 -1.08417,-0.17928 -1.225,-0.715c-0.14083,-0.53572 0.17928,-1.08417 0.715,-1.225l1.59,-0.43c0.08636,-0.01037 0.17364,-0.01037 0.26,0h0.1l4.28,0.58h3.72h3.41l4.12,-0.64h0.12c0.07971,-0.00963 0.16029,-0.00963 0.24,0l1.66,0.41c0.53545,0.13291 0.86211,0.67435 0.73,1.21c-0.15454,0.5056 -0.67594,0.80354 -1.19,0.68z" data-paper-data="{&quot;index&quot;:null}"/><path d="M249.09,165.78581l-1.44,-0.35l-4,0.62h-0.07h-0.07h-0.51l0.08,0.11h1.23l3.78,0.32c0.54915,0.04767 0.95616,0.53073 0.91,1.08c-0.02282,0.26564 -0.15078,0.51117 -0.35545,0.68204c-0.20467,0.17087 -0.4691,0.25293 -0.73455,0.22796l-3.73,-0.31h-0.18c0.03532,0.2049 0.05537,0.41213 0.06,0.62c-0.16569,2.20914 -2.09086,3.86569 -4.3,3.7c-2.20914,-0.16569 -3.86569,-2.09086 -3.7,-4.3h-0.31l-3.52,0.36c-0.54591,0.05241 -1.03218,-0.34463 -1.09,-0.89c-0.02799,-0.26392 0.05008,-0.52814 0.21701,-0.73446c0.16694,-0.20633 0.40904,-0.33783 0.67299,-0.36554l3.56,-0.36h1.41l0.08,-0.09h-1l-4.14,-0.56l-1.38,0.37c-0.53572,0.14083 -1.08417,-0.17928 -1.225,-0.715c-0.14083,-0.53572 0.17928,-1.08417 0.715,-1.225l1.59,-0.43c0.08636,-0.01037 0.17364,-0.01037 0.26,0h0.1l4.28,0.58h3.72h3.41l4.12,-0.64h0.12c0.07971,-0.00963 0.16029,-0.00963 0.24,0l1.66,0.41c0.53545,0.13291 0.86211,0.67435 0.73,1.21c-0.15454,0.5056 -0.67594,0.80354 -1.19,0.68z" data-paper-data="{&quot;index&quot;:null}"/></g></g></svg>