<svg version="1.1" xmlns="http://www.w3.org/2000/svg" xmlns:xlink="http://www.w3.org/1999/xlink" width="34.41036" height="54.5" viewBox="0,0,34.41036,54.5"><g transform="translate(-222.79999,-127.21)"><g data-paper-data="{&quot;isPaintingLayer&quot;:true}" fill="#ff9400" fill-rule="nonzero" stroke="none" stroke-width="1" stroke-linecap="butt" stroke-linejoin="miter" stroke-miterlimit="10" stroke-dasharray="" stroke-dashoffset="0" style="mix-blend-mode: normal"><path d="M257.21,141.41c-0.00324,0.45386 -0.07058,0.90498 -0.2,1.34c0.00048,0.09015 -0.02007,0.17917 -0.06,0.26v0.07c-0.07,0.16 -0.14,0.33 -0.22,0.48h-0.07l-8,13.65c0.17863,0.3094 0.17863,0.6906 0,1l-2.83,4.39c-0.05305,0.07866 -0.11703,0.14937 -0.19,0.21v0c-0.0871,0.06908 -0.18511,0.12316 -0.29,0.16v0l-4.35,1.33v6.13l2.76,3.87v0.07c0.0308,0.05808 0.05753,0.11822 0.08,0.18c0.02252,0.06507 0.03925,0.13199 0.05,0.2c0,0.07 0,0.07 0,0.07l0.22,4l1.37,1c0.34434,0.25826 0.4848,0.70789 0.34868,1.11623c-0.13611,0.40834 -0.51825,0.68377 -0.94868,0.68377c-0.21637,0 -0.4269,-0.07018 -0.6,-0.2l-1.61,-1.21c-0.26364,-0.14606 -0.44734,-0.40324 -0.5,-0.7c-0.00448,-0.02648 -0.00448,-0.05352 0,-0.08v0l-0.23,-4.18l-1.94,-2.74l-1.93,2.73l-0.23,4.18c-0.02765,0.31866 -0.20606,0.60487 -0.48,0.77l-1.57,1.29c-0.17991,0.14908 -0.40635,0.23046 -0.64,0.23c-0.4404,0.00099 -0.8296,-0.28626 -0.95847,-0.70738c-0.12887,-0.42112 0.03294,-0.87698 0.39847,-1.12262l1.35,-1.11l0.22,-4c0,-0.08 0,-0.08 0,-0.08c0.0132,-0.0642 0.02989,-0.12762 0.05,-0.19c0.02154,-0.07016 0.05178,-0.13735 0.09,-0.2v0l2.7,-3.81v-6.23l-4.43,-1.48v0c-0.11316,-0.03655 -0.21835,-0.09424 -0.31,-0.17v0c-0.06454,-0.05582 -0.12167,-0.11967 -0.17,-0.19l-2.87,-4.27c-0.17863,-0.3094 -0.17863,-0.6906 0,-1l-7.92,-13.6h-0.06c-0.06,-0.12 -0.1,-0.24 -0.15,-0.36l-0.15,-0.25c-0.04895,-0.12194 -0.04895,-0.25806 0,-0.38c-0.09378,-0.39987 -0.14076,-0.80928 -0.14,-1.22c0,-7.25 7.71,-14.13 17.2,-14.13c9.55,0 17.27,6.88 17.21,14.2zM252.58,143.34c-0.44488,0.15858 -0.87352,0.3595 -1.28,0.6c0.00991,0.05623 0.00991,0.11377 0,0.17l-2.3,10.54l6.61,-11.31c-0.99197,-0.26993 -2.03803,-0.26993 -3.03,0zM245.23,144.39c-1.63079,-0.01628 -3.24534,0.32506 -4.73,1v8.76c2.00947,0.12829 3.61033,1.73029 3.73719,3.73985c0.12687,2.00956 -1.25981,3.80016 -3.23719,4.18015v0.14l3.39,-1.02l2.63,-4.09c0.12761,-0.18607 0.3144,-0.32351 0.53,-0.39l2.57,-11.91c-1.58752,-0.45505 -3.24887,-0.59435 -4.89,-0.41zM235.11,144.35c-2.45,-0.15 -4.54,0.11 -5.2,0.59l2.55,11.77c0.2105,0.06586 0.39332,0.19945 0.52,0.38l2.68,4l3.32,1.11v-0.13c-1.89687,-0.44928 -3.19365,-2.2005 -3.07005,-4.14593c0.1236,-1.94543 1.63157,-3.51846 3.57005,-3.72407v-9c-1.39693,-0.52037 -2.8699,-0.80753 -4.36,-0.85zM227.62,143.48c-1.03807,-0.32382 -2.14537,-0.35496 -3.2,-0.09l6.58,11.26l-2.29,-10.54v-0.08c-0.34275,-0.21539 -0.70421,-0.39947 -1.08,-0.55z"/><path d="M257.21,141.41c-0.00324,0.45386 -0.07058,0.90498 -0.2,1.34c0.00048,0.09015 -0.02007,0.17917 -0.06,0.26v0.07c-0.07,0.16 -0.14,0.33 -0.22,0.48h-0.07l-8,13.65c0.17863,0.3094 0.17863,0.6906 0,1l-2.83,4.39c-0.05305,0.07866 -0.11703,0.14937 -0.19,0.21v0c-0.0871,0.06908 -0.18511,0.12316 -0.29,0.16v0l-4.35,1.33v6.13l2.76,3.87v0.07c0.0308,0.05808 0.05753,0.11822 0.08,0.18c0.02252,0.06507 0.03925,0.13199 0.05,0.2c0,0.07 0,0.07 0,0.07l0.22,4l1.37,1c0.34434,0.25826 0.4848,0.70789 0.34868,1.11623c-0.13611,0.40834 -0.51825,0.68377 -0.94868,0.68377c-0.21637,0 -0.4269,-0.07018 -0.6,-0.2l-1.61,-1.21c-0.26364,-0.14606 -0.44734,-0.40324 -0.5,-0.7c-0.00448,-0.02648 -0.00448,-0.05352 0,-0.08v0l-0.23,-4.18l-1.94,-2.74l-1.93,2.73l-0.23,4.18c-0.02765,0.31866 -0.20606,0.60487 -0.48,0.77l-1.57,1.29c-0.17991,0.14908 -0.40635,0.23046 -0.64,0.23c-0.4404,0.00099 -0.8296,-0.28626 -0.95847,-0.70738c-0.12887,-0.42112 0.03294,-0.87698 0.39847,-1.12262l1.35,-1.11l0.22,-4c0,-0.08 0,-0.08 0,-0.08c0.0132,-0.0642 0.02989,-0.12762 0.05,-0.19c0.02154,-0.07016 0.05178,-0.13735 0.09,-0.2v0l2.7,-3.81v-6.23l-4.43,-1.48v0c-0.11316,-0.03655 -0.21835,-0.09424 -0.31,-0.17v0c-0.06454,-0.05582 -0.12167,-0.11967 -0.17,-0.19l-2.87,-4.27c-0.17863,-0.3094 -0.17863,-0.6906 0,-1l-7.92,-13.6h-0.06c-0.06,-0.12 -0.1,-0.24 -0.15,-0.36l-0.15,-0.25c-0.04895,-0.12194 -0.04895,-0.25806 0,-0.38c-0.09378,-0.39987 -0.14076,-0.80928 -0.14,-1.22c0,-7.25 7.71,-14.13 17.2,-14.13c9.55,0 17.27,6.88 17.21,14.2zM252.58,143.34c-0.44488,0.15858 -0.87352,0.3595 -1.28,0.6c0.00991,0.05623 0.00991,0.11377 0,0.17l-2.3,10.54l6.61,-11.31c-0.99197,-0.26993 -2.03803,-0.26993 -3.03,0zM245.23,144.39c-1.63079,-0.01628 -3.24534,0.32506 -4.73,1v8.76c2.00947,0.12829 3.61033,1.73029 3.73719,3.73985c0.12687,2.00956 -1.25981,3.80016 -3.23719,4.18015v0.14l3.39,-1.02l2.63,-4.09c0.12761,-0.18607 0.3144,-0.32351 0.53,-0.39l2.57,-11.91c-1.58752,-0.45505 -3.24887,-0.59435 -4.89,-0.41zM235.11,144.35c-2.45,-0.15 -4.54,0.11 -5.2,0.59l2.55,11.77c0.2105,0.06586 0.39332,0.19945 0.52,0.38l2.68,4l3.32,1.11v-0.13c-1.89687,-0.44928 -3.19365,-2.2005 -3.07005,-4.14593c0.1236,-1.94543 1.63157,-3.51846 3.57005,-3.72407v-9c-1.39693,-0.52037 -2.8699,-0.80753 -4.36,-0.85zM227.62,143.48c-1.03807,-0.32382 -2.14537,-0.35496 -3.2,-0.09l6.58,11.26l-2.29,-10.54v-0.08c-0.34275,-0.21539 -0.70421,-0.39947 -1.08,-0.55z"/></g></g></svg>