<svg version="1.1" xmlns="http://www.w3.org/2000/svg" xmlns:xlink="http://www.w3.org/1999/xlink" width="15.75342" height="25.89948" viewBox="0,0,15.75342,25.89948"><g transform="translate(-233.985,-154.44789)"><g data-paper-data="{&quot;isPaintingLayer&quot;:true}" fill="none" fill-rule="nonzero" stroke="none" stroke-width="1" stroke-linecap="butt" stroke-linejoin="miter" stroke-miterlimit="10" stroke-dasharray="" stroke-dashoffset="0" font-family="none" font-weight="none" font-size="none" text-anchor="none" style="mix-blend-mode: normal"><path d="M249.72474,167.89399c-0.07624,0.45746 -0.457,0.80246 -0.91974,0.83338c-0.13001,0.00159 -0.25909,-0.02218 -0.38,-0.07l-3,-1.24c-0.04136,-0.01499 -0.07891,-0.03888 -0.11,-0.07c-0.06689,-0.03407 -0.13049,-0.07424 -0.19,-0.12l-1.99,-1.8l-1.73,4.72l2.51,1.74c0.05454,0.04589 0.10175,0.09985 0.14,0.16c0.04485,0.03483 0.08517,0.07515 0.12,0.12v0l1.38,2.11l0.6,-0.85c0.31756,-0.45287 0.94213,-0.56256 1.395,-0.245c0.45287,0.31756 0.56256,0.94213 0.245,1.395l-1.37,1.94c-0.07418,0.16489 -0.19168,0.30658 -0.34,0.41c-0.46147,0.29931 -1.07804,0.16974 -1.38,-0.29v0v0l-2.06,-3.17l-2.31,-1.6l-2.92,2.34l0.65,4.84c0.03427,0.09661 0.05447,0.19764 0.06,0.3c0.00494,0.50193 -0.36298,0.92975 -0.86,1h-0.07h-0.07h-2.14c-0.55228,0 -1,-0.44772 -1,-1c0,-0.55228 0.44772,-1 1,-1h1l-0.59,-4.41c-0.00502,-0.03984 -0.00502,-0.08016 0,-0.12c-0.00986,-0.0663 -0.00986,-0.1337 0,-0.2c0.012,-0.0612 0.02872,-0.12138 0.05,-0.18c0.02607,-0.05866 0.05614,-0.11546 0.09,-0.17c0.03455,-0.05991 0.07843,-0.11392 0.13,-0.16c0.02042,-0.02908 0.04389,-0.0559 0.07,-0.08l3.61,-2.91l2.08,-5.66l-2.81,-0.66l-3.11,0.95c-0.09367,0.03088 -0.1914,0.04773 -0.29,0.05c-0.55228,0.08284 -1.06716,-0.29772 -1.15,-0.85c-0.08284,-0.55228 0.29772,-1.06716 0.85,-1.15l3.38,-1h0.07c0.05625,-0.0097 0.11375,-0.0097 0.17,0c0.07325,-0.00502 0.14675,-0.00502 0.22,0h0.06l3.31,0.77l0.18,-0.5c-1.8194,-0.85653 -2.72006,-2.93065 -2.1038,-4.84482c0.61625,-1.91418 2.55782,-3.07326 4.5352,-2.70745c1.97738,0.36581 3.37577,2.1428 3.26643,4.15075c-0.10934,2.00795 -1.69242,3.62258 -3.69783,3.77152l-0.38,1l2.39,2.2l2.81,1.17c0.4277,0.17932 0.67598,0.62917 0.59974,1.08662z" fill="#ffee00"/><path d="M249.72474,167.89399c-0.07624,0.45746 -0.457,0.80246 -0.91974,0.83338c-0.13001,0.00159 -0.25909,-0.02218 -0.38,-0.07l-3,-1.24c-0.04136,-0.01499 -0.07891,-0.03888 -0.11,-0.07c-0.06689,-0.03407 -0.13049,-0.07424 -0.19,-0.12l-1.99,-1.8l-1.73,4.72l2.51,1.74c0.05454,0.04589 0.10175,0.09985 0.14,0.16c0.04485,0.03483 0.08517,0.07515 0.12,0.12v0l1.38,2.11l0.6,-0.85c0.31756,-0.45287 0.94213,-0.56256 1.395,-0.245c0.45287,0.31756 0.56256,0.94213 0.245,1.395l-1.37,1.94c-0.07418,0.16489 -0.19168,0.30658 -0.34,0.41c-0.46147,0.29931 -1.07804,0.16974 -1.38,-0.29v0v0l-2.06,-3.17l-2.31,-1.6l-2.92,2.34l0.65,4.84c0.03427,0.09661 0.05447,0.19764 0.06,0.3c0.00494,0.50193 -0.36298,0.92975 -0.86,1h-0.07h-0.07h-2.14c-0.55228,0 -1,-0.44772 -1,-1c0,-0.55228 0.44772,-1 1,-1h1l-0.59,-4.41c-0.00502,-0.03984 -0.00502,-0.08016 0,-0.12c-0.00986,-0.0663 -0.00986,-0.1337 0,-0.2c0.012,-0.0612 0.02872,-0.12138 0.05,-0.18c0.02607,-0.05866 0.05614,-0.11546 0.09,-0.17c0.03455,-0.05991 0.07843,-0.11392 0.13,-0.16c0.02042,-0.02908 0.04389,-0.0559 0.07,-0.08l3.61,-2.91l2.08,-5.66l-2.81,-0.66l-3.11,0.95c-0.09367,0.03088 -0.1914,0.04773 -0.29,0.05c-0.55228,0.08284 -1.06716,-0.29772 -1.15,-0.85c-0.08284,-0.55228 0.29772,-1.06716 0.85,-1.15l3.38,-1h0.07c0.05625,-0.0097 0.11375,-0.0097 0.17,0c0.07325,-0.00502 0.14675,-0.00502 0.22,0h0.06l3.31,0.77l0.18,-0.5c-1.8194,-0.85653 -2.72006,-2.93065 -2.1038,-4.84482c0.61625,-1.91418 2.55782,-3.07326 4.5352,-2.70745c1.97738,0.36581 3.37577,2.1428 3.26643,4.15075c-0.10934,2.00795 -1.69242,3.62258 -3.69783,3.77152l-0.38,1l2.39,2.2l2.81,1.17c0.4277,0.17932 0.67598,0.62917 0.59974,1.08662z" fill="#ff9400"/></g></g></svg>