<svg version="1.1" xmlns="http://www.w3.org/2000/svg" xmlns:xlink="http://www.w3.org/1999/xlink" width="15.63341" height="19.90029" viewBox="0,0,15.63341,19.90029"><g transform="translate(-233.71666,-164.63697)"><g data-paper-data="{&quot;isPaintingLayer&quot;:true}" fill="#ff9400" fill-rule="nonzero" stroke="none" stroke-width="1" stroke-linecap="butt" stroke-linejoin="miter" stroke-miterlimit="10" stroke-dasharray="" stroke-dashoffset="0" style="mix-blend-mode: normal"><path d="M247.7,181.53c0.41974,-0.35899 1.05101,-0.30974 1.41,0.11c0.35899,0.41974 0.30974,1.05101 -0.11,1.41l-1.64,1.3l-0.06,0.05v0v0c-0.06849,0.05643 -0.14633,0.10043 -0.23,0.13h-0.11v0c-0.08974,0.00967 -0.18026,0.00967 -0.27,0c-0.06299,0.00931 -0.12701,0.00931 -0.19,0v0c-0.11405,-0.02753 -0.22237,-0.07492 -0.32,-0.14l-3.89,-2.11l-3.24,-0.11v0c-0.47666,0.01165 -0.89525,-0.31485 -1,-0.78l-0.88,-4l-2.4,-0.51c-0.04839,-0.01572 -0.09525,-0.0358 -0.14,-0.06c-0.05163,-0.01566 -0.10181,-0.03573 -0.15,-0.06c-0.09428,-0.05583 -0.17873,-0.12678 -0.25,-0.21c-0.06,-0.06 -0.06,-0.06 -0.06,-0.06v0c-0.04326,-0.06482 -0.07694,-0.13555 -0.1,-0.21c-0.02598,-0.0474 -0.04612,-0.09776 -0.06,-0.15c0,-0.05 0,-0.11 0,-0.16c-0.01026,-0.07297 -0.01026,-0.14703 0,-0.22v0c0.01572,-0.04839 0.0358,-0.09525 0.06,-0.14c0.01622,-0.06724 0.04324,-0.13141 0.08,-0.19c0.04237,-0.06892 0.09653,-0.12984 0.16,-0.18c0.03,-0.03 0.09,-0.09 0.09,-0.09v0v0l1.93,-1.41l-0.33,-1.49c-1.80829,-0.8596 -2.70247,-2.92378 -2.09266,-4.83086c0.6098,-1.90708 2.53571,-3.06952 4.50726,-2.72049c1.97155,0.34903 3.38133,2.102 3.29935,4.10252c-0.08198,2.00053 -1.63045,3.63227 -3.62395,3.81883l0.23,1c0.11501,0.18876 0.16424,0.4103 0.14,0.63l0.35,1.54l2.19,0.46c0.45556,0.14424 0.74542,0.59063 0.69185,1.06546c-0.05357,0.47484 -0.4356,0.84542 -0.91185,0.88454h-0.2l-1.31,-0.28l0.41,1.88l2,-1h0.11c0.0666,-0.03042 0.13739,-0.05064 0.21,-0.06h0.17c0.04,0 0.12,0 0.12,0l4,0.72l0.77,-1.25c0.28509,-0.4713 0.89763,-0.62332 1.37,-0.34c0.22913,0.13698 0.39397,0.35989 0.45783,0.61909c0.06386,0.2592 0.02143,0.53317 -0.11783,0.76091l-1.1,1.75c-0.02094,0.03495 -0.04433,0.06837 -0.07,0.1c-0.04816,0.07345 -0.10527,0.14063 -0.17,0.2v0c-0.18114,0.15491 -0.41166,0.24002 -0.65,0.24c-0.12297,-0.00393 -0.24452,-0.02756 -0.36,-0.07l-2.57,-0.46l2.72,1.47l1.11,-0.95z"/><path d="M247.7,181.53c0.41974,-0.35899 1.05101,-0.30974 1.41,0.11c0.35899,0.41974 0.30974,1.05101 -0.11,1.41l-1.64,1.3l-0.06,0.05v0v0c-0.06849,0.05643 -0.14633,0.10043 -0.23,0.13h-0.11v0c-0.08974,0.00967 -0.18026,0.00967 -0.27,0c-0.06299,0.00931 -0.12701,0.00931 -0.19,0v0c-0.11405,-0.02753 -0.22237,-0.07492 -0.32,-0.14l-3.89,-2.11l-3.24,-0.11v0c-0.47666,0.01165 -0.89525,-0.31485 -1,-0.78l-0.88,-4l-2.4,-0.51c-0.04839,-0.01572 -0.09525,-0.0358 -0.14,-0.06c-0.05163,-0.01566 -0.10181,-0.03573 -0.15,-0.06c-0.09428,-0.05583 -0.17873,-0.12678 -0.25,-0.21c-0.06,-0.06 -0.06,-0.06 -0.06,-0.06v0c-0.04326,-0.06482 -0.07694,-0.13555 -0.1,-0.21c-0.02598,-0.0474 -0.04612,-0.09776 -0.06,-0.15c0,-0.05 0,-0.11 0,-0.16c-0.01026,-0.07297 -0.01026,-0.14703 0,-0.22v0c0.01572,-0.04839 0.0358,-0.09525 0.06,-0.14c0.01622,-0.06724 0.04324,-0.13141 0.08,-0.19c0.04237,-0.06892 0.09653,-0.12984 0.16,-0.18c0.03,-0.03 0.09,-0.09 0.09,-0.09v0v0l1.93,-1.41l-0.33,-1.49c-1.80829,-0.8596 -2.70247,-2.92378 -2.09266,-4.83086c0.6098,-1.90708 2.53571,-3.06952 4.50726,-2.72049c1.97155,0.34903 3.38133,2.102 3.29935,4.10252c-0.08198,2.00053 -1.63045,3.63227 -3.62395,3.81883l0.23,1c0.11501,0.18876 0.16424,0.4103 0.14,0.63l0.35,1.54l2.19,0.46c0.45556,0.14424 0.74542,0.59063 0.69185,1.06546c-0.05357,0.47484 -0.4356,0.84542 -0.91185,0.88454h-0.2l-1.31,-0.28l0.41,1.88l2,-1h0.11c0.0666,-0.03042 0.13739,-0.05064 0.21,-0.06h0.17c0.04,0 0.12,0 0.12,0l4,0.72l0.77,-1.25c0.28509,-0.4713 0.89763,-0.62332 1.37,-0.34c0.22913,0.13698 0.39397,0.35989 0.45783,0.61909c0.06386,0.2592 0.02143,0.53317 -0.11783,0.76091l-1.1,1.75c-0.02094,0.03495 -0.04433,0.06837 -0.07,0.1c-0.04816,0.07345 -0.10527,0.14063 -0.17,0.2v0c-0.18114,0.15491 -0.41166,0.24002 -0.65,0.24c-0.12297,-0.00393 -0.24452,-0.02756 -0.36,-0.07l-2.57,-0.46l2.72,1.47l1.11,-0.95z"/></g></g></svg>