<svg version="1.1" xmlns="http://www.w3.org/2000/svg" xmlns:xlink="http://www.w3.org/1999/xlink" width="16.66786" height="27.3586" viewBox="0,0,16.66786,27.3586"><g transform="translate(-230.70342,-156.38508)"><g data-paper-data="{&quot;isPaintingLayer&quot;:true}" fill="none" fill-rule="nonzero" stroke="none" stroke-width="1" stroke-linecap="butt" stroke-linejoin="miter" stroke-miterlimit="10" stroke-dasharray="" stroke-dashoffset="0" font-family="none" font-weight="none" font-size="none" text-anchor="none" style="mix-blend-mode: normal"><path d="M247.31859,169.11235c0.08921,0.26384 0.06435,0.55292 -0.06859,0.79765c-0.16945,0.33628 -0.51344,0.54886 -0.89,0.55c-0.15574,0.00217 -0.30983,-0.03208 -0.45,-0.1l-5.91,-3v5l4.12,1.75h0.06c0.06069,0.03398 0.11766,0.0742 0.17,0.12l0.14,0.12c0.0391,0.0495 0.07264,0.10316 0.1,0.16c0.03073,0.05466 0.05747,0.11148 0.08,0.17c0.00466,0.05991 0.00466,0.12009 0,0.18c0.00497,0.06991 0.00497,0.14009 0,0.21c0,0.02 0,0.07 0,0.07l-0.41,2.68l0.41,-0.17c0.51639,-0.20158 1.09842,0.05361 1.3,0.57c0.20158,0.51639 -0.05361,1.09842 -0.57,1.3l-1.9,0.74c-0.15045,0.09339 -0.32299,0.14515 -0.5,0.15h-0.17c-0.48508,-0.08363 -0.83716,-0.50782 -0.83,-1c-0.00507,-0.03649 -0.00507,-0.07351 0,-0.11c0,-0.06 0,-0.06 0,-0.06l0.52,-3.65l-3,-1.26l-1.52,3.51l-0.28,4.28c-0.04353,0.45024 -0.38388,0.8152 -0.83,0.89l-1.9,0.66c-0.10584,0.03844 -0.21741,0.05872 -0.33,0.06c-0.55228,0.09113 -1.07387,-0.28272 -1.165,-0.835c-0.09113,-0.55228 0.28272,-1.07387 0.835,-1.165l1.45,-0.5l0.29,-3.77c0.00588,-0.06249 0.02281,-0.12343 0.05,-0.18c-0.0047,-0.04989 -0.0047,-0.10011 0,-0.15v0v0l1.88,-4.32v-5.43l-5.85,2.97c-0.14017,0.06792 -0.29426,0.10217 -0.45,0.1c-0.37656,-0.00114 -0.72055,-0.21372 -0.89,-0.55c-0.24692,-0.49165 -0.05031,-1.09042 0.44,-1.34l6.75,-3.38v-0.8c-1.98435,-0.50429 -3.28272,-2.40722 -3.02861,-4.43882c0.25411,-2.0316 1.98118,-3.5561 4.02861,-3.5561c2.04743,0 3.7745,1.5245 4.02861,3.5561c0.25411,2.0316 -1.04425,3.93452 -3.02861,4.43882v0.73l6.78,3.41c0.25418,0.11383 0.44938,0.32851 0.53859,0.59235z" fill="#ffee00"/><path d="M247.31859,169.11235c0.08921,0.26384 0.06435,0.55292 -0.06859,0.79765c-0.16945,0.33628 -0.51344,0.54886 -0.89,0.55c-0.15574,0.00217 -0.30983,-0.03208 -0.45,-0.1l-5.91,-3v5l4.12,1.75h0.06c0.06069,0.03398 0.11766,0.0742 0.17,0.12l0.14,0.12c0.0391,0.0495 0.07264,0.10316 0.1,0.16c0.03073,0.05466 0.05747,0.11148 0.08,0.17c0.00466,0.05991 0.00466,0.12009 0,0.18c0.00497,0.06991 0.00497,0.14009 0,0.21c0,0.02 0,0.07 0,0.07l-0.41,2.68l0.41,-0.17c0.51639,-0.20158 1.09842,0.05361 1.3,0.57c0.20158,0.51639 -0.05361,1.09842 -0.57,1.3l-1.9,0.74c-0.15045,0.09339 -0.32299,0.14515 -0.5,0.15h-0.17c-0.48508,-0.08363 -0.83716,-0.50782 -0.83,-1c-0.00507,-0.03649 -0.00507,-0.07351 0,-0.11c0,-0.06 0,-0.06 0,-0.06l0.52,-3.65l-3,-1.26l-1.52,3.51l-0.28,4.28c-0.04353,0.45024 -0.38388,0.8152 -0.83,0.89l-1.9,0.66c-0.10584,0.03844 -0.21741,0.05872 -0.33,0.06c-0.55228,0.09113 -1.07387,-0.28272 -1.165,-0.835c-0.09113,-0.55228 0.28272,-1.07387 0.835,-1.165l1.45,-0.5l0.29,-3.77c0.00588,-0.06249 0.02281,-0.12343 0.05,-0.18c-0.0047,-0.04989 -0.0047,-0.10011 0,-0.15v0v0l1.88,-4.32v-5.43l-5.85,2.97c-0.14017,0.06792 -0.29426,0.10217 -0.45,0.1c-0.37656,-0.00114 -0.72055,-0.21372 -0.89,-0.55c-0.24692,-0.49165 -0.05031,-1.09042 0.44,-1.34l6.75,-3.38v-0.8c-1.98435,-0.50429 -3.28272,-2.40722 -3.02861,-4.43882c0.25411,-2.0316 1.98118,-3.5561 4.02861,-3.5561c2.04743,0 3.7745,1.5245 4.02861,3.5561c0.25411,2.0316 -1.04425,3.93452 -3.02861,4.43882v0.73l6.78,3.41c0.25418,0.11383 0.44938,0.32851 0.53859,0.59235z" fill="#ff9400"/></g></g></svg>