<svg version="1.1" xmlns="http://www.w3.org/2000/svg" xmlns:xlink="http://www.w3.org/1999/xlink" width="701" height="527" viewBox="0,0,701,527"><g transform="translate(112.69662,85.44743)"><g data-paper-data="{&quot;isPaintingLayer&quot;:true}" fill-rule="nonzero" stroke-linecap="butt" stroke-linejoin="miter" stroke-miterlimit="10" stroke-dasharray="" stroke-dashoffset="0" style="mix-blend-mode: normal"><path d="M59.58017,199.05253c0,4.97056 -4.02944,9 -9,9c-4.97056,0 -9,-4.02944 -9,-9c0,-4.97056 4.02944,-9 9,-9c4.97056,0 9,4.02944 9,9z" data-paper-data="{&quot;index&quot;:null}" fill="#ffffff" stroke="none" stroke-width="0"/><path d="M24.30341,205.4384v158.16667h-35v-158.16667z" data-paper-data="{&quot;index&quot;:null}" fill="#789aab" stroke="#000000" stroke-width="4"/><path d="M24.30341,205.4384v158.16667h-35v-158.16667z" data-paper-data="{&quot;index&quot;:null}" fill="#789aab" stroke="#000000" stroke-width="4"/><path d="M24.30341,202.10505v168.5h-35v-168.5z" data-paper-data="{&quot;index&quot;:null}" fill="#789aab" stroke="none" stroke-width="0"/><path d="M24.30341,202.10505v168.5h-35v-168.5z" data-paper-data="{&quot;index&quot;:null}" fill="#789aab" stroke="none" stroke-width="0"/><path d="M24.30341,209.4384v26h-35v-26z" data-paper-data="{&quot;index&quot;:null}" fill="#58717e" stroke="none" stroke-width="0"/><path d="M24.30341,209.4384v26h-35v-26z" data-paper-data="{&quot;index&quot;:null}" fill="#58717e" stroke="none" stroke-width="0"/><path d="M59.55339,183.6884v7.36418c0,0 -12.5,5.48728 -12.5,8c0,2.72072 12.5,7.75 12.5,7.75v6.88582l-100.25,0.25v-30z" data-paper-data="{&quot;index&quot;:null}" fill="#2d81ab" stroke="#000000" stroke-width="2"/><path d="M15.71351,254.05255c0,4.97056 -4.02944,9 -9,9c-4.97056,0 -9,-4.02944 -9,-9c0,-4.97056 4.02944,-9 9,-9c4.97056,0 9,4.02944 9,9z" data-paper-data="{&quot;index&quot;:null}" fill="#2d81ab" stroke="#000000" stroke-width="2"/><path d="M15.71352,278.05253c0,4.97056 -4.02944,9 -9,9c-4.97056,0 -9,-4.02944 -9,-9c0,-4.97056 4.02944,-9 9,-9c4.97056,0 9,4.02944 9,9z" data-paper-data="{&quot;index&quot;:null}" fill="#2d81ab" stroke="#000000" stroke-width="2"/><path d="M15.71352,278.05253c0,4.97056 -4.02944,9 -9,9c-4.97056,0 -9,-4.02944 -9,-9c0,-4.97056 4.02944,-9 9,-9c4.97056,0 9,4.02944 9,9z" data-paper-data="{&quot;index&quot;:null}" fill="#2d81ab" stroke="#000000" stroke-width="2"/><path d="M-112.69662,441.55256v-527h701v527z" fill="none" stroke="none" stroke-width="0"/><path d="M12.63674,319.43836l-11,27.33333h-12.33333v-27.33333z" data-paper-data="{&quot;index&quot;:null}" fill="#58717e" stroke="none" stroke-width="0"/><path d="M12.30339,294.93836v30h-65v-30z" data-paper-data="{&quot;index&quot;:null}" fill="#2d81ab" stroke="#000000" stroke-width="2"/></g></g></svg>