<svg version="1.1" xmlns="http://www.w3.org/2000/svg" xmlns:xlink="http://www.w3.org/1999/xlink" width="701" height="527" viewBox="0,0,701,527"><g transform="translate(112.69662,85.44745)"><g data-paper-data="{&quot;isPaintingLayer&quot;:true}" fill-rule="nonzero" stroke-linecap="butt" stroke-linejoin="miter" stroke-miterlimit="10" stroke-dasharray="" stroke-dashoffset="0" style="mix-blend-mode: normal"><path d="M221.6601,169.11825l-76.2096,252.2126l-33.50389,-10.12367l76.2096,-252.2126z" data-paper-data="{&quot;index&quot;:null}" fill="#789aab" stroke="#000000" stroke-width="4"/><path d="M221.17419,170.72636l-75.27685,249.12565l-33.50389,-10.12367l75.27684,-249.12565z" data-paper-data="{&quot;index&quot;:null}" fill="#789aab" stroke="none" stroke-width="0"/><path d="M219.05303,177.74615l-4.27044,15.13861l-36.7539,-0.37367l7.52044,-24.88861z" data-paper-data="{&quot;index&quot;:null}" fill="#58717e" stroke="none" stroke-width="0"/><path d="M185.77736,258.17337c-1.43773,4.75809 -6.46043,7.44978 -11.21852,6.01206c-4.75809,-1.43773 -7.44978,-6.46043 -6.01206,-11.21852c1.43773,-4.75809 6.46043,-7.44978 11.21852,-6.01206c4.75809,1.43773 7.44978,6.46043 6.01206,11.21852z" data-paper-data="{&quot;index&quot;:null}" fill="#2d81ab" stroke="#000000" stroke-width="2"/><path d="M195.32254,226.58399c-1.43773,4.75809 -6.46043,7.44978 -11.21852,6.01206c-4.75809,-1.43773 -7.44978,-6.46043 -6.01206,-11.21852c1.43773,-4.75809 6.46042,-7.44978 11.21851,-6.01206c4.75809,1.43773 7.44978,6.46043 6.01206,11.21852z" data-paper-data="{&quot;index&quot;:null}" fill="#2d81ab" stroke="#000000" stroke-width="2"/><path d="M92.18865,378.23449v-298h111l54,62v33.99989l-105,0.00011l-0.84831,202z" fill="#2d81ab" stroke="#000000" stroke-width="2"/><path d="M-112.69662,441.55256v-527h701v527z" fill="none" stroke="none" stroke-width="0"/><path d="M148.71349,79.60505c0,0 0,23.35479 0,35.22152c0,7.3276 -11.44475,17.77848 -18.84181,17.77848c-10.59542,0 -38.65819,0 -38.65819,0v-53z" data-paper-data="{&quot;index&quot;:null}" fill="#789aab" stroke="#000000" stroke-width="2"/><path d="M106.21349,106.10501c0,-8.28427 6.71573,-15 15,-15c8.28427,0 15,6.71573 15,15c0,8.28427 -6.71573,15 -15,15c-8.28427,0 -15,-6.71573 -15,-15z" data-paper-data="{&quot;index&quot;:null}" fill="#2d81ab" stroke="#000000" stroke-width="2"/><path d="M27.3034,280.69521v100.7541h-35v-100.7541z" data-paper-data="{&quot;index&quot;:null}" fill="#789aab" stroke="#000000" stroke-width="4"/><path d="M27.3034,276.10501v126h-35v-126z" data-paper-data="{&quot;index&quot;:null}" fill="#789aab" stroke="none" stroke-width="0"/><path d="M28.3034,56.11229v87.95993h-35v-87.95993z" data-paper-data="{&quot;index&quot;:null}" fill="#789aab" stroke="#000000" stroke-width="4"/><path d="M28.3034,52.10499v110h-35v-110z" data-paper-data="{&quot;index&quot;:null}" fill="#789aab" stroke="none" stroke-width="0"/><path d="M27.3034,283.43836v26h-35v-26z" data-paper-data="{&quot;index&quot;:null}" fill="#58717e" stroke="none" stroke-width="0"/><path d="M28.3034,59.43836v26h-35v-26z" data-paper-data="{&quot;index&quot;:null}" fill="#58717e" stroke="none" stroke-width="0"/><path d="M43.30339,264.93836v30h-55v-30z" data-paper-data="{&quot;index&quot;:null}" fill="#2d81ab" stroke="#000000" stroke-width="2"/><path d="M32.30339,40.93833v30h-43v-30z" data-paper-data="{&quot;index&quot;:null}" fill="#2d81ab" stroke="#000000" stroke-width="2"/><path d="M32.30339,140.93836v30h-57v-30z" data-paper-data="{&quot;index&quot;:null}" fill="#2d81ab" stroke="#000000" stroke-width="2"/><path d="M18.7135,324.0526c0,4.97056 -4.02944,9 -9,9c-4.97056,0 -9,-4.02944 -9,-9c0,-4.97056 4.02944,-9 9,-9c4.97056,0 9,4.02944 9,9z" data-paper-data="{&quot;index&quot;:null}" fill="#2d81ab" stroke="#000000" stroke-width="2"/><path d="M19.7135,100.0526c0,4.97056 -4.02944,9 -9,9c-4.97056,0 -9,-4.02944 -9,-9c0,-4.97056 4.02944,-9 9,-9c4.97056,0 9,4.02944 9,9z" data-paper-data="{&quot;index&quot;:null}" fill="#2d81ab" stroke="#000000" stroke-width="2"/><path d="M432.4866,366.92486v-370.36486h35v370.36487z" data-paper-data="{&quot;index&quot;:null}" fill="#789aab" stroke="#004e6a" stroke-width="9"/><path d="M432.81993,366.92486v-373.69819h35v373.6982z" data-paper-data="{&quot;index&quot;:null}" fill="#789aab" stroke="#000000" stroke-width="4"/><path d="M432.81994,369.92486v-379.19819h35v379.1982z" data-paper-data="{&quot;index&quot;:null}" fill="#789aab" stroke="#000000" stroke-width="0"/><path d="M432.81993,369.92486v-379.19819h10v379.1982z" data-paper-data="{&quot;index&quot;:null}" fill="#617c8a" stroke="none" stroke-width="0"/><path d="M428.98658,87.14106v-30h43v30z" data-paper-data="{&quot;index&quot;:null}" fill="#2d81ab" stroke="#000000" stroke-width="2"/><path d="M428.98658,148.14107v-30h43v30z" data-paper-data="{&quot;index&quot;:null}" fill="#2d81ab" stroke="#000000" stroke-width="2"/><path d="M428.98658,257.14106v-30h43v30z" data-paper-data="{&quot;index&quot;:null}" fill="#2d81ab" stroke="#000000" stroke-width="2"/><path d="M428.98658,315.14106v-30h43v30z" data-paper-data="{&quot;index&quot;:null}" fill="#2d81ab" stroke="#000000" stroke-width="2"/><path d="M450.37234,221.05118c-4.97056,0 -9,-4.02944 -9,-9c0,-4.97056 4.02944,-9 9,-9c4.97056,0 9,4.02944 9,9c0,4.97056 -4.02944,9 -9,9z" data-paper-data="{&quot;index&quot;:null}" fill="#ffef42" stroke="#000000" stroke-width="2"/></g></g></svg>