<svg version="1.1" xmlns="http://www.w3.org/2000/svg" xmlns:xlink="http://www.w3.org/1999/xlink" width="179.24283" height="179.42867" viewBox="0,0,179.24283,179.42867"><g transform="translate(-150.37883,-90.37837)"><g data-paper-data="{&quot;isPaintingLayer&quot;:true}" fill-rule="nonzero" stroke-width="2" stroke-linecap="butt" stroke-linejoin="miter" stroke-miterlimit="10" stroke-dasharray="" stroke-dashoffset="0" style="mix-blend-mode: normal"><path d="M209.09246,268.24278c-26.77365,-9.47979 -47.84029,-30.53451 -57.33524,-57.30278c23.68463,-1.86335 41.49355,-15.25737 41.49355,-31.26787c0,-16.0105 -17.71153,-29.28116 -41.29228,-31.22892c9.46682,-26.30693 30.17781,-47.01791 56.48473,-56.48473c1.94776,23.58075 15.30282,41.29228 31.22892,41.29228c15.9261,0 29.40453,-17.80892 31.26787,-41.49355c26.53764,9.42315 47.47435,30.21462 57.08203,56.68599c-23.56127,1.94776 -41.2793,15.31581 -41.2793,31.24189c0,15.9261 17.81541,29.40453 41.50004,31.26787c-9.42273,26.53338 -30.20808,47.46874 -56.67302,57.08203c-1.94776,-23.56127 -15.31581,-41.2793 -31.24839,-41.2793c-15.93258,0 -29.39803,17.77646 -31.22892,41.48705z" fill="#ffffff" stroke="#000000"/><path d="M207.04482,180c0,-18.20066 14.75452,-32.95518 32.95518,-32.95518c18.20067,0 32.95518,14.75451 32.95518,32.95518c0,18.20066 -14.75451,32.95518 -32.95518,32.95518c-18.20067,0 -32.95518,-14.75452 -32.95518,-32.95518z" fill="#91b6c9" stroke="#91b6c9"/><path d="M230.04482,180c0,-5.4981 4.45708,-9.95518 9.95518,-9.95518c5.4981,0 9.95518,4.45708 9.95518,9.95518c0,5.4981 -4.45708,9.95518 -9.95518,9.95518c-5.4981,0 -9.95518,-4.45708 -9.95518,-9.95518z" fill="#000000" stroke="#000000"/></g></g></svg>