<svg version="1.1" xmlns="http://www.w3.org/2000/svg" xmlns:xlink="http://www.w3.org/1999/xlink" width="49.9729" height="50.80632" viewBox="0,0,49.9729,50.80632"><g transform="translate(-215.23,-154.97328)"><g data-paper-data="{&quot;isPaintingLayer&quot;:true}" fill-rule="nonzero" stroke-miterlimit="10" stroke-dasharray="" stroke-dashoffset="0" style="mix-blend-mode: normal"><g data-paper-data="{&quot;index&quot;:null}" id="hair" fill="#000000" stroke="none" stroke-width="1" stroke-linecap="butt" stroke-linejoin="miter" font-family="&quot;Helvetica Neue&quot;, Helvetica, Arial, sans-serif" font-weight="400" font-size="16" text-anchor="start"/><path d="M241.088,204.68504l-2.922,-0.645l-15.166,-17.333l-7.333,-13.059l1.999,-11.274l12.938,-7.07l9.625,0.041l14.042,-0.208l2.395,1.57l0.75,3.833l-0.75,1.584l3.584,0.083l1.333,1.667l0.833,2.333l-1.583,3l1.583,0.667l1.917,2.666l-0.917,2.75l-2.5,1.167l1.167,2.167l0.167,3.416l-2.584,1.5l-13.166,0.5l-0.834,0.667l-0.854,0.597h-9.125l0.063,1.736l3.916,9.584l1.667,4.583z" data-paper-data="{&quot;index&quot;:null}" fill="#fcea2b" stroke="none" stroke-width="1" stroke-linecap="butt" stroke-linejoin="miter"/><g data-paper-data="{&quot;index&quot;:null}" id="line" fill="none" stroke="#000000" stroke-width="2"><path d="M221.236,184.31604c-3.2007,-3.5759 -4.9796,-8.2009 -5,-13c0,-8.319 5.679,-15 14,-15h9" stroke-linecap="round" stroke-linejoin="round"/><path d="M238.625,184.31604h-4.389l7,18c0.811,2.084 -2.79,3.8 -5,1l-15,-19" stroke-linecap="round" stroke-linejoin="round"/><path d="M241.448,180.81604c0.1527,-2.0638 1.9342,-3.6226 4,-3.5h13c1.933,-0.2578 3.709,1.1001 3.9669,3.0331c0.2579,1.933 -1.1001,3.709 -3.0331,3.9669c-0.3099,0.0413 -0.6238,0.0413 -0.9337,0h-13c-2.0659,0.1226 -3.8474,-1.4362 -4.0001,-3.5z" stroke-linecap="round" stroke-linejoin="round"/><path d="M242.305,159.48004c0.1527,-2.0638 1.9342,-3.6226 4,-3.5h7c1.933,-0.2578 3.709,1.1001 3.9669,3.0331c0.2579,1.933 -1.1001,3.709 -3.0331,3.9669c-0.3099,0.0413 -0.6238,0.0413 -0.9337,0h-7c-2.0659,0.1226 -3.8474,-1.4362 -4.0001,-3.5z" stroke-linecap="round" stroke-linejoin="round"/><path d="M237.236,173.48004c0.1527,-2.0638 1.9342,-3.6226 4,-3.5h19c1.933,-0.2578 3.709,1.1001 3.9669,3.0331c0.2579,1.933 -1.1001,3.709 -3.0331,3.9669c-0.3099,0.0413 -0.6238,0.0413 -0.9337,0h-19c-2.0659,0.1226 -3.8474,-1.4362 -4.0001,-3.5z" stroke-linecap="round" stroke-linejoin="round"/><path d="M239.236,166.48004c0.1527,-2.0638 1.9342,-3.6226 4,-3.5h15c1.933,-0.2578 3.709,1.1001 3.9669,3.0331c0.2579,1.933 -1.1001,3.709 -3.0331,3.9669c-0.3099,0.0413 -0.6238,0.0413 -0.9337,0h-15c-2.0659,0.1226 -3.8474,-1.4362 -4.0001,-3.5z" stroke-linecap="round" stroke-linejoin="round"/><path d="M218.136,179.65404c-1.176,-2.4511 -1.8253,-5.1215 -1.906,-7.839c0,-8.56 4.625,-15.5 15.125,-15.5" stroke-linecap="butt" stroke-linejoin="miter"/></g></g></g></svg>