<svg version="1.1" xmlns="http://www.w3.org/2000/svg" xmlns:xlink="http://www.w3.org/1999/xlink" width="310.76" height="322.76" viewBox="0,0,310.76,322.76"><g transform="translate(-74.12,-19.12)"><g data-paper-data="{&quot;isPaintingLayer&quot;:true}" fill="#ffffff" fill-rule="nonzero" stroke-linecap="butt" stroke-linejoin="miter" stroke-miterlimit="10" stroke-dasharray="" stroke-dashoffset="0" style="mix-blend-mode: normal"><path d="M352.12,339.88v-32h-32v-32h-32v-32h-32v-32h-32v-32h-32v-32h-32v-32h-32v-32h-32v-63.76h31.76v32h32v32h32v32h32v32h32v32h32v32h32v32h32v32h32v63.76z" stroke="#000000" stroke-width="2"/><path d="M330.12,341.88v-32h-32v-32h-32v-32h-32v-32h-32v-32h-32v-32h-32v-32h-32v-32h-32v-63.76h31.76v32h32v32h32v32h32v32h32v32h32v32h32v32h32v32h32v63.76z" stroke="none" stroke-width="0"/></g></g></svg>