<svg version="1.1" xmlns="http://www.w3.org/2000/svg" xmlns:xlink="http://www.w3.org/1999/xlink" width="15.37066" height="28.07229" viewBox="0,0,15.37066,28.07229"><g transform="translate(-230.95342,-159.07271)"><g data-paper-data="{&quot;isPaintingLayer&quot;:true}" fill="#ff9400" fill-rule="nonzero" stroke="none" stroke-width="1" stroke-linecap="butt" stroke-linejoin="miter" stroke-miterlimit="10" stroke-dasharray="" stroke-dashoffset="0" style="mix-blend-mode: normal"><path d="M245.93,176.375c0.20457,0.18629 0.32281,0.44901 0.3266,0.72566c0.00379,0.27665 -0.10721,0.54251 -0.3066,0.73434l-1.26,1.56c-0.17324,0.32535 -0.51141,0.52902 -0.88,0.53h-0.05c-0.33547,-0.02463 -0.63608,-0.21627 -0.8,-0.51c-0.0033,-0.02991 -0.0033,-0.06009 0,-0.09c-0.02707,-0.05307 -0.04403,-0.11072 -0.05,-0.17c-0.01455,-0.08606 -0.01455,-0.17394 0,-0.26v0l0.17,-3.18l-3,0.6l-0.71,4.16l-0.49,4.42c-0.04022,0.29854 -0.21288,0.56304 -0.47,0.72l-1.56,1.3c-0.17991,0.14908 -0.40635,0.23046 -0.64,0.23c-0.29743,0.00048 -0.57964,-0.13146 -0.77,-0.36c-0.17006,-0.20408 -0.25193,-0.46744 -0.22754,-0.73197c0.02439,-0.26453 0.15303,-0.50848 0.35754,-0.67803l1.41,-1.18l0.44,-4v-0.06l0.83,-4.83v-5.55l-5.85,2.91c-0.14017,0.06792 -0.29426,0.10217 -0.45,0.1c-0.37656,-0.00114 -0.72055,-0.21372 -0.89,-0.55c-0.24692,-0.49165 -0.05031,-1.09042 0.44,-1.34l6.75,-3.38v-0.43c-1.9987,0.12924 -3.78489,-1.2397 -4.17964,-3.20329c-0.39475,-1.96359 0.72363,-3.91645 2.61699,-4.56966c1.89337,-0.65321 3.97798,0.19461 4.87797,1.9839c0.89999,1.78928 0.33788,3.96838 -1.31533,5.09906v0.24l2.34,-1.02l1.8,-2.92c0.14185,-0.37107 0.48988,-0.62299 0.88669,-0.64181c0.39681,-0.01883 0.76713,0.19901 0.94347,0.55498c0.17634,0.35597 0.12525,0.78257 -0.13016,1.08683l-1.95,3.18l-0.1,0.11v0.06c-0.08413,0.07869 -0.17828,0.14593 -0.28,0.2v0l-3.51,1.58v5.42l3.77,-0.7c0.04319,-0.00505 0.08681,-0.00505 0.13,0h0.12h0.07h0.21l0.16,0.07c0.05396,0.03093 0.10428,0.06783 0.15,0.11l0.14,0.14c0.03364,0.04772 0.06372,0.09786 0.09,0.15c0.03094,0.06488 0.05767,0.13168 0.08,0.2v0.06c0.00505,0.04319 0.00505,0.08681 0,0.13c0,0.04 0,0.12 0,0.12l-0.09,1.73c0.28994,-0.08402 0.60232,-0.03257 0.85,0.14z"/><path d="M245.93,176.375c0.20457,0.18629 0.32281,0.44901 0.3266,0.72566c0.00379,0.27665 -0.10721,0.54251 -0.3066,0.73434l-1.26,1.56c-0.17324,0.32535 -0.51141,0.52902 -0.88,0.53h-0.05c-0.33547,-0.02463 -0.63608,-0.21627 -0.8,-0.51c-0.0033,-0.02991 -0.0033,-0.06009 0,-0.09c-0.02707,-0.05307 -0.04403,-0.11072 -0.05,-0.17c-0.01455,-0.08606 -0.01455,-0.17394 0,-0.26v0l0.17,-3.18l-3,0.6l-0.71,4.16l-0.49,4.42c-0.04022,0.29854 -0.21288,0.56304 -0.47,0.72l-1.56,1.3c-0.17991,0.14908 -0.40635,0.23046 -0.64,0.23c-0.29743,0.00048 -0.57964,-0.13146 -0.77,-0.36c-0.17006,-0.20408 -0.25193,-0.46744 -0.22754,-0.73197c0.02439,-0.26453 0.15303,-0.50848 0.35754,-0.67803l1.41,-1.18l0.44,-4v-0.06l0.83,-4.83v-5.55l-5.85,2.91c-0.14017,0.06792 -0.29426,0.10217 -0.45,0.1c-0.37656,-0.00114 -0.72055,-0.21372 -0.89,-0.55c-0.24692,-0.49165 -0.05031,-1.09042 0.44,-1.34l6.75,-3.38v-0.43c-1.9987,0.12924 -3.78489,-1.2397 -4.17964,-3.20329c-0.39475,-1.96359 0.72363,-3.91645 2.61699,-4.56966c1.89337,-0.65321 3.97798,0.19461 4.87797,1.9839c0.89999,1.78928 0.33788,3.96838 -1.31533,5.09906v0.24l2.34,-1.02l1.8,-2.92c0.14185,-0.37107 0.48988,-0.62299 0.88669,-0.64181c0.39681,-0.01883 0.76713,0.19901 0.94347,0.55498c0.17634,0.35597 0.12525,0.78257 -0.13016,1.08683l-1.95,3.18l-0.1,0.11v0.06c-0.08413,0.07869 -0.17828,0.14593 -0.28,0.2v0l-3.51,1.58v5.42l3.77,-0.7c0.04319,-0.00505 0.08681,-0.00505 0.13,0h0.12h0.07h0.21l0.16,0.07c0.05396,0.03093 0.10428,0.06783 0.15,0.11l0.14,0.14c0.03364,0.04772 0.06372,0.09786 0.09,0.15c0.03094,0.06488 0.05767,0.13168 0.08,0.2v0.06c0.00505,0.04319 0.00505,0.08681 0,0.13c0,0.04 0,0.12 0,0.12l-0.09,1.73c0.28994,-0.08402 0.60232,-0.03257 0.85,0.14z"/></g></g></svg>