<svg version="1.1" xmlns="http://www.w3.org/2000/svg" xmlns:xlink="http://www.w3.org/1999/xlink" width="20.98298" height="16.97724" viewBox="0,0,20.98298,16.97724"><g transform="translate(-229.29812,-155.98943)"><g data-paper-data="{&quot;isPaintingLayer&quot;:true}" fill="#ff9400" fill-rule="nonzero" stroke="none" stroke-width="1" stroke-linecap="butt" stroke-linejoin="miter" stroke-miterlimit="10" stroke-dasharray="" stroke-dashoffset="0" style="mix-blend-mode: normal"><path d="M248.68,170.03667c0.29611,-0.22271 0.69108,-0.26345 1.02641,-0.10587c0.33533,0.15759 0.55605,0.48766 0.57356,0.85776c0.01752,0.3701 -0.17103,0.71955 -0.48998,0.90811l-1.61,1.07c-0.17807,0.12753 -0.39099,0.19734 -0.61,0.2c-0.1882,-0.00239 -0.37191,-0.05785 -0.53,-0.16l-3.84,-1.63l-3.29,-0.08v0h-0.12h-3.46l-4,1.47c-0.04433,0.0226 -0.09138,0.03941 -0.14,0.05h-0.06c-0.08763,0.02947 -0.17813,0.04958 -0.27,0.06c-0.10613,0.01518 -0.21387,0.01518 -0.32,0c-0.11985,-0.03986 -0.2316,-0.10082 -0.33,-0.18l-1.53,-1.12c-0.4216,-0.33157 -0.50654,-0.93671 -0.1925,-1.37153c0.31404,-0.43482 0.91519,-0.54445 1.3625,-0.24847l1.15,0.83l3.9,-1.43c0.05318,-0.00563 0.10682,-0.00563 0.16,0c0.05653,-0.00561 0.11347,-0.00561 0.17,0h2.77v-3.67h-3.32c-0.08636,0.01037 -0.17364,0.01037 -0.26,0l-3.57,-1c-0.52918,-0.1504 -0.83749,-0.7 -0.69,-1.23c0.07011,-0.25604 0.23916,-0.4737 0.46988,-0.605c0.23072,-0.1313 0.50418,-0.16548 0.76012,-0.095l3.43,0.95h2.22c-1.60973,-0.87186 -2.42214,-2.72527 -1.97243,-4.49985c0.44971,-1.77458 2.04675,-3.01739 3.87743,-3.01739c1.83068,0 3.42772,1.24281 3.87743,3.01739c0.44971,1.77458 -0.3627,3.62799 -1.97243,4.49985h2.28l3.67,-0.84c0.52927,-0.12648 1.06253,0.19347 1.2,0.72c0.05985,0.2586 0.01443,0.53038 -0.12625,0.75547c-0.14068,0.22509 -0.36507,0.38501 -0.62375,0.44453l-3.78,0.86c-0.07301,0.00976 -0.14699,0.00976 -0.22,0v0h-3.25v3.69l2.53,0.15c0.06989,-0.00566 0.14011,-0.00566 0.21,0h0.16l3.69,1.56l1.19,-0.79z"/><path d="M248.68,170.03667c0.29611,-0.22271 0.69108,-0.26345 1.02641,-0.10587c0.33533,0.15759 0.55605,0.48766 0.57356,0.85776c0.01752,0.3701 -0.17103,0.71955 -0.48998,0.90811l-1.61,1.07c-0.17807,0.12753 -0.39099,0.19734 -0.61,0.2c-0.1882,-0.00239 -0.37191,-0.05785 -0.53,-0.16l-3.84,-1.63l-3.29,-0.08v0h-0.12h-3.46l-4,1.47c-0.04433,0.0226 -0.09138,0.03941 -0.14,0.05h-0.06c-0.08763,0.02947 -0.17813,0.04958 -0.27,0.06c-0.10613,0.01518 -0.21387,0.01518 -0.32,0c-0.11985,-0.03986 -0.2316,-0.10082 -0.33,-0.18l-1.53,-1.12c-0.4216,-0.33157 -0.50654,-0.93671 -0.1925,-1.37153c0.31404,-0.43482 0.91519,-0.54445 1.3625,-0.24847l1.15,0.83l3.9,-1.43c0.05318,-0.00563 0.10682,-0.00563 0.16,0c0.05653,-0.00561 0.11347,-0.00561 0.17,0h2.77v-3.67h-3.32c-0.08636,0.01037 -0.17364,0.01037 -0.26,0l-3.57,-1c-0.52918,-0.1504 -0.83749,-0.7 -0.69,-1.23c0.07011,-0.25604 0.23916,-0.4737 0.46988,-0.605c0.23072,-0.1313 0.50418,-0.16548 0.76012,-0.095l3.43,0.95h2.22c-1.60973,-0.87186 -2.42214,-2.72527 -1.97243,-4.49985c0.44971,-1.77458 2.04675,-3.01739 3.87743,-3.01739c1.83068,0 3.42772,1.24281 3.87743,3.01739c0.44971,1.77458 -0.3627,3.62799 -1.97243,4.49985h2.28l3.67,-0.84c0.52927,-0.12648 1.06253,0.19347 1.2,0.72c0.05985,0.2586 0.01443,0.53038 -0.12625,0.75547c-0.14068,0.22509 -0.36507,0.38501 -0.62375,0.44453l-3.78,0.86c-0.07301,0.00976 -0.14699,0.00976 -0.22,0v0h-3.25v3.69l2.53,0.15c0.06989,-0.00566 0.14011,-0.00566 0.21,0h0.16l3.69,1.56l1.19,-0.79z"/></g></g></svg>