<svg version="1.1" xmlns="http://www.w3.org/2000/svg" xmlns:xlink="http://www.w3.org/1999/xlink" width="768" height="672"><g transform="translate(5,307)"><g data-paper-data="{&quot;isPaintingLayer&quot;:true}" fill="#ffffff" fill-rule="nonzero" stroke="none" stroke-width="1" stroke-linecap="butt" stroke-linejoin="miter" stroke-miterlimit="10" stroke-dasharray="" stroke-dashoffset="0" font-family="none" font-weight="none" font-size="none" text-anchor="none" style="mix-blend-mode: normal"><path d="M91,-227.93v-62.14c0,-9.35018 -7.57982,-16.93 -16.93,-16.93h-62.14c-9.35018,0 -16.93,7.57982 -16.93,16.93v62.14c0,9.35018 7.57982,16.93 16.93,16.93h62.14c9.35018,0 16.93,-7.57982 16.93,-16.93zM266.07,-211h-62.14c-9.35018,0 -16.93,-7.57982 -16.93,-16.93v-62.14c0,-9.35018 7.57982,-16.93 16.93,-16.93h62.14c9.35018,0 16.93,7.57982 16.93,16.93v62.14c0,9.35018 -7.57982,16.93 -16.93,16.93zM458.07,-211h-62.14c-9.35018,0 -16.93,-7.57982 -16.93,-16.93v-62.14c0,-9.35018 7.57982,-16.93 16.93,-16.93h62.14c9.35018,0 16.93,7.57982 16.93,16.93v62.14c0,9.35018 -7.57982,16.93 -16.93,16.93zM650.07,-211h-62.14c-9.35018,0 -16.93,-7.57982 -16.93,-16.93v-62.14c0,-9.35018 7.57982,-16.93 16.93,-16.93h62.14c9.35018,0 16.93,7.57982 16.93,16.93v62.14c0,9.35018 -7.57982,16.93 -16.93,16.93zM170.07,-115h-62.14c-9.35018,0 -16.93,-7.57982 -16.93,-16.93v-62.14c0,-9.35018 7.57982,-16.93 16.93,-16.93h62.14c9.35018,0 16.93,7.57982 16.93,16.93v62.14c0,9.35018 -7.57982,16.93 -16.93,16.93zM362.07,-115h-62.14c-9.35018,0 -16.93,-7.57982 -16.93,-16.93v-62.14c0,-9.35018 7.57982,-16.93 16.93,-16.93h62.14c9.35018,0 16.93,7.57982 16.93,16.93v62.14c0,9.35018 -7.57982,16.93 -16.93,16.93zM554.07,-115h-62.14c-9.35018,0 -16.93,-7.57982 -16.93,-16.93v-62.14c0,-9.35018 7.57982,-16.93 16.93,-16.93h62.14c9.35018,0 16.93,7.57982 16.93,16.93v62.14c0,9.35018 -7.57982,16.93 -16.93,16.93zM74.07,-19h-62.14c-9.35018,0 -16.93,-7.57982 -16.93,-16.93v-62.14c0,-9.35018 7.57982,-16.93 16.93,-16.93h62.14c9.35018,0 16.93,7.57982 16.93,16.93v62.14c0,9.35018 -7.57982,16.93 -16.93,16.93zM266.07,-19h-62.14c-9.35018,0 -16.93,-7.57982 -16.93,-16.93v-62.14c0,-9.35018 7.57982,-16.93 16.93,-16.93h62.14c9.35018,0 16.93,7.57982 16.93,16.93v62.14c0,9.35018 -7.57982,16.93 -16.93,16.93zM458.07,-19h-62.14c-9.35018,0 -16.93,-7.57982 -16.93,-16.93v-62.14c0,-9.35018 7.57982,-16.93 16.93,-16.93h62.14c9.35018,0 16.93,7.57982 16.93,16.93v62.14c0,9.35018 -7.57982,16.93 -16.93,16.93zM650.07,-19h-62.14c-9.35018,0 -16.93,-7.57982 -16.93,-16.93v-62.14c0,-9.35018 7.57982,-16.93 16.93,-16.93h62.14c9.35018,0 16.93,7.57982 16.93,16.93v62.14c0,9.35018 -7.57982,16.93 -16.93,16.93zM170.07,77h-62.14c-9.35018,0 -16.93,-7.57982 -16.93,-16.93v-62.14c0,-9.35018 7.57982,-16.93 16.93,-16.93h62.14c9.35018,0 16.93,7.57982 16.93,16.93v62.14c0,9.35018 -7.57982,16.93 -16.93,16.93zM362.07,77h-62.14c-9.35018,0 -16.93,-7.57982 -16.93,-16.93v-62.14c0,-9.35018 7.57982,-16.93 16.93,-16.93h62.14c9.35018,0 16.93,7.57982 16.93,16.93v62.14c0,9.35018 -7.57982,16.93 -16.93,16.93zM554.07,77h-62.14c-9.35018,0 -16.93,-7.57982 -16.93,-16.93v-62.14c0,-9.35018 7.57982,-16.93 16.93,-16.93h62.14c9.35018,0 16.93,7.57982 16.93,16.93v62.14c0,9.35018 -7.57982,16.93 -16.93,16.93zM74.07,173h-62.14c-9.35018,0 -16.93,-7.57982 -16.93,-16.93v-62.14c0,-9.35018 7.57982,-16.93 16.93,-16.93h62.14c9.35018,0 16.93,7.57982 16.93,16.93v62.14c0,9.35018 -7.57982,16.93 -16.93,16.93zM266.07,173h-62.14c-9.35018,0 -16.93,-7.57982 -16.93,-16.93v-62.14c0,-9.35018 7.57982,-16.93 16.93,-16.93h62.14c9.35018,0 16.93,7.57982 16.93,16.93v62.14c0,9.35018 -7.57982,16.93 -16.93,16.93zM458.07,173h-62.14c-9.35018,0 -16.93,-7.57982 -16.93,-16.93v-62.14c0,-9.35018 7.57982,-16.93 16.93,-16.93h62.14c9.35018,0 16.93,7.57982 16.93,16.93v62.14c0,9.35018 -7.57982,16.93 -16.93,16.93zM650.07,173h-62.14c-9.35018,0 -16.93,-7.57982 -16.93,-16.93v-62.14c0,-9.35018 7.57982,-16.93 16.93,-16.93h62.14c9.35018,0 16.93,7.57982 16.93,16.93v62.14c0,9.35018 -7.57982,16.93 -16.93,16.93zM170.07,269h-62.14c-9.35018,0 -16.93,-7.57982 -16.93,-16.93v-62.14c0,-9.35018 7.57982,-16.93 16.93,-16.93h62.14c9.35018,0 16.93,7.57982 16.93,16.93v62.14c0,9.35018 -7.57982,16.93 -16.93,16.93zM362.07,269h-62.14c-9.35018,0 -16.93,-7.57982 -16.93,-16.93v-62.14c0,-9.35018 7.57982,-16.93 16.93,-16.93h62.14c9.35018,0 16.93,7.57982 16.93,16.93v62.14c0,9.35018 -7.57982,16.93 -16.93,16.93zM554.07,269h-62.14c-9.35018,0 -16.93,-7.57982 -16.93,-16.93v-62.14c0,-9.35018 7.57982,-16.93 16.93,-16.93h62.14c9.35018,0 16.93,7.57982 16.93,16.93v62.14c0,9.35018 -7.57982,16.93 -16.93,16.93zM746.07,-115h-62.14c-9.35018,0 -16.93,-7.57982 -16.93,-16.93v-62.14c0,-9.35018 7.57982,-16.93 16.93,-16.93h62.14c9.35018,0 16.93,7.57982 16.93,16.93v62.14c0,9.35018 -7.57982,16.93 -16.93,16.93zM746.07,77h-62.14c-9.35018,0 -16.93,-7.57982 -16.93,-16.93v-62.14c0,-9.35018 7.57982,-16.93 16.93,-16.93h62.14c9.35018,0 16.93,7.57982 16.93,16.93v62.14c0,9.35018 -7.57982,16.93 -16.93,16.93zM746.07,269h-62.14c-9.35018,0 -16.93,-7.57982 -16.93,-16.93v-62.14c0,-9.35018 7.57982,-16.93 16.93,-16.93h62.14c9.35018,0 16.93,7.57982 16.93,16.93v62.14c0,9.35018 -7.57982,16.93 -16.93,16.93zM74.07,365h-62.14c-9.35018,0 -16.93,-7.57982 -16.93,-16.93v-62.14c0,-9.35018 7.57982,-16.93 16.93,-16.93h62.14c9.35018,0 16.93,7.57982 16.93,16.93v62.14c0,9.35018 -7.57982,16.93 -16.93,16.93zM266.07,365h-62.14c-9.35018,0 -16.93,-7.57982 -16.93,-16.93v-62.14c0,-9.35018 7.57982,-16.93 16.93,-16.93h62.14c9.35018,0 16.93,7.57982 16.93,16.93v62.14c0,9.35018 -7.57982,16.93 -16.93,16.93zM458.07,365h-62.14c-9.35018,0 -16.93,-7.57982 -16.93,-16.93v-62.14c0,-9.35018 7.57982,-16.93 16.93,-16.93h62.14c9.35018,0 16.93,7.57982 16.93,16.93v62.14c0,9.35018 -7.57982,16.93 -16.93,16.93zM650.07,365h-62.14c-9.35018,0 -16.93,-7.57982 -16.93,-16.93v-62.14c0,-9.35018 7.57982,-16.93 16.93,-16.93h62.14c9.35018,0 16.93,7.57982 16.93,16.93v62.14c0,9.35018 -7.57982,16.93 -16.93,16.93z" data-paper-data="{&quot;origPos&quot;:null}" opacity="0.06"/></g></g></svg>