<svg version="1.1" xmlns="http://www.w3.org/2000/svg" xmlns:xlink="http://www.w3.org/1999/xlink" width="701" height="533.38814" viewBox="0,0,701,533.38814"><g transform="translate(112.69662,85.44744)"><g data-paper-data="{&quot;isPaintingLayer&quot;:true}" fill-rule="nonzero" stroke-linecap="butt" stroke-linejoin="miter" stroke-miterlimit="10" stroke-dasharray="" stroke-dashoffset="0" style="mix-blend-mode: normal"><path d="M41.8034,120.60501h-55v-35h55z" data-paper-data="{&quot;index&quot;:null}" fill="#789aab" stroke="#000000" stroke-width="4"/><path d="M41.8034,120.60501h-57v-35h57z" data-paper-data="{&quot;index&quot;:null}" fill="#789aab" stroke="#000000" stroke-width="0"/><path d="M41.8034,120.60501h-57v-10h57z" data-paper-data="{&quot;index&quot;:null}" fill="#617c8a" stroke="none" stroke-width="0"/><path d="M-112.69662,441.55256v-527h701v527z" fill="none" stroke="none" stroke-width="0"/><path d="M314.80014,413.85049l-291.32799,-291.32799l24.74874,-24.74874l291.32799,291.32799z" data-paper-data="{&quot;index&quot;:null}" fill="#789aab" stroke="#000000" stroke-width="4"/><path d="M316.92146,415.9718l-296.98485,-296.98485l24.74874,-24.74874l296.98485,296.98485z" data-paper-data="{&quot;index&quot;:null}" fill="#789aab" stroke="#000000" stroke-width="0"/><path d="M316.92146,415.9718l-293.44931,-293.44931l7.07107,-7.07107l293.44931,293.44931z" data-paper-data="{&quot;index&quot;:null}" fill="#617c8a" stroke="none" stroke-width="0"/><path d="M156.73526,230.96276c-3.51472,3.51472 -9.21321,3.51472 -12.72792,0c-3.51472,-3.51472 -3.51472,-9.21321 0,-12.72792c3.51472,-3.51472 9.21321,-3.51472 12.72792,0c3.51472,3.51472 3.51472,9.21321 0,12.72792z" data-paper-data="{&quot;index&quot;:null}" fill="#2d81ab" stroke="#000000" stroke-width="2"/><path d="M175.12004,249.34753c-3.51472,3.51472 -9.21321,3.51472 -12.72792,0c-3.51472,-3.51472 -3.51472,-9.21321 0,-12.72792c3.51472,-3.51472 9.21321,-3.51472 12.72792,0c3.51472,3.51472 3.51472,9.21321 0,12.72792z" data-paper-data="{&quot;index&quot;:null}" fill="#2d81ab" stroke="#000000" stroke-width="2"/><path d="M241.58807,315.81557c-3.51472,3.51472 -9.21321,3.51472 -12.72792,0c-3.51472,-3.51472 -3.51472,-9.21321 0,-12.72792c3.51472,-3.51472 9.21321,-3.51472 12.72792,0c3.51472,3.51472 3.51472,9.21321 0,12.72792z" data-paper-data="{&quot;index&quot;:null}" fill="#2d81ab" stroke="#000000" stroke-width="2"/><path d="M260.67996,334.90745c-3.51472,3.51472 -9.21321,3.51472 -12.72792,0c-3.51472,-3.51472 -3.51472,-9.21321 0,-12.72792c3.51472,-3.51472 9.21321,-3.51472 12.72792,0c3.51472,3.51472 3.51472,9.21321 0,12.72792z" data-paper-data="{&quot;index&quot;:null}" fill="#2d81ab" stroke="#000000" stroke-width="2"/><path d="M-3.8225,130.47824l32.60512,-63.07064c0,0 17.60202,-2.15765 24.3165,1.31349c5.91699,3.05886 13.88121,18.43327 13.88121,18.43327l-32.60512,63.07065z" data-paper-data="{&quot;index&quot;:null}" fill="#2d81ab" stroke="#000000" stroke-width="2"/><path d="M38.62167,96.03299c-4.41544,-2.28262 -6.14444,-7.71247 -3.86183,-12.12792c2.28262,-4.41544 7.71247,-6.14444 12.12791,-3.86182c4.41544,2.28262 6.14445,7.71247 3.86183,12.12791c-2.28262,4.41544 -7.71247,6.14445 -12.12792,3.86183z" data-paper-data="{&quot;index&quot;:null}" fill="#f4ff8c" stroke="#000000" stroke-width="2"/><path d="M291.13299,407.89635l63.9143,-30.91863c0,0 15.37968,8.82903 18.67127,15.63334c2.90064,5.99613 0.0541,23.07532 0.0541,23.07532l-63.91431,30.91864z" data-paper-data="{&quot;index&quot;:null}" fill="#2d81ab" stroke="#000000" stroke-width="2"/><path d="M345.75464,405.78513c-2.16454,-4.47451 -0.29196,-9.85652 4.18255,-12.02108c4.47451,-2.16454 9.85653,-0.29196 12.02107,4.18255c2.16454,4.47451 0.29197,9.85653 -4.18255,12.02107c-4.47451,2.16454 -9.85653,0.29197 -12.02108,-4.18255z" data-paper-data="{&quot;index&quot;:null}" fill="#f4ff8c" stroke="#000000" stroke-width="2"/></g></g></svg>