<svg version="1.1" xmlns="http://www.w3.org/2000/svg" xmlns:xlink="http://www.w3.org/1999/xlink" width="21.03614" height="20.29492" viewBox="0,0,21.03614,20.29492"><g transform="translate(-229.31393,-154.31508)"><g data-paper-data="{&quot;isPaintingLayer&quot;:true}" fill="none" fill-rule="nonzero" stroke="none" stroke-width="1" stroke-linecap="butt" stroke-linejoin="miter" stroke-miterlimit="10" stroke-dasharray="" stroke-dashoffset="0" font-family="none" font-weight="none" font-size="none" text-anchor="none" style="mix-blend-mode: normal"><path d="M248.7,171.48c0.41974,-0.35899 1.05101,-0.30974 1.41,0.11c0.35899,0.41974 0.30974,1.05101 -0.11,1.41l-1.72,1.37l-0.06,0.05v0v0c-0.07059,0.05599 -0.14784,0.10302 -0.23,0.14h-0.11v0c-0.08795,0.0263 -0.17847,0.04306 -0.27,0.05c-0.06545,-0.00724 -0.12947,-0.02409 -0.19,-0.05v0c-0.11405,-0.02753 -0.22237,-0.07492 -0.32,-0.14l-3.89,-2.11l-3.24,-0.11v0c-0.04989,0.0047 -0.10011,0.0047 -0.15,0l-3.43,-0.04l-4,1.89c-0.14944,0.09691 -0.32206,0.15215 -0.5,0.16c-0.07297,0.01039 -0.14703,0.01039 -0.22,0h-0.1h-0.1c-0.09587,-0.04117 -0.18384,-0.09869 -0.26,-0.17v0l-0.09,-0.09l-1.49,-1.39c-0.40317,-0.37832 -0.42332,-1.01183 -0.045,-1.415c0.37832,-0.40317 1.01183,-0.42332 1.415,-0.045l1.14,0.89l3.71,-1.74v0c0.06848,-0.0225 0.13873,-0.03923 0.21,-0.05h0.17v0h2.77v-5.21h-3.32c-0.11202,0.00194 -0.22358,-0.01496 -0.33,-0.05l-3.56,-1.26c-0.52191,-0.18225 -0.79725,-0.75309 -0.615,-1.275c0.18225,-0.52191 0.75309,-0.79725 1.275,-0.615l3.4,1.2h3.15v-0.68c-1.98435,-0.50429 -3.28272,-2.40722 -3.02861,-4.43882c0.25411,-2.0316 1.98118,-3.5561 4.02861,-3.5561c2.04743,0 3.7745,1.5245 4.02861,3.5561c0.25411,2.0316 -1.04425,3.93452 -3.02861,4.43882v0.66l3.1,0.06l3.65,-1.02c0.53019,-0.15464 1.08536,0.14981 1.24,0.68c0.15464,0.53019 -0.14981,1.08536 -0.68,1.24l-3.78,1.1c-0.09276,0.01461 -0.18724,0.01461 -0.28,0v0l-3.25,-0.06v5.31l2.62,0.15v0h0.2c0.06177,0.01425 0.12204,0.03434 0.18,0.06v0l3.57,1.94l1.11,-0.95z" fill="#ffee00"/><path d="M248.7,171.48c0.41974,-0.35899 1.05101,-0.30974 1.41,0.11c0.35899,0.41974 0.30974,1.05101 -0.11,1.41l-1.72,1.37l-0.06,0.05v0v0c-0.07059,0.05599 -0.14784,0.10302 -0.23,0.14h-0.11v0c-0.08795,0.0263 -0.17847,0.04306 -0.27,0.05c-0.06545,-0.00724 -0.12947,-0.02409 -0.19,-0.05v0c-0.11405,-0.02753 -0.22237,-0.07492 -0.32,-0.14l-3.89,-2.11l-3.24,-0.11v0c-0.04989,0.0047 -0.10011,0.0047 -0.15,0l-3.43,-0.04l-4,1.89c-0.14944,0.09691 -0.32206,0.15215 -0.5,0.16c-0.07297,0.01039 -0.14703,0.01039 -0.22,0h-0.1h-0.1c-0.09587,-0.04117 -0.18384,-0.09869 -0.26,-0.17v0l-0.09,-0.09l-1.49,-1.39c-0.40317,-0.37832 -0.42332,-1.01183 -0.045,-1.415c0.37832,-0.40317 1.01183,-0.42332 1.415,-0.045l1.14,0.89l3.71,-1.74v0c0.06848,-0.0225 0.13873,-0.03923 0.21,-0.05h0.17v0h2.77v-5.21h-3.32c-0.11202,0.00194 -0.22358,-0.01496 -0.33,-0.05l-3.56,-1.26c-0.52191,-0.18225 -0.79725,-0.75309 -0.615,-1.275c0.18225,-0.52191 0.75309,-0.79725 1.275,-0.615l3.4,1.2h3.15v-0.68c-1.98435,-0.50429 -3.28272,-2.40722 -3.02861,-4.43882c0.25411,-2.0316 1.98118,-3.5561 4.02861,-3.5561c2.04743,0 3.7745,1.5245 4.02861,3.5561c0.25411,2.0316 -1.04425,3.93452 -3.02861,4.43882v0.66l3.1,0.06l3.65,-1.02c0.53019,-0.15464 1.08536,0.14981 1.24,0.68c0.15464,0.53019 -0.14981,1.08536 -0.68,1.24l-3.78,1.1c-0.09276,0.01461 -0.18724,0.01461 -0.28,0v0l-3.25,-0.06v5.31l2.62,0.15v0h0.2c0.06177,0.01425 0.12204,0.03434 0.18,0.06v0l3.57,1.94l1.11,-0.95z" fill="#ff9400"/></g></g></svg>