<svg version="1.1" xmlns="http://www.w3.org/2000/svg" xmlns:xlink="http://www.w3.org/1999/xlink" width="16.6593" height="28.38492" viewBox="0,0,16.6593,28.38492"><g transform="translate(-229.90342,-159.58508)"><g data-paper-data="{&quot;isPaintingLayer&quot;:true}" fill="none" fill-rule="nonzero" stroke="none" stroke-width="1" stroke-linecap="butt" stroke-linejoin="miter" stroke-miterlimit="10" stroke-dasharray="" stroke-dashoffset="0" font-family="none" font-weight="none" font-size="none" text-anchor="none" style="mix-blend-mode: normal"><path d="M246.5086,172.30428c0.08882,0.25889 0.06764,0.54287 -0.0586,0.78572c-0.16945,0.33628 -0.51344,0.54886 -0.89,0.55c-0.15574,0.00217 -0.30983,-0.03208 -0.45,-0.1l-5.91,-3v4.51l3.71,-0.69c0.07299,-0.01001 0.14701,-0.01001 0.22,0c0.04988,-0.00495 0.10012,-0.00495 0.15,0v0c0.09835,0.02234 0.19275,0.05942 0.28,0.11c0.03,0 0.08,0 0.08,0c0.05803,0.04474 0.11161,0.09497 0.16,0.15c0.04485,0.03483 0.08517,0.07515 0.12,0.12l0.05,0.12c0.04762,0.07327 0.08151,0.15459 0.1,0.24v0c0.00501,0.0599 0.00501,0.1201 0,0.18c0.00524,0.06322 0.00524,0.12678 0,0.19l-0.3,1.7c0.42025,-0.04262 0.82196,0.18342 1.00366,0.56476c0.1817,0.38134 0.10418,0.83571 -0.19366,1.13524l-1.45,1.41c-0.18461,0.25936 -0.48168,0.41532 -0.8,0.42h-0.17c-0.32844,-0.06517 -0.60247,-0.2904 -0.73,-0.6l-0.05,-0.09v-0.18c-0.01,-0.08638 -0.01,-0.17362 0,-0.26v0l0.51,-3l-2.86,0.57l-0.71,4.16l-0.49,4.42c-0.04022,0.29854 -0.21288,0.56304 -0.47,0.72l-1.56,1.3c-0.17991,0.14908 -0.40635,0.23046 -0.64,0.23c-0.29743,0.00048 -0.57964,-0.13146 -0.77,-0.36c-0.17006,-0.20408 -0.25193,-0.46744 -0.22754,-0.73197c0.02439,-0.26453 0.15303,-0.50848 0.35754,-0.67803l1.41,-1.18l0.44,-4v-0.06l0.83,-4.83v-5.55l-5.85,2.97c-0.14017,0.06792 -0.29426,0.10217 -0.45,0.1c-0.37656,-0.00114 -0.72055,-0.21372 -0.89,-0.55c-0.24692,-0.49165 -0.05031,-1.09042 0.44,-1.34l6.75,-3.38v-0.8c-1.98435,-0.50429 -3.28272,-2.40722 -3.02861,-4.43882c0.25411,-2.0316 1.98118,-3.5561 4.02861,-3.5561c2.04743,0 3.7745,1.5245 4.02861,3.5561c0.25411,2.0316 -1.04425,3.93452 -3.02861,4.43882v0.73l6.78,3.41c0.24873,0.11421 0.43978,0.32538 0.5286,0.58428z" fill="#ffee00"/><path d="M246.5086,172.30428c0.08882,0.25889 0.06764,0.54287 -0.0586,0.78572c-0.16945,0.33628 -0.51344,0.54886 -0.89,0.55c-0.15574,0.00217 -0.30983,-0.03208 -0.45,-0.1l-5.91,-3v4.51l3.71,-0.69c0.07299,-0.01001 0.14701,-0.01001 0.22,0c0.04988,-0.00495 0.10012,-0.00495 0.15,0v0c0.09835,0.02234 0.19275,0.05942 0.28,0.11c0.03,0 0.08,0 0.08,0c0.05803,0.04474 0.11161,0.09497 0.16,0.15c0.04485,0.03483 0.08517,0.07515 0.12,0.12l0.05,0.12c0.04762,0.07327 0.08151,0.15459 0.1,0.24v0c0.00501,0.0599 0.00501,0.1201 0,0.18c0.00524,0.06322 0.00524,0.12678 0,0.19l-0.3,1.7c0.42025,-0.04262 0.82196,0.18342 1.00366,0.56476c0.1817,0.38134 0.10418,0.83571 -0.19366,1.13524l-1.45,1.41c-0.18461,0.25936 -0.48168,0.41532 -0.8,0.42h-0.17c-0.32844,-0.06517 -0.60247,-0.2904 -0.73,-0.6l-0.05,-0.09v-0.18c-0.01,-0.08638 -0.01,-0.17362 0,-0.26v0l0.51,-3l-2.86,0.57l-0.71,4.16l-0.49,4.42c-0.04022,0.29854 -0.21288,0.56304 -0.47,0.72l-1.56,1.3c-0.17991,0.14908 -0.40635,0.23046 -0.64,0.23c-0.29743,0.00048 -0.57964,-0.13146 -0.77,-0.36c-0.17006,-0.20408 -0.25193,-0.46744 -0.22754,-0.73197c0.02439,-0.26453 0.15303,-0.50848 0.35754,-0.67803l1.41,-1.18l0.44,-4v-0.06l0.83,-4.83v-5.55l-5.85,2.97c-0.14017,0.06792 -0.29426,0.10217 -0.45,0.1c-0.37656,-0.00114 -0.72055,-0.21372 -0.89,-0.55c-0.24692,-0.49165 -0.05031,-1.09042 0.44,-1.34l6.75,-3.38v-0.8c-1.98435,-0.50429 -3.28272,-2.40722 -3.02861,-4.43882c0.25411,-2.0316 1.98118,-3.5561 4.02861,-3.5561c2.04743,0 3.7745,1.5245 4.02861,3.5561c0.25411,2.0316 -1.04425,3.93452 -3.02861,4.43882v0.73l6.78,3.41c0.24873,0.11421 0.43978,0.32538 0.5286,0.58428z" fill="#ff9400"/></g></g></svg>