<svg version="1.1" xmlns="http://www.w3.org/2000/svg" xmlns:xlink="http://www.w3.org/1999/xlink" width="272.27756" height="272.27756" viewBox="0,0,272.27756,272.27756"><g transform="translate(-103.86122,-43.86123)"><g data-paper-data="{&quot;isPaintingLayer&quot;:true}" fill-rule="nonzero" stroke-width="2" stroke-linecap="butt" stroke-linejoin="miter" stroke-miterlimit="10" stroke-dasharray="" stroke-dashoffset="0" style="mix-blend-mode: normal"><g><path d="M104.86123,158.86122h42.27755v42.27755h-42.27755z" fill="#ffffff" stroke="#000000"/><path d="M126,166.10593c7.6735,0 13.89408,6.22058 13.89408,13.89408c0,7.6735 -6.22058,13.89408 -13.89408,13.89408c-7.6735,0 -13.89408,-6.22058 -13.89408,-13.89408c0,-7.6735 6.22058,-13.89408 13.89408,-13.89408z" fill="#91b6c9" stroke="#91b6c9"/><path d="M126,172.27745c4.27035,0 7.73213,3.4575 7.73213,7.72257c0,4.26507 -3.46179,7.72258 -7.73212,7.72258c-4.27035,0 -7.73213,-3.4575 -7.73213,-7.72257c0,-4.26507 3.46179,-7.72257 7.73213,-7.72257z" fill="#000000" stroke="#000000"/></g><g><path d="M218.86124,315.1388v-42.27755h42.27755v42.27755z" fill="#ffffff" stroke="#000000"/><path d="M226.10594,294.00002c0,-7.6735 6.22058,-13.89408 13.89408,-13.89408c7.6735,0 13.89408,6.22058 13.89408,13.89408c0,7.6735 -6.22058,13.89408 -13.89408,13.89408c-7.6735,0 -13.89408,-6.22059 -13.89408,-13.89408z" fill="#91b6c9" stroke="#91b6c9"/><path d="M232.27744,294.00002c0,-4.27035 3.4575,-7.73212 7.72257,-7.73212c4.26507,0 7.72258,3.46179 7.72258,7.73212c0,4.27035 -3.4575,7.73213 -7.72258,7.73213c-4.26507,0 -7.72257,-3.46179 -7.72257,-7.73213z" fill="#000000" stroke="#000000"/></g><g><path d="M332.86124,158.86122h42.27755v42.27755h-42.27755z" fill="#ffffff" stroke="#000000"/><path d="M354.00001,166.10593c7.6735,0 13.89408,6.22059 13.89408,13.89408c0,7.6735 -6.22058,13.89408 -13.89408,13.89408c-7.6735,0 -13.89408,-6.22058 -13.89408,-13.89408c0,-7.6735 6.22058,-13.89408 13.89408,-13.89408z" fill="#91b6c9" stroke="#91b6c9"/><path d="M354.00001,172.27745c4.27034,0 7.73213,3.4575 7.73213,7.72257c0,4.26507 -3.46178,7.72257 -7.73212,7.72258c-4.27035,0 -7.73213,-3.45751 -7.73213,-7.72258c0,-4.26507 3.46179,-7.72257 7.73213,-7.72257z" fill="#000000" stroke="#000000"/></g><g><path d="M218.86124,87.13879v-42.27755h42.27755v42.27755z" fill="#ffffff" stroke="#000000"/><path d="M226.10594,66.00001c0,-7.6735 6.22058,-13.89408 13.89408,-13.89408c7.6735,0 13.89408,6.22058 13.89408,13.89408c0,7.6735 -6.22058,13.89408 -13.89408,13.89408c-7.6735,0 -13.89408,-6.22059 -13.89408,-13.89408z" fill="#91b6c9" stroke="#91b6c9"/><path d="M232.27744,66.00002c0,-4.27035 3.4575,-7.73212 7.72257,-7.73212c4.26507,0 7.72258,3.46179 7.72258,7.73212c0,4.27035 -3.4575,7.73213 -7.72258,7.73213c-4.26507,0 -7.72257,-3.46179 -7.72257,-7.73213z" fill="#000000" stroke="#000000"/></g><g><path d="M154.99645,80.1017l29.89474,29.89474l-29.89474,29.89474l-29.89474,-29.89474z" fill="#ffffff" stroke="#000000"/><path d="M164.82105,100.17185c5.42598,5.42598 5.42598,14.22321 0,19.6492c-5.42598,5.42598 -14.22321,5.42598 -19.6492,0c-5.42598,-5.42598 -5.42598,-14.22321 0,-19.6492c5.42598,-5.42598 14.22321,-5.42598 19.6492,0z" fill="#91b6c9" stroke="#91b6c9"/><path d="M160.45711,104.53576c3.01959,3.01959 3.02262,7.91226 0.00676,10.92812c-3.01586,3.01586 -7.90854,3.01283 -10.92812,-0.00675c-3.01959,-3.01959 -3.02262,-7.91226 -0.00676,-10.92812c3.01586,-3.01586 7.90854,-3.01283 10.92812,0.00676z" fill="#000000" stroke="#000000"/></g><g><path d="M140.1017,265.00359l29.89474,-29.89474l29.89474,29.89474l-29.89474,29.89474z" fill="#ffffff" stroke="#000000"/><path d="M160.17184,255.179c5.42598,-5.42598 14.22321,-5.42598 19.6492,0c5.42598,5.42598 5.42598,14.22321 0,19.6492c-5.42598,5.42598 -14.22321,5.42598 -19.6492,0c-5.42598,-5.42598 -5.42598,-14.22322 0,-19.6492z" fill="#91b6c9" stroke="#91b6c9"/><path d="M164.53576,259.54291c3.01959,-3.01959 7.91226,-3.02261 10.92812,-0.00675c3.01586,3.01586 3.01283,7.90854 -0.00675,10.92812c-3.01959,3.01959 -7.91226,3.02262 -10.92813,0.00675c-3.01586,-3.01586 -3.01283,-7.90854 0.00676,-10.92812z" fill="#000000" stroke="#000000"/></g><g><path d="M325.0036,220.10885l29.89474,29.89474l-29.89474,29.89474l-29.89474,-29.89474z" fill="#ffffff" stroke="#000000"/><path d="M334.82818,240.17898c5.42598,5.42598 5.42598,14.22322 0,19.6492c-5.42598,5.42598 -14.22321,5.42598 -19.6492,0c-5.42598,-5.42598 -5.42598,-14.22321 0,-19.6492c5.42598,-5.42598 14.22321,-5.42598 19.6492,0z" fill="#91b6c9" stroke="#91b6c9"/><path d="M330.46425,244.5429c3.01959,3.01959 3.02262,7.91226 0.00676,10.92812c-3.01586,3.01586 -7.90853,3.01283 -10.92812,-0.00675c-3.01959,-3.01959 -3.02261,-7.91227 -0.00675,-10.92813c3.01586,-3.01586 7.90854,-3.01283 10.92812,0.00676z" fill="#000000" stroke="#000000"/></g><g><path d="M280.10884,94.99645l29.89474,-29.89474l29.89474,29.89474l-29.89474,29.89474z" fill="#ffffff" stroke="#000000"/><path d="M300.179,85.17185c5.42598,-5.42598 14.22321,-5.42598 19.6492,0c5.42598,5.42598 5.42598,14.22321 0,19.6492c-5.42598,5.42598 -14.22321,5.42598 -19.6492,0c-5.42598,-5.42598 -5.42598,-14.22322 0,-19.6492z" fill="#91b6c9" stroke="#91b6c9"/><path d="M304.5429,89.53577c3.01959,-3.01959 7.91226,-3.02261 10.92812,-0.00675c3.01586,3.01586 3.01283,7.90854 -0.00675,10.92812c-3.01959,3.01959 -7.91226,3.02262 -10.92813,0.00675c-3.01586,-3.01586 -3.01283,-7.90854 0.00676,-10.92812z" fill="#000000" stroke="#000000"/></g><path d="M238.14425,69.42251l5.38852,-12.92145l71.06798,29.63686l-5.38852,12.92145z" fill="#000000" stroke="none"/><path d="M165.39926,273.86208l5.38852,-12.92145l71.06797,29.63686l-5.38852,12.92145z" fill="#000000" stroke="none"/><path d="M350.57749,178.14425l12.92145,5.38852l-29.63686,71.06798l-12.92145,-5.38853z" fill="#000000" stroke="none"/><path d="M146.13792,105.39925l12.92145,5.38853l-29.63686,71.06798l-12.92145,-5.38852z" fill="#000000" stroke="none"/></g></g></svg>