<svg version="1.1" xmlns="http://www.w3.org/2000/svg" xmlns:xlink="http://www.w3.org/1999/xlink" width="536.31002" height="440.63409" viewBox="0,0,536.31002,440.63409"><g transform="translate(128.2499,40.78893)"><g data-paper-data="{&quot;isPaintingLayer&quot;:true}" fill="#2d81ab" fill-rule="nonzero" stroke-linecap="butt" stroke-linejoin="miter" stroke-miterlimit="10" stroke-dasharray="" stroke-dashoffset="0" style="mix-blend-mode: normal"><path d="M-107.02029,-38.78892c4.32058,0.64831 8.70764,1.5572 13.1421,2.69729c55.52828,14.27631 118.48723,64.80783 151.38979,93.96655c4.74214,4.20256 8.85994,7.96114 12.24115,11.10323c2.19845,2.04297 24.46426,25.90163 53.71125,56.26214c60.38814,62.6873 168.5918,147.35688 272.83939,165.8123c21.07867,3.73165 2.51531,20.67513 -4.69446,29.09124c-12.71528,14.84283 -27.55246,20.84194 -28.11328,61.30704c-0.44556,35.30285 -283.19227,2.60172 -283.19227,2.60172c0,0 -121.5926,-0.00001 -176.05338,-0.00001c-47.14773,0 -16.31368,-423.59827 -11.2703,-422.8415z" stroke="#000000" stroke-width="4"/><path d="M-111.35363,-39.45559c4.32058,0.64831 13.04098,2.22386 17.47543,3.36396c55.52828,14.27631 118.48723,64.80783 151.38979,93.96655c4.74214,4.20256 8.85994,7.96114 12.24115,11.10323c2.19845,2.04297 24.46426,25.90163 53.71125,56.26214c60.38814,62.6873 168.5918,147.35688 272.83939,165.8123c21.07867,3.73165 2.51531,20.67513 -4.69446,29.09124c-12.71528,14.84283 -27.55246,20.84194 -28.11328,61.30704c-0.44556,35.30285 -283.19227,2.60172 -283.19227,2.60172c0,0 -129.5926,-0.66667 -184.05338,-0.66667c-47.14773,0 -12.64701,-423.59827 -7.60363,-422.8415z" stroke="none" stroke-width="0"/></g></g></svg>