<svg version="1.1" xmlns="http://www.w3.org/2000/svg" xmlns:xlink="http://www.w3.org/1999/xlink" width="97.06863" height="506.7" viewBox="0,0,97.06863,506.7"><g transform="translate(-191.46569,73.35)"><g data-paper-data="{&quot;isPaintingLayer&quot;:true}" fill-rule="nonzero" stroke-linecap="butt" stroke-linejoin="miter" stroke-miterlimit="10" stroke-dasharray="" stroke-dashoffset="0" style="mix-blend-mode: normal"><g><path d="M286.53432,239.35h-93.06863v-22.7h93.06863z" fill="#000000" stroke="#000000" stroke-width="4"/><path d="M286.53432,239.35h-93.06863v-22.7h93.06863z" fill="#4e5d64" stroke="#000000" stroke-width="0"/><g fill="#e1e102" stroke="none" stroke-width="1"><path d="M206.4357,239.35l-12.97002,-12.58277v-7.39664l20.59428,19.9794z"/><path d="M226.67944,239.35l-23.39861,-22.7h7.62427l23.39861,22.7z"/><path d="M286.53432,238.4148l-22.52226,-21.7648h7.7119l14.81036,14.36817z"/><path d="M243.76832,216.65h7.7119l23.39861,22.7h-7.7119z"/><path d="M223.52457,216.65h7.62427l23.39861,22.7h-7.62427z"/></g></g><g><path d="M286.53432,143.35h-93.06863v-22.7h93.06863z" fill="#000000" stroke="#000000" stroke-width="4"/><path d="M286.53432,143.35h-93.06863v-22.7h93.06863z" fill="#4e5d64" stroke="#000000" stroke-width="0"/><g fill="#e1e102" stroke="none" stroke-width="1"><path d="M206.4357,143.35l-12.97002,-12.58277v-7.39664l20.59428,19.9794z"/><path d="M226.67944,143.35l-23.39861,-22.7h7.62427l23.39861,22.7z"/><path d="M286.53432,142.4148l-22.52226,-21.7648h7.7119l14.81036,14.36817z"/><path d="M243.76832,120.65h7.7119l23.39861,22.7h-7.7119z"/><path d="M223.52457,120.65h7.62427l23.39861,22.7h-7.62427z"/></g></g><g><path d="M286.53432,47.35h-93.06863v-22.7h93.06863z" fill="#000000" stroke="#000000" stroke-width="4"/><path d="M286.53432,47.35h-93.06863v-22.7h93.06863z" fill="#4e5d64" stroke="#000000" stroke-width="0"/><g fill="#e1e102" stroke="none" stroke-width="1"><path d="M206.4357,47.35l-12.97002,-12.58277v-7.39664l20.59428,19.9794z"/><path d="M226.67944,47.35l-23.39861,-22.7h7.62427l23.39861,22.7z"/><path d="M286.53432,46.4148l-22.52226,-21.7648h7.7119l14.81036,14.36817z"/><path d="M243.76832,24.65h7.7119l23.39861,22.7h-7.7119z"/><path d="M223.52457,24.65h7.62427l23.39861,22.7h-7.62427z"/></g></g><g><path d="M286.53432,-48.65h-93.06863v-22.7h93.06863z" fill="#000000" stroke="#000000" stroke-width="4"/><path d="M286.53432,-48.65h-93.06863v-22.7h93.06863z" fill="#4e5d64" stroke="#000000" stroke-width="0"/><g fill="#e1e102" stroke="none" stroke-width="1"><path d="M206.4357,-48.65l-12.97002,-12.58277v-7.39664l20.59428,19.9794z"/><path d="M226.67944,-48.65l-23.39861,-22.7h7.62427l23.39861,22.7z"/><path d="M286.53432,-49.5852l-22.52226,-21.7648h7.7119l14.81036,14.36817z"/><path d="M243.76832,-71.35h7.7119l23.39861,22.7h-7.7119z"/><path d="M223.52457,-71.35h7.62427l23.39861,22.7h-7.62427z"/></g></g><g><path d="M286.53432,335.35h-93.06863v-22.7h93.06863z" fill="#000000" stroke="#000000" stroke-width="4"/><path d="M286.53432,335.35h-93.06863v-22.7h93.06863z" fill="#4e5d64" stroke="#000000" stroke-width="0"/><g fill="#e1e102" stroke="none" stroke-width="1"><path d="M206.4357,335.35l-12.97002,-12.58277v-7.39664l20.59428,19.9794z"/><path d="M226.67944,335.35l-23.39861,-22.7h7.62427l23.39861,22.7z"/><path d="M286.53432,334.4148l-22.52226,-21.7648h7.7119l14.81036,14.36817z"/><path d="M243.76832,312.65h7.7119l23.39861,22.7h-7.7119z"/><path d="M223.52457,312.65h7.62427l23.39861,22.7h-7.62427z"/></g></g><g><path d="M286.53432,431.35h-93.06863v-22.7h93.06863z" fill="#000000" stroke="#000000" stroke-width="4"/><path d="M286.53432,431.35h-93.06863v-22.7h93.06863z" fill="#4e5d64" stroke="#000000" stroke-width="0"/><g fill="#e1e102" stroke="none" stroke-width="1"><path d="M206.4357,431.35l-12.97002,-12.58277v-7.39664l20.59428,19.9794z"/><path d="M226.67944,431.35l-23.39861,-22.7h7.62427l23.39861,22.7z"/><path d="M286.53432,430.4148l-22.52226,-21.7648h7.7119l14.81036,14.36817z"/><path d="M243.76832,408.65h7.7119l23.39861,22.7h-7.7119z"/><path d="M223.52457,408.65h7.62427l23.39861,22.7h-7.62427z"/></g></g></g></g></svg>