<svg version="1.1" xmlns="http://www.w3.org/2000/svg" xmlns:xlink="http://www.w3.org/1999/xlink" width="321" height="138.16664" viewBox="0,0,321,138.16664"><g transform="translate(-60.30339,-247.93837)"><g data-paper-data="{&quot;isPaintingLayer&quot;:true}" fill-rule="nonzero" stroke-linecap="butt" stroke-linejoin="miter" stroke-miterlimit="10" stroke-dasharray="" stroke-dashoffset="0" style="mix-blend-mode: normal"><path d="M100.3034,290.43836v73.16667h-35v-73.16667z" data-paper-data="{&quot;index&quot;:null}" fill="#789aab" stroke="#000000" stroke-width="4"/><path d="M376.3034,290.43836v73.16667h-35v-73.16667z" data-paper-data="{&quot;index&quot;:null}" fill="#789aab" stroke="#000000" stroke-width="4"/><path d="M100.3034,287.10501v91.5h-35v-91.5z" data-paper-data="{&quot;index&quot;:null}" fill="#789aab" stroke="none" stroke-width="0"/><path d="M239.3034,264.69521v100.7541h-35v-100.7541z" data-paper-data="{&quot;index&quot;:null}" fill="#789aab" stroke="#000000" stroke-width="4"/><path d="M239.3034,260.10501v126h-35v-126z" data-paper-data="{&quot;index&quot;:null}" fill="#789aab" stroke="none" stroke-width="0"/><path d="M376.3034,287.10501v91.5h-35v-91.5z" data-paper-data="{&quot;index&quot;:null}" fill="#789aab" stroke="none" stroke-width="0"/><path d="M100.3034,294.43836v26h-35v-26z" data-paper-data="{&quot;index&quot;:null}" fill="#58717e" stroke="none" stroke-width="0"/><path d="M239.3034,267.43836v26h-35v-26z" data-paper-data="{&quot;index&quot;:null}" fill="#58717e" stroke="none" stroke-width="0"/><path d="M376.3034,294.43836v26h-35v-26z" data-paper-data="{&quot;index&quot;:null}" fill="#58717e" stroke="none" stroke-width="0"/><path d="M104.30339,275.93836v30h-43v-30z" data-paper-data="{&quot;index&quot;:null}" fill="#2d81ab" stroke="#000000" stroke-width="2"/><path d="M243.30339,248.93838v30h-43v-30z" data-paper-data="{&quot;index&quot;:null}" fill="#2d81ab" stroke="#000000" stroke-width="2"/><path d="M380.30339,275.93836v30h-43v-30z" data-paper-data="{&quot;index&quot;:null}" fill="#2d81ab" stroke="#000000" stroke-width="2"/><path d="M91.7135,335.05259c0,4.97056 -4.02944,9 -9,9c-4.97056,0 -9,-4.02944 -9,-9c0,-4.97056 4.02944,-9 9,-9c4.97056,0 9,4.02944 9,9z" data-paper-data="{&quot;index&quot;:null}" fill="#2d81ab" stroke="#000000" stroke-width="2"/><path d="M230.7135,308.05259c0,4.97056 -4.02944,9 -9,9c-4.97056,0 -9,-4.02944 -9,-9c0,-4.97056 4.02944,-9 9,-9c4.97056,0 9,4.02944 9,9z" data-paper-data="{&quot;index&quot;:null}" fill="#2d81ab" stroke="#000000" stroke-width="2"/><path d="M367.7135,335.05259c0,4.97056 -4.02944,9 -9,9c-4.97056,0 -9,-4.02944 -9,-9c0,-4.97056 4.02944,-9 9,-9c4.97056,0 9,4.02944 9,9z" data-paper-data="{&quot;index&quot;:null}" fill="#2d81ab" stroke="#000000" stroke-width="2"/></g></g></svg>