<svg version="1.1" xmlns="http://www.w3.org/2000/svg" xmlns:xlink="http://www.w3.org/1999/xlink" width="132.27755" height="132.27755" viewBox="0,0,132.27755,132.27755"><g transform="translate(-173.86123,-113.86122)"><g data-paper-data="{&quot;isPaintingLayer&quot;:true}" fill-rule="nonzero" stroke-width="2" stroke-linecap="butt" stroke-linejoin="miter" stroke-miterlimit="10" stroke-dasharray="" stroke-dashoffset="0" style="mix-blend-mode: normal"><path d="M174.86124,245.13878v-130.27755h130.27755v130.27755z" fill="#ffffff" stroke="#000000"/><path d="M207.04483,180.00001c0,-18.20066 14.75452,-32.95518 32.95518,-32.95518c18.20067,0 32.95518,14.75451 32.95518,32.95518c0,18.20066 -14.75451,32.95518 -32.95518,32.95518c-18.20067,0 -32.95518,-14.75452 -32.95518,-32.95518z" fill="#91b6c9" stroke="#91b6c9"/><path d="M230.68293,180.00001c0,-10.12877 4.17138,-18.33973 9.31707,-18.33973c5.14569,0 9.31707,8.21097 9.31707,18.33973c0,10.12877 -4.17138,18.33973 -9.31707,18.33973c-5.14569,0 -9.31707,-8.21097 -9.31707,-18.33973z" fill="#000000" stroke="#000000"/></g></g></svg>