<svg version="1.1" xmlns="http://www.w3.org/2000/svg" xmlns:xlink="http://www.w3.org/1999/xlink" width="15.1903" height="25.59948" viewBox="0,0,15.1903,25.59948"><g transform="translate(-235.24516,-154.38499)"><g data-paper-data="{&quot;isPaintingLayer&quot;:true}" fill="none" fill-rule="nonzero" stroke="none" stroke-width="1" stroke-linecap="butt" stroke-linejoin="miter" stroke-miterlimit="10" stroke-dasharray="" stroke-dashoffset="0" font-family="none" font-weight="none" font-size="none" text-anchor="none" style="mix-blend-mode: normal"><path d="M249.465,164.45447c0.55228,0.01657 0.98657,0.47772 0.97,1.03c-0.01657,0.55228 -0.47772,0.98657 -1.03,0.97h-0.07l-3.23,-0.2l-0.17,-0.05c-0.05318,0.00563 -0.10682,0.00563 -0.16,0l-2.56,-1.1l-2,5.34l1.55,2.18c0,0.05 0,0.05 0,0.05c0.0349,0.05599 0.06183,0.11657 0.08,0.18c0.03045,0.05955 0.05073,0.12377 0.06,0.19v0c0.00533,0.04317 0.00533,0.08683 0,0.13c0.00985,0.06965 0.00985,0.14035 0,0.21c-0.01284,0.06044 -0.03656,0.11804 -0.07,0.17c-0.02059,0.05933 -0.04741,0.11631 -0.08,0.17c-0.05,0.06 -0.1,0.1 -0.15,0.15c-0.02718,0.03577 -0.05728,0.06922 -0.09,0.1v0l-0.11,0.06c-0.07705,0.03246 -0.15758,0.05595 -0.24,0.07h-0.06l-0.69,0.08c0,0.07 0,0.07 0,0.07c0.00893,0.06637 0.00893,0.13363 0,0.2v0l-1.18,3.53h0.81c0.55228,0 1,0.44772 1,1c0,0.55228 -0.44772,1 -1,1v0l-2.07,-0.08h-0.12c-0.07631,0.01042 -0.15369,0.01042 -0.23,0h-0.06c-0.09542,-0.03759 -0.18344,-0.09176 -0.26,-0.16v0c-0.23401,-0.1948 -0.36653,-0.48559 -0.36,-0.79c0.01307,-0.16614 0.06441,-0.327 0.15,-0.47l0.5,-1.48c-0.08666,0.05406 -0.18109,0.09453 -0.28,0.12h-0.19c-0.48586,0.00884 -0.90775,-0.33289 -1,-0.81l-0.59,-2.32c-0.0415,-0.08139 -0.06857,-0.16936 -0.08,-0.26c-0.05476,-0.52556 0.30881,-1.00302 0.83,-1.09v0h0.05l2,-0.21l-0.11,-1.5c-0.00569,-0.06321 -0.00569,-0.12679 0,-0.19v0c-0.01519,-0.10277 -0.01519,-0.20723 0,-0.31c-0.0042,-0.04657 -0.0042,-0.09343 0,-0.14c0,-0.02 0,-0.08 0,-0.08l2,-5.31l-1.91,0.26l-2.62,1.82c-0.1672,0.11671 -0.36609,0.17952 -0.57,0.18c-0.4076,-0.04936 -0.74362,-0.34285 -0.84735,-0.74011c-0.10373,-0.39726 0.04591,-0.81756 0.37735,-1.05989l2.81,-2v0l0.18,-0.08l0.19,-0.06v0l3.21,-0.45l0.28,-0.77c-1.8194,-0.85653 -2.72006,-2.93065 -2.1038,-4.84482c0.61625,-1.91418 2.55782,-3.07326 4.5352,-2.70745c1.97738,0.36581 3.37577,2.1428 3.26643,4.15075c-0.10934,2.00795 -1.69242,3.62258 -3.69783,3.77152l-0.29,0.79l2.5,1.07l3.06,0.19zM239.005,175.63447l0.4,-1.19l-0.62,0.07z" fill="#ffee00"/><path d="M249.465,164.45447c0.55228,0.01657 0.98657,0.47772 0.97,1.03c-0.01657,0.55228 -0.47772,0.98657 -1.03,0.97h-0.07l-3.23,-0.2l-0.17,-0.05c-0.05318,0.00563 -0.10682,0.00563 -0.16,0l-2.56,-1.1l-2,5.34l1.55,2.18c0,0.05 0,0.05 0,0.05c0.0349,0.05599 0.06183,0.11657 0.08,0.18c0.03045,0.05955 0.05073,0.12377 0.06,0.19v0c0.00533,0.04317 0.00533,0.08683 0,0.13c0.00985,0.06965 0.00985,0.14035 0,0.21c-0.01284,0.06044 -0.03656,0.11804 -0.07,0.17c-0.02059,0.05933 -0.04741,0.11631 -0.08,0.17c-0.05,0.06 -0.1,0.1 -0.15,0.15c-0.02718,0.03577 -0.05728,0.06922 -0.09,0.1v0l-0.11,0.06c-0.07705,0.03246 -0.15758,0.05595 -0.24,0.07h-0.06l-0.69,0.08c0,0.07 0,0.07 0,0.07c0.00893,0.06637 0.00893,0.13363 0,0.2v0l-1.18,3.53h0.81c0.55228,0 1,0.44772 1,1c0,0.55228 -0.44772,1 -1,1v0l-2.07,-0.08h-0.12c-0.07631,0.01042 -0.15369,0.01042 -0.23,0h-0.06c-0.09542,-0.03759 -0.18344,-0.09176 -0.26,-0.16v0c-0.23401,-0.1948 -0.36653,-0.48559 -0.36,-0.79c0.01307,-0.16614 0.06441,-0.327 0.15,-0.47l0.5,-1.48c-0.08666,0.05406 -0.18109,0.09453 -0.28,0.12h-0.19c-0.48586,0.00884 -0.90775,-0.33289 -1,-0.81l-0.59,-2.32c-0.0415,-0.08139 -0.06857,-0.16936 -0.08,-0.26c-0.05476,-0.52556 0.30881,-1.00302 0.83,-1.09v0h0.05l2,-0.21l-0.11,-1.5c-0.00569,-0.06321 -0.00569,-0.12679 0,-0.19v0c-0.01519,-0.10277 -0.01519,-0.20723 0,-0.31c-0.0042,-0.04657 -0.0042,-0.09343 0,-0.14c0,-0.02 0,-0.08 0,-0.08l2,-5.31l-1.91,0.26l-2.62,1.82c-0.1672,0.11671 -0.36609,0.17952 -0.57,0.18c-0.4076,-0.04936 -0.74362,-0.34285 -0.84735,-0.74011c-0.10373,-0.39726 0.04591,-0.81756 0.37735,-1.05989l2.81,-2v0l0.18,-0.08l0.19,-0.06v0l3.21,-0.45l0.28,-0.77c-1.8194,-0.85653 -2.72006,-2.93065 -2.1038,-4.84482c0.61625,-1.91418 2.55782,-3.07326 4.5352,-2.70745c1.97738,0.36581 3.37577,2.1428 3.26643,4.15075c-0.10934,2.00795 -1.69242,3.62258 -3.69783,3.77152l-0.29,0.79l2.5,1.07l3.06,0.19zM239.005,175.63447l0.4,-1.19l-0.62,0.07z" fill="#ff9400"/></g></g></svg>