<svg version="1.1" xmlns="http://www.w3.org/2000/svg" xmlns:xlink="http://www.w3.org/1999/xlink" width="16.6593" height="28.16498" viewBox="0,0,16.6593,28.16498"><g transform="translate(-230.30342,-157.18508)"><g data-paper-data="{&quot;isPaintingLayer&quot;:true}" fill="none" fill-rule="nonzero" stroke="none" stroke-width="1" stroke-linecap="butt" stroke-linejoin="miter" stroke-miterlimit="10" stroke-dasharray="" stroke-dashoffset="0" font-family="none" font-weight="none" font-size="none" text-anchor="none" style="mix-blend-mode: normal"><path d="M246.9086,169.90428c0.08882,0.25889 0.06764,0.54287 -0.0586,0.78572c-0.16945,0.33628 -0.51344,0.54886 -0.89,0.55c-0.15574,0.00217 -0.30983,-0.03208 -0.45,-0.1l-5.91,-3v4.95l4.09,1.06l0.12,0.06l0.18,0.09l0.14,0.14l0.12,0.14c0.02758,0.05483 0.05098,0.11165 0.07,0.17c0.02883,0.05669 0.04905,0.11735 0.06,0.18c0.00473,0.06658 0.00473,0.13342 0,0.2c0,0.05 0,0.1 0,0.15l-0.39,2.23v0c0.46729,-0.21119 1.0186,-0.03468 1.27634,0.40864c0.25774,0.44332 0.13838,1.00975 -0.27634,1.31136l-1.71,1c-0.18189,0.17034 -0.42083,0.26662 -0.67,0.27h-0.17c-0.20234,-0.03971 -0.38746,-0.141 -0.53,-0.29v0c-0.05833,-0.05629 -0.10878,-0.1202 -0.15,-0.19v0c0,-0.06 0,-0.06 0,-0.06c-0.04039,-0.08272 -0.07061,-0.17002 -0.09,-0.26c-0.015,-0.09608 -0.015,-0.19392 0,-0.29v0v0c0,-0.03 0,-0.1 0,-0.1l0.59,-3.39l-2.92,-0.86l-0.74,3.74l-0.31,4.44c0,0.06 0,0.06 0,0.06v0.1c-0.07116,0.32089 -0.29547,0.58632 -0.6,0.71l-1.62,1.07c-0.16104,0.11279 -0.3534,0.17225 -0.55,0.17c-0.33263,0.0005 -0.64373,-0.16442 -0.83,-0.44c-0.1479,-0.22125 -0.2015,-0.49232 -0.14895,-0.75321c0.05255,-0.26089 0.20693,-0.49006 0.42895,-0.63679l1.4,-0.93l0.23,-3.94c0,-0.06 0,0.01 0,-0.06c0,-0.07 0,-0.07 0,-0.07l1,-4.8v-5.54l-5.85,2.97c-0.14017,0.06792 -0.29426,0.10217 -0.45,0.1c-0.37656,-0.00114 -0.72055,-0.21372 -0.89,-0.55c-0.24692,-0.49165 -0.05031,-1.09042 0.44,-1.34l6.75,-3.38v-0.8c-1.98435,-0.50429 -3.28272,-2.40722 -3.02861,-4.43882c0.25411,-2.0316 1.98118,-3.5561 4.02861,-3.5561c2.04743,0 3.7745,1.5245 4.02861,3.5561c0.25411,2.0316 -1.04425,3.93452 -3.02861,4.43882v0.73l6.78,3.41c0.24873,0.11421 0.43978,0.32538 0.5286,0.58428z" fill="#ffee00"/><path d="M246.9086,169.90428c0.08882,0.25889 0.06764,0.54287 -0.0586,0.78572c-0.16945,0.33628 -0.51344,0.54886 -0.89,0.55c-0.15574,0.00217 -0.30983,-0.03208 -0.45,-0.1l-5.91,-3v4.95l4.09,1.06l0.12,0.06l0.18,0.09l0.14,0.14l0.12,0.14c0.02758,0.05483 0.05098,0.11165 0.07,0.17c0.02883,0.05669 0.04905,0.11735 0.06,0.18c0.00473,0.06658 0.00473,0.13342 0,0.2c0,0.05 0,0.1 0,0.15l-0.39,2.23v0c0.46729,-0.21119 1.0186,-0.03468 1.27634,0.40864c0.25774,0.44332 0.13838,1.00975 -0.27634,1.31136l-1.71,1c-0.18189,0.17034 -0.42083,0.26662 -0.67,0.27h-0.17c-0.20234,-0.03971 -0.38746,-0.141 -0.53,-0.29v0c-0.05833,-0.05629 -0.10878,-0.1202 -0.15,-0.19v0c0,-0.06 0,-0.06 0,-0.06c-0.04039,-0.08272 -0.07061,-0.17002 -0.09,-0.26c-0.015,-0.09608 -0.015,-0.19392 0,-0.29v0v0c0,-0.03 0,-0.1 0,-0.1l0.59,-3.39l-2.92,-0.86l-0.74,3.74l-0.31,4.44c0,0.06 0,0.06 0,0.06v0.1c-0.07116,0.32089 -0.29547,0.58632 -0.6,0.71l-1.62,1.07c-0.16104,0.11279 -0.3534,0.17225 -0.55,0.17c-0.33263,0.0005 -0.64373,-0.16442 -0.83,-0.44c-0.1479,-0.22125 -0.2015,-0.49232 -0.14895,-0.75321c0.05255,-0.26089 0.20693,-0.49006 0.42895,-0.63679l1.4,-0.93l0.23,-3.94c0,-0.06 0,0.01 0,-0.06c0,-0.07 0,-0.07 0,-0.07l1,-4.8v-5.54l-5.85,2.97c-0.14017,0.06792 -0.29426,0.10217 -0.45,0.1c-0.37656,-0.00114 -0.72055,-0.21372 -0.89,-0.55c-0.24692,-0.49165 -0.05031,-1.09042 0.44,-1.34l6.75,-3.38v-0.8c-1.98435,-0.50429 -3.28272,-2.40722 -3.02861,-4.43882c0.25411,-2.0316 1.98118,-3.5561 4.02861,-3.5561c2.04743,0 3.7745,1.5245 4.02861,3.5561c0.25411,2.0316 -1.04425,3.93452 -3.02861,4.43882v0.73l6.78,3.41c0.24873,0.11421 0.43978,0.32538 0.5286,0.58428z" fill="#ff9400"/></g></g></svg>