<svg version="1.1" xmlns="http://www.w3.org/2000/svg" xmlns:xlink="http://www.w3.org/1999/xlink" width="14.4374" height="28.91494" viewBox="0,0,14.4374,28.91494"><g transform="translate(-232.87675,-153.91508)"><g data-paper-data="{&quot;isPaintingLayer&quot;:true}" fill="none" fill-rule="nonzero" stroke="none" stroke-width="1" stroke-linecap="butt" stroke-linejoin="miter" stroke-miterlimit="10" stroke-dasharray="" stroke-dashoffset="0" font-family="none" font-weight="none" font-size="none" text-anchor="none" style="mix-blend-mode: normal"><path d="M246.87,158.42c0.45627,0.30518 0.58125,0.92112 0.28,1.38l-2.19,3.3c-0.05887,0.07703 -0.12593,0.14744 -0.2,0.21h-0.06c-0.09132,0.06575 -0.19261,0.1164 -0.3,0.15v0l-3.4,0.88v6.14l2.36,4.28c0,0.02 0,0.07 0,0.07c0.02452,0.06182 0.04457,0.12531 0.06,0.19c0.00491,0.06658 0.00491,0.13342 0,0.2c0,0.08 0,0.08 0,0.08l-0.27,4.33l0.23,2.09c0.03094,0.26397 -0.04447,0.5294 -0.20958,0.73767c-0.16511,0.20827 -0.40635,0.34224 -0.67042,0.37233h-0.11c-0.51203,0.00311 -0.94368,-0.38107 -1,-0.89l-0.25,-2.16c0,-0.06 0,-0.03 0,-0.06c0,-0.03 0,-0.09 0,-0.09l0.27,-4.17l-1.41,-2.6l-1.47,2.57l0.22,4.18c0.00409,0.04324 0.00409,0.08676 0,0.13c0,0.06 0,0.06 0,0.06l-0.31,2.07c-0.08797,0.48109 -0.511,0.82798 -1,0.82h-0.17c-0.26129,-0.04631 -0.49346,-0.19457 -0.64539,-0.41214c-0.15192,-0.21757 -0.21114,-0.4866 -0.16461,-0.74786l0.37,-2l-0.23,-4.31c0,-0.08 0,-0.08 0,-0.08v-0.2l0.06,-0.19c0,-0.02 0,-0.07 0,-0.07l2.3,-4.13v-6.24l-3.44,-0.95v0c-0.10739,-0.0336 -0.20868,-0.08425 -0.3,-0.15l-0.06,-0.05c-0.09114,-0.06579 -0.16633,-0.15123 -0.22,-0.25l-1.94,-3.32c-0.12796,-0.23326 -0.15769,-0.50789 -0.08262,-0.76312c0.07507,-0.25524 0.24875,-0.47004 0.48262,-0.59688c0.47537,-0.27308 1.08199,-0.11251 1.36,0.36l1.73,3l2.51,0.69v-0.37c-1.98435,-0.50429 -3.28272,-2.40722 -3.02861,-4.43882c0.25411,-2.0316 1.98118,-3.5561 4.02861,-3.5561c2.04743,0 3.7745,1.5245 4.02861,3.5561c0.25411,2.0316 -1.04425,3.93452 -3.02861,4.43882v0.37l2.49,-0.62l2,-3c0.31779,-0.44261 0.93144,-0.54933 1.38,-0.24z" fill="#ffee00"/><path d="M246.87,158.42c0.45627,0.30518 0.58125,0.92112 0.28,1.38l-2.19,3.3c-0.05887,0.07703 -0.12593,0.14744 -0.2,0.21h-0.06c-0.09132,0.06575 -0.19261,0.1164 -0.3,0.15v0l-3.4,0.88v6.14l2.36,4.28c0,0.02 0,0.07 0,0.07c0.02452,0.06182 0.04457,0.12531 0.06,0.19c0.00491,0.06658 0.00491,0.13342 0,0.2c0,0.08 0,0.08 0,0.08l-0.27,4.33l0.23,2.09c0.03094,0.26397 -0.04447,0.5294 -0.20958,0.73767c-0.16511,0.20827 -0.40635,0.34224 -0.67042,0.37233h-0.11c-0.51203,0.00311 -0.94368,-0.38107 -1,-0.89l-0.25,-2.16c0,-0.06 0,-0.03 0,-0.06c0,-0.03 0,-0.09 0,-0.09l0.27,-4.17l-1.41,-2.6l-1.47,2.57l0.22,4.18c0.00409,0.04324 0.00409,0.08676 0,0.13c0,0.06 0,0.06 0,0.06l-0.31,2.07c-0.08797,0.48109 -0.511,0.82798 -1,0.82h-0.17c-0.26129,-0.04631 -0.49346,-0.19457 -0.64539,-0.41214c-0.15192,-0.21757 -0.21114,-0.4866 -0.16461,-0.74786l0.37,-2l-0.23,-4.31c0,-0.08 0,-0.08 0,-0.08v-0.2l0.06,-0.19c0,-0.02 0,-0.07 0,-0.07l2.3,-4.13v-6.24l-3.44,-0.95v0c-0.10739,-0.0336 -0.20868,-0.08425 -0.3,-0.15l-0.06,-0.05c-0.09114,-0.06579 -0.16633,-0.15123 -0.22,-0.25l-1.94,-3.32c-0.12796,-0.23326 -0.15769,-0.50789 -0.08262,-0.76312c0.07507,-0.25524 0.24875,-0.47004 0.48262,-0.59688c0.47537,-0.27308 1.08199,-0.11251 1.36,0.36l1.73,3l2.51,0.69v-0.37c-1.98435,-0.50429 -3.28272,-2.40722 -3.02861,-4.43882c0.25411,-2.0316 1.98118,-3.5561 4.02861,-3.5561c2.04743,0 3.7745,1.5245 4.02861,3.5561c0.25411,2.0316 -1.04425,3.93452 -3.02861,4.43882v0.37l2.49,-0.62l2,-3c0.31779,-0.44261 0.93144,-0.54933 1.38,-0.24z" fill="#ff9400"/></g></g></svg>