<svg version="1.1" xmlns="http://www.w3.org/2000/svg" xmlns:xlink="http://www.w3.org/1999/xlink" width="701" height="527" viewBox="0,0,701,527"><g transform="translate(112.69662,85.44741)"><g data-paper-data="{&quot;isPaintingLayer&quot;:true}" fill-rule="nonzero" stroke-linecap="butt" stroke-linejoin="miter" stroke-miterlimit="10" stroke-dasharray="" stroke-dashoffset="0" style="mix-blend-mode: normal"><path d="M510.52137,196.60504h-274.57614l-5,-35h279.57614z" data-paper-data="{&quot;index&quot;:null}" fill="#789aab" stroke="#000000" stroke-width="4"/><path d="M512.8034,196.60504h-276.85816l-5,-35h281.85817z" data-paper-data="{&quot;index&quot;:null}" fill="#789aab" stroke="#000000" stroke-width="0"/><path d="M512.28205,196.60504h-276.1915l-1.33333,-10h277.52484z" data-paper-data="{&quot;index&quot;:null}" fill="#617c8a" stroke="none" stroke-width="0"/><path d="M305.80339,200.43839h-30v-43h30z" data-paper-data="{&quot;index&quot;:null}" fill="#2d81ab" stroke="#000000" stroke-width="2"/><path d="M404.80339,200.43839h-30v-43h30z" data-paper-data="{&quot;index&quot;:null}" fill="#2d81ab" stroke="#000000" stroke-width="2"/><path d="M375.8034,347.60504h-428.37952v-35h428.37952z" data-paper-data="{&quot;index&quot;:null}" fill="#789aab" stroke="#000000" stroke-width="4"/><path d="M375.8034,347.60504h-428.37952v-35h428.37952z" data-paper-data="{&quot;index&quot;:null}" fill="#789aab" stroke="#000000" stroke-width="0"/><path d="M373.8034,347.60504h-428.37952v-10h428.37952z" data-paper-data="{&quot;index&quot;:null}" fill="#617c8a" stroke="none" stroke-width="0"/><path d="M-112.69662,441.55259v-527h701v527z" fill="none" stroke="none" stroke-width="0"/><path d="M-16.19661,351.4384h-55c0,0 -10,-14.64536 -10,-22.204c0,-6.66089 10,-20.796 10,-20.796h55z" data-paper-data="{&quot;index&quot;:null}" fill="#2d81ab" stroke="#000000" stroke-width="2"/><path d="M68.80339,351.4384h-30v-43h30z" data-paper-data="{&quot;index&quot;:null}" fill="#2d81ab" stroke="#000000" stroke-width="2"/><path d="M128.80339,351.4384h-30v-43h30z" data-paper-data="{&quot;index&quot;:null}" fill="#2d81ab" stroke="#000000" stroke-width="2"/><path d="M186.80339,351.4384h-30v-43h30z" data-paper-data="{&quot;index&quot;:null}" fill="#2d81ab" stroke="#000000" stroke-width="2"/><path d="M296.80339,351.4384h-30v-43h30z" data-paper-data="{&quot;index&quot;:null}" fill="#2d81ab" stroke="#000000" stroke-width="2"/><path d="M354.80339,351.4384h-30v-194h30z" data-paper-data="{&quot;index&quot;:null}" fill="#2d81ab" stroke="#000000" stroke-width="2"/><path d="M92.7135,330.05262c0,4.97056 -4.02944,9 -9,9c-4.97056,0 -9,-4.02944 -9,-9c0,-4.97056 4.02944,-9 9,-9c4.97056,0 9,4.02944 9,9z" data-paper-data="{&quot;index&quot;:null}" fill="#2d81ab" stroke="#000000" stroke-width="2"/><path d="M-50.2865,329.55262c0,4.97056 -4.02944,9 -9,9c-4.97056,0 -9,-4.02944 -9,-9c0,-4.97056 4.02944,-9 9,-9c4.97056,0 9,4.02944 9,9z" data-paper-data="{&quot;index&quot;:null}" fill="#f4ff8c" stroke="#000000" stroke-width="2"/></g></g></svg>