<svg version="1.1" xmlns="http://www.w3.org/2000/svg" xmlns:xlink="http://www.w3.org/1999/xlink" width="701" height="527" viewBox="0,0,701,527"><g transform="translate(112.69662,85.44748)"><g data-paper-data="{&quot;isPaintingLayer&quot;:true}" fill-rule="nonzero" stroke-linecap="butt" stroke-linejoin="miter" stroke-miterlimit="10" stroke-dasharray="" stroke-dashoffset="0" style="mix-blend-mode: normal"><path d="M412.30339,289.55252v-298h35v298z" fill="#789aab" stroke="#000000" stroke-width="4"/><path d="M412.30339,289.55252v-298h35v298z" fill="#789aab" stroke="none" stroke-width="0"/><path d="M412.30339,289.55252v-298h35v298z" fill="#789aab" stroke="none" stroke-width="0"/><path d="M305.30339,98.55252v-152h35v152z" fill="#789aab" stroke="#000000" stroke-width="4"/><path d="M305.30339,98.55252v-152h35v152z" fill="#789aab" stroke="none" stroke-width="0"/><path d="M305.30339,98.55252v-152h35v152z" fill="#789aab" stroke="none" stroke-width="0"/><path d="M126.41511,382.10504v-94.89634c0,0 197.19018,-122 264.17289,-122c41.11224,0 63.51878,0 63.51878,0v216.89634z" data-paper-data="{&quot;index&quot;:null}" fill="#2d81ab" stroke="#000000" stroke-width="2"/><path d="M84.21349,382.60504v-96c0,0 43.19227,0 59.5,0c11.38503,0 29,15.57773 29,26.5c0,17.68814 0,69.5 0,69.5z" data-paper-data="{&quot;index&quot;:null}" fill="#789aab" stroke="#000000" stroke-width="2"/><path d="M105.71349,317.10501c-4.97056,0 -9,-4.02944 -9,-9c0,-4.97056 4.02944,-9 9,-9c4.97056,0 9,4.02944 9,9c0,4.97056 -4.02944,9 -9,9z" data-paper-data="{&quot;index&quot;:null}" fill="#2d81ab" stroke="#000000" stroke-width="2"/><path d="M-112.69662,441.55253v-527h701v527z" fill="none" stroke="none" stroke-width="0"/><path d="M322.38016,88.10501c-4.97056,0 -9,-4.02944 -9,-9c0,-4.97056 4.02944,-9 9,-9c4.97056,0 9,4.02944 9,9c0,4.97056 -4.02944,9 -9,9z" data-paper-data="{&quot;index&quot;:null}" fill="#2d81ab" stroke="#000000" stroke-width="2"/><path d="M322.38016,62.10501c-4.97056,0 -9,-4.02944 -9,-9c0,-4.97056 4.02944,-9 9,-9c4.97056,0 9,4.02944 9,9c0,4.97056 -4.02944,9 -9,9z" data-paper-data="{&quot;index&quot;:null}" fill="#2d81ab" stroke="#000000" stroke-width="2"/><path d="M322.38016,35.10501c-4.97056,0 -9,-4.02944 -9,-9c0,-4.97056 4.02944,-9 9,-9c4.97056,0 9,4.02944 9,9c0,4.97056 -4.02944,9 -9,9z" data-paper-data="{&quot;index&quot;:null}" fill="#2d81ab" stroke="#000000" stroke-width="2"/></g></g></svg>