<svg version="1.1" xmlns="http://www.w3.org/2000/svg" xmlns:xlink="http://www.w3.org/1999/xlink" width="16.68885" height="26.1983" viewBox="0,0,16.68885,26.1983"><g transform="translate(-231.68558,-154.47599)"><g data-paper-data="{&quot;isPaintingLayer&quot;:true}" fill="none" fill-rule="nonzero" stroke="none" stroke-width="1" stroke-linecap="butt" stroke-linejoin="miter" stroke-miterlimit="10" stroke-dasharray="" stroke-dashoffset="0" font-family="none" font-weight="none" font-size="none" text-anchor="none" style="mix-blend-mode: normal"><path d="M247.81001,166.64091c0.42202,0.20427 0.64546,0.67433 0.5374,1.13057c-0.10806,0.45624 -0.51859,0.77615 -0.9874,0.76943c-0.15628,-0.00304 -0.30994,-0.0406 -0.45,-0.11l-5.91,-3v5.3l2.78,3.93v0.08c0.03259,0.05369 0.05941,0.11067 0.08,0.17c0.02136,0.06541 0.03807,0.13224 0.05,0.2c0,0.08 0,0.08 0,0.08l0.19,3.48h1.24c0.55228,0 1,0.44772 1,1c0,0.55228 -0.44772,1 -1,1h-2c-0.03653,0.0045 -0.07347,0.0045 -0.11,0h-0.06c-0.52968,0.00095 -0.96822,-0.41128 -1,-0.94l-0.23,-4.18l-1.94,-2.74l-1.94,2.68l-0.23,4.18c-0.03178,0.52872 -0.47032,0.94095 -1,0.94h-0.06c-0.03653,0.0045 -0.07347,0.0045 -0.11,0h-2c-0.55228,0 -1,-0.44772 -1,-1c0,-0.55228 0.44772,-1 1,-1h1.32l0.19,-3.49c0,-0.07 0,-0.07 0,-0.07c0.01193,-0.06776 0.02864,-0.13459 0.05,-0.2c0.02247,-0.06178 0.0492,-0.12192 0.08,-0.18v-0.07l2.7,-3.81v-5.33l-5.85,2.98c-0.13932,0.07138 -0.29346,0.10906 -0.45,0.11c-0.46881,0.00672 -0.87935,-0.31319 -0.9874,-0.76943c-0.10806,-0.45624 0.11538,-0.9263 0.5374,-1.13057l6.75,-3.38v-0.8c-1.98435,-0.50429 -3.28272,-2.40722 -3.02861,-4.43882c0.25411,-2.0316 1.98118,-3.5561 4.02861,-3.5561c2.04743,0 3.7745,1.5245 4.02861,3.5561c0.25411,2.0316 -1.04425,3.93452 -3.02861,4.43882v0.73l6.78,3.41z" fill="#ffee00"/><path d="M247.81001,166.64091c0.42202,0.20427 0.64546,0.67433 0.5374,1.13057c-0.10806,0.45624 -0.51859,0.77615 -0.9874,0.76943c-0.15628,-0.00304 -0.30994,-0.0406 -0.45,-0.11l-5.91,-3v5.3l2.78,3.93v0.08c0.03259,0.05369 0.05941,0.11067 0.08,0.17c0.02136,0.06541 0.03807,0.13224 0.05,0.2c0,0.08 0,0.08 0,0.08l0.19,3.48h1.24c0.55228,0 1,0.44772 1,1c0,0.55228 -0.44772,1 -1,1h-2c-0.03653,0.0045 -0.07347,0.0045 -0.11,0h-0.06c-0.52968,0.00095 -0.96822,-0.41128 -1,-0.94l-0.23,-4.18l-1.94,-2.74l-1.94,2.68l-0.23,4.18c-0.03178,0.52872 -0.47032,0.94095 -1,0.94h-0.06c-0.03653,0.0045 -0.07347,0.0045 -0.11,0h-2c-0.55228,0 -1,-0.44772 -1,-1c0,-0.55228 0.44772,-1 1,-1h1.32l0.19,-3.49c0,-0.07 0,-0.07 0,-0.07c0.01193,-0.06776 0.02864,-0.13459 0.05,-0.2c0.02247,-0.06178 0.0492,-0.12192 0.08,-0.18v-0.07l2.7,-3.81v-5.33l-5.85,2.98c-0.13932,0.07138 -0.29346,0.10906 -0.45,0.11c-0.46881,0.00672 -0.87935,-0.31319 -0.9874,-0.76943c-0.10806,-0.45624 0.11538,-0.9263 0.5374,-1.13057l6.75,-3.38v-0.8c-1.98435,-0.50429 -3.28272,-2.40722 -3.02861,-4.43882c0.25411,-2.0316 1.98118,-3.5561 4.02861,-3.5561c2.04743,0 3.7745,1.5245 4.02861,3.5561c0.25411,2.0316 -1.04425,3.93452 -3.02861,4.43882v0.73l6.78,3.41z" fill="#ff9400"/></g></g></svg>