<svg version="1.1" xmlns="http://www.w3.org/2000/svg" xmlns:xlink="http://www.w3.org/1999/xlink" width="721.66681" height="527" viewBox="0,0,721.66681,527"><g transform="translate(112.69662,85.44735)"><g data-paper-data="{&quot;isPaintingLayer&quot;:true}" fill-rule="nonzero" stroke-linecap="butt" stroke-linejoin="miter" stroke-miterlimit="10" stroke-dasharray="" stroke-dashoffset="0" style="mix-blend-mode: normal"><path d="M193.66015,121.11825l-76.2096,252.2126l-33.50389,-10.12367l76.2096,-252.2126z" data-paper-data="{&quot;index&quot;:null}" fill="#789aab" stroke="#000000" stroke-width="4"/><path d="M193.17424,122.72636l-75.27685,249.12565l-33.50389,-10.12367l75.27684,-249.12565z" data-paper-data="{&quot;index&quot;:null}" fill="#789aab" stroke="none" stroke-width="0"/><path d="M191.05308,129.74615l-4.27044,15.13861l-36.7539,-0.37367l7.52044,-24.88861z" data-paper-data="{&quot;index&quot;:null}" fill="#58717e" stroke="none" stroke-width="0"/><path d="M157.77741,210.17336c-1.43773,4.75809 -6.46043,7.44978 -11.21852,6.01206c-4.75809,-1.43773 -7.44978,-6.46043 -6.01206,-11.21852c1.43773,-4.75809 6.46043,-7.44978 11.21852,-6.01206c4.75809,1.43773 7.44978,6.46043 6.01206,11.21852z" data-paper-data="{&quot;index&quot;:null}" fill="#2d81ab" stroke="#000000" stroke-width="2"/><path d="M167.32259,178.58398c-1.43773,4.75809 -6.46043,7.44978 -11.21852,6.01206c-4.75809,-1.43773 -7.44978,-6.46043 -6.01206,-11.21852c1.43773,-4.75809 6.46042,-7.44978 11.21851,-6.01206c4.75809,1.43773 7.44978,6.46043 6.01206,11.21852z" data-paper-data="{&quot;index&quot;:null}" fill="#2d81ab" stroke="#000000" stroke-width="2"/><path d="M393.83334,374.50014l-0.33334,-209.14815h213.4702c0.18035,53.80368 -0.61592,209.14815 -0.61592,209.14815z" fill="#2d81ab" stroke="#000000" stroke-width="4"/><path d="M393.5,374.50014v-209.14815h213.4702c0.18035,53.80368 -0.61592,209.14815 -0.61592,209.14815z" fill="#2d81ab" stroke="none" stroke-width="0"/><path d="M289.5,374.50015l22,-144.14815h159.52095v144.14815z" fill="#2d81ab" stroke="#000000" stroke-width="4"/><path d="M38.30338,-8.94739c0,-14.63554 18.80404,-26.5 42,-26.5c23.19596,0 42,11.86446 42,26.5c0,14.63555 -18.80404,26.5 -42,26.5c-23.19596,0 -42,-11.86445 -42,-26.5z" fill="#2d81ab" stroke="#000000" stroke-width="4"/><path d="M44.63672,117.05264c0,-23.19596 18.80404,-42 42,-42c23.19596,0 42,18.80404 42,42c0,23.19596 -18.80404,42 -42,42c-23.19596,0 -42,-18.80404 -42,-42z" fill="#2d81ab" stroke="#000000" stroke-width="4"/><path d="M4.30338,130.05256v-25h285v25z" fill="#2d81ab" stroke="#000000" stroke-width="4"/><path d="M-112.69662,441.55265v-527h701v527z" fill="none" stroke="none" stroke-width="0"/><path d="M4.30338,130.05256v-25h285v25z" fill="#2d81ab" stroke="none" stroke-width="NaN"/><path d="M-84.69662,373.05265v-383.77781h207v383.77781z" fill="#2d81ab" stroke="#000000" stroke-width="4"/><path d="M-84.69662,373.05265v-383.77781h207v383.77781z" fill="#2d81ab" stroke="none" stroke-width="0"/><path d="M44.63672,117.05264c0,-23.19596 18.80404,-42 42,-42c23.19596,0 42,18.80404 42,42c0,23.19596 -18.80404,42 -42,42c-23.19596,0 -42,-18.80404 -42,-42z" fill="#2d81ab" stroke="none" stroke-width="0"/><path d="M38.30338,-8.94739c0,-14.63554 18.80404,-26.5 42,-26.5c23.19596,0 42,11.86446 42,26.5c0,14.63555 -18.80404,26.5 -42,26.5c-23.19596,0 -42,-11.86445 -42,-26.5z" fill="#2d81ab" stroke="none" stroke-width="0"/><path d="M289.5,374.50015l22,-144.14815h159.52095v144.14815z" fill="#2d81ab" stroke="none" stroke-width="0"/></g></g></svg>