<svg version="1.1" xmlns="http://www.w3.org/2000/svg" xmlns:xlink="http://www.w3.org/1999/xlink" width="557.66926" height="414.51295" viewBox="0,0,557.66926,414.51295"><g transform="translate(38.84076,27.19583)"><g data-paper-data="{&quot;isPaintingLayer&quot;:true}" fill="#000000" fill-rule="nonzero" stroke="none" stroke-width="1" stroke-linecap="butt" stroke-linejoin="miter" stroke-miterlimit="10" stroke-dasharray="" stroke-dashoffset="0" style="mix-blend-mode: normal"><path d="M-26.33998,-26.415c2.86693,1.44372 4.85703,4.18662 5.34,7.36c0.42,4.19 -2.95,8.63 -7.3,9.53c-5.79,1.2 -11.62,-4.54 -10.37,-10.34c0.78921,-3.22442 3.12707,-5.84701 6.24,-7c2.02264,-0.54133 4.1689,-0.38274 6.09,0.45z"/><path d="M9.63002,-26.415c2.86694,1.44372 4.85703,4.18662 5.34,7.36c0.56,5.53 -5.09,10.68 -10.54,9.53c-3.51502,-0.89937 -6.25537,-3.65124 -7.14,-7.17c-0.87,-4.1 2,-8.77 6.24,-10.17c2.02599,-0.54128 4.17538,-0.38272 6.1,0.45z"/><path d="M45.59002,-26.415c2.86693,1.44372 4.85703,4.18662 5.34,7.36c0.42,4.19 -2.95,8.63 -7.31,9.53c-5.78,1.2 -11.54,-4.54 -10.36,-10.34c0.78722,-3.22216 3.12093,-5.84429 6.23,-7c2.02591,-0.54208 4.17556,-0.38349 6.1,0.45z"/><path d="M81.56002,-26.385c2.86531,1.44355 4.85233,4.18735 5.33,7.36c0.43,4.19 -2.95,8.63 -7.3,9.53c-5.79,1.2 -11.58,-4.58 -10.37,-10.37c0.78921,-3.22442 3.12707,-5.84701 6.24,-7c2.02934,-0.53185 4.17882,-0.36271 6.1,0.48z"/><path d="M117.52002,-26.385c2.86693,1.44372 4.85703,4.18662 5.34,7.36c0.42,4.19 -2.95,8.63 -7.31,9.53c-5.79,1.2 -11.57,-4.58 -10.36,-10.37c0.78723,-3.22216 3.12093,-5.84429 6.23,-7c2.02927,-0.53263 4.17901,-0.36348 6.1,0.48z"/><path d="M153.48002,-26.385c2.86694,1.44372 4.85703,4.18662 5.34,7.36c0.42,4.19 -2.95,8.63 -7.3,9.53c-5.79,1.2 -11.58,-4.58 -10.37,-10.37c0.78921,-3.22442 3.12708,-5.84701 6.24,-7c2.02599,-0.53189 4.17235,-0.36273 6.09,0.48z"/><path d="M189.45002,-26.385c2.86694,1.44372 4.85703,4.18662 5.34,7.36c0.42,4.19 -2.95,8.63 -7.31,9.53c-5.79,1.2 -11.57,-4.58 -10.37,-10.37c0.78921,-3.22442 3.12708,-5.84701 6.24,-7c2.02934,-0.53185 4.17882,-0.36271 6.1,0.48z"/><path d="M225.41002,-26.385c2.86694,1.44372 4.85703,4.18662 5.34,7.36c0.42,4.19 -2.95,8.63 -7.3,9.53c-5.79,1.2 -11.58,-4.58 -10.37,-10.37c0.78921,-3.22442 3.12708,-5.84701 6.24,-7c2.02599,-0.53189 4.17235,-0.36273 6.09,0.48z"/><path d="M264.00002,-24.405c4.16,4.13 3.51,10.31 -1.49,13.62c-2.83508,2.0453 -6.66987,2.01291 -9.47,-0.08c-3.02938,-1.91618 -4.60769,-5.46735 -4,-9c0.78921,-3.22442 3.12707,-5.84701 6.24,-7c3.13799,-0.89202 6.51086,0.0595 8.72,2.46z"/><path d="M299.96002,-24.405c4.16,4.13 3.51,10.31 -1.49,13.62c-2.83297,2.0404 -6.66194,2.00803 -9.46,-0.08c-3.03366,-1.91248 -4.6133,-5.46665 -4,-9c0.78722,-3.22216 3.12093,-5.84429 6.23,-7c3.13799,-0.89444 6.51213,0.05743 8.72,2.46z"/><path d="M-26.33998,9.545c2.86693,1.44371 4.85703,4.18662 5.34,7.36c0.42,4.19 -2.95,8.63 -7.3,9.53c-5.79,1.21 -11.62,-4.58 -10.37,-10.34c0.79878,-3.21937 3.13317,-5.83808 6.24,-7c2.02308,-0.5366 4.16777,-0.37813 6.09,0.45z"/><path d="M9.63002,9.545c2.86694,1.44371 4.85703,4.18662 5.34,7.36c0.56,5.53 -5.09,10.68 -10.54,9.53c-3.5184,-0.89344 -6.26131,-3.64788 -7.14,-7.17c-0.87,-4.1 2,-8.76 6.24,-10.17c2.02643,-0.53657 4.17425,-0.37813 6.1,0.45z"/><path d="M45.59002,9.545c2.86693,1.44371 4.85703,4.18662 5.34,7.36c0.42,4.19 -2.95,8.63 -7.31,9.53c-5.78,1.21 -11.54,-4.58 -10.36,-10.34c0.78722,-3.22216 3.12093,-5.84429 6.23,-7c2.02635,-0.53735 4.17444,-0.37889 6.1,0.45z"/><path d="M81.56002,9.575c2.86531,1.44355 4.85233,4.18735 5.33,7.36c0.43,4.19 -2.95,8.63 -7.3,9.53c-5.79,1.21 -11.58,-4.58 -10.37,-10.37c0.79878,-3.21937 3.13317,-5.83808 6.24,-7c2.02975,-0.52712 4.17767,-0.35811 6.1,0.48z"/><path d="M117.52002,9.575c2.86693,1.44372 4.85703,4.18662 5.34,7.36c0.42,4.19 -2.95,8.63 -7.31,9.53c-5.79,1.21 -11.57,-4.58 -10.36,-10.37c0.78723,-3.22216 3.12093,-5.84429 6.23,-7c2.02975,-0.52712 4.17767,-0.35811 6.1,0.48z"/><path d="M153.48002,9.575c2.86694,1.44372 4.85703,4.18662 5.34,7.36c0.42,4.19 -2.95,8.63 -7.3,9.53c-5.79,1.21 -11.58,-4.58 -10.37,-10.37c0.79878,-3.21937 3.13318,-5.83808 6.24,-7c2.02641,-0.52716 4.17119,-0.35811 6.09,0.48z"/><path d="M189.45002,9.575c2.86694,1.44372 4.85703,4.18662 5.34,7.36c0.42,4.19 -2.95,8.63 -7.31,9.53c-5.79,1.21 -11.57,-4.58 -10.37,-10.37c0.79878,-3.21937 3.13318,-5.83808 6.24,-7c2.02975,-0.52712 4.17767,-0.35811 6.1,0.48z"/><path d="M225.41002,9.575c2.86694,1.44372 4.85703,4.18662 5.34,7.36c0.42,4.19 -2.95,8.63 -7.3,9.53c-5.79,1.21 -11.58,-4.58 -10.37,-10.37c0.79878,-3.21937 3.13318,-5.83808 6.24,-7c2.02641,-0.52716 4.17119,-0.35811 6.09,0.48z"/><path d="M264.00002,11.555c4.16,4.13 3.51,10.31 -1.49,13.63c-2.8433,2.02324 -6.66567,1.98691 -9.47,-0.09c-3.03152,-1.91433 -4.61049,-5.467 -4,-9c0.79878,-3.21937 3.13317,-5.83808 6.24,-7c3.13799,-0.88003 6.5046,0.06972 8.72,2.46z"/><path d="M299.96002,11.555c4.16,4.13 3.51,10.31 -1.49,13.63c-2.83515,2.03746 -6.66413,2.00103 -9.46,-0.09c-3.03581,-1.91061 -4.61611,-5.4663 -4,-9c0.78722,-3.22216 3.12093,-5.84429 6.23,-7c3.13799,-0.88241 6.50583,0.06769 8.72,2.46z"/><path d="M-26.33998,45.515c2.86917,1.44109 4.86022,4.18531 5.34,7.36c0.42,4.19 -2.95,8.62 -7.3,9.52c-5.79,1.21 -11.62,-4.58 -10.37,-10.33c0.78921,-3.22442 3.12707,-5.84701 6.24,-7c2.02264,-0.54133 4.1689,-0.38274 6.09,0.45z"/><path d="M9.63002,45.515c2.86917,1.44109 4.86022,4.18531 5.34,7.36c0.42,4.19 -2.95,8.62 -7.31,9.52c-5.79,1.21 -11.58,-4.58 -10.37,-10.33c0.78921,-3.22442 3.12708,-5.84701 6.24,-7c2.02599,-0.54129 4.17538,-0.38272 6.1,0.45z"/><path d="M45.59002,45.515c2.86917,1.44109 4.86022,4.18531 5.34,7.36c0.42,4.19 -2.95,8.62 -7.31,9.52c-5.78,1.21 -11.54,-4.58 -10.36,-10.33c0.78722,-3.22216 3.12093,-5.84429 6.23,-7c2.02591,-0.54207 4.17556,-0.38349 6.1,0.45z"/><path d="M81.56002,45.545c2.86644,1.44223 4.85393,4.1867 5.33,7.36c0.43,4.19 -2.95,8.62 -7.3,9.52c-5.79,1.21 -11.58,-4.58 -10.37,-10.36c0.78921,-3.22442 3.12707,-5.84701 6.24,-7c2.02934,-0.53184 4.17882,-0.3627 6.1,0.48z"/><path d="M117.52002,45.545c2.86917,1.44109 4.86022,4.18531 5.34,7.36c0.42,4.19 -2.95,8.62 -7.31,9.52c-5.79,1.21 -11.57,-4.58 -10.36,-10.36c0.78723,-3.22216 3.12093,-5.84429 6.23,-7c2.02927,-0.53263 4.17901,-0.36347 6.1,0.48z"/><path d="M153.48002,45.545c2.86917,1.44109 4.86022,4.18531 5.34,7.36c0.42,4.19 -2.95,8.62 -7.3,9.52c-5.79,1.21 -11.58,-4.58 -10.37,-10.36c0.78921,-3.22442 3.12708,-5.84701 6.24,-7c2.02599,-0.53189 4.17235,-0.36272 6.09,0.48z"/><path d="M189.45002,45.545c2.86917,1.44109 4.86022,4.18531 5.34,7.36c0.42,4.19 -2.95,8.62 -7.31,9.52c-5.79,1.21 -11.57,-4.58 -10.37,-10.36c0.78921,-3.22442 3.12708,-5.84701 6.24,-7c2.02934,-0.53184 4.17882,-0.3627 6.1,0.48z"/><path d="M225.41002,45.545c2.86917,1.44109 4.86022,4.18531 5.34,7.36c0.42,4.19 -2.95,8.62 -7.3,9.52c-5.79,1.21 -11.58,-4.58 -10.37,-10.36c0.78921,-3.22442 3.12708,-5.84701 6.24,-7c2.02599,-0.53189 4.17235,-0.36272 6.09,0.48z"/><path d="M261.38002,45.545c2.86917,1.44109 4.86022,4.18531 5.34,7.36c0.42,4.19 -2.95,8.62 -7.31,9.52c-5.79,1.21 -11.58,-4.58 -10.37,-10.36c0.78921,-3.22442 3.12707,-5.84701 6.24,-7c2.02934,-0.53184 4.17882,-0.3627 6.1,0.48z"/><path d="M297.34002,45.545c2.86917,1.44109 4.86022,4.18531 5.34,7.36c0.42,4.19 -2.95,8.62 -7.31,9.52c-5.78,1.21 -11.57,-4.58 -10.36,-10.36c0.78722,-3.22216 3.12093,-5.84429 6.23,-7c2.02927,-0.53263 4.17901,-0.36347 6.1,0.48z"/><path d="M-26.33998,81.475c2.86693,1.44371 4.85703,4.18662 5.34,7.36c0.42,4.19 -2.95,8.63 -7.3,9.53c-5.79,1.21 -11.62,-4.58 -10.37,-10.34c0.78921,-3.22441 3.12707,-5.84701 6.24,-7c2.02308,-0.5366 4.16777,-0.37813 6.09,0.45z"/><path d="M9.63002,81.475c2.86694,1.44371 4.85703,4.18662 5.34,7.36c0.42,4.19 -2.95,8.63 -7.31,9.53c-5.79,1.21 -11.58,-4.58 -10.37,-10.34c0.78921,-3.22441 3.12708,-5.84701 6.24,-7c2.02643,-0.53657 4.17425,-0.37813 6.1,0.45z"/><path d="M45.59002,81.475c2.86693,1.44371 4.85703,4.18662 5.34,7.36c0.42,4.19 -2.95,8.63 -7.31,9.53c-5.78,1.21 -11.54,-4.58 -10.36,-10.34c0.78722,-3.22216 3.12093,-5.84429 6.23,-7c2.02635,-0.53735 4.17444,-0.37889 6.1,0.45z"/><path d="M81.56002,81.505c2.86531,1.44355 4.85233,4.18735 5.33,7.36c0.43,4.19 -2.95,8.63 -7.3,9.53c-5.79,1.21 -11.58,-4.58 -10.37,-10.37c0.78921,-3.22441 3.12707,-5.84701 6.24,-7c2.02975,-0.52712 4.17767,-0.35811 6.1,0.48z"/><path d="M117.52002,81.505c2.86693,1.44371 4.85703,4.18662 5.34,7.36c0.42,4.19 -2.95,8.63 -7.31,9.53c-5.79,1.21 -11.57,-4.58 -10.36,-10.37c0.78723,-3.22216 3.12093,-5.84429 6.23,-7c2.02975,-0.52712 4.17767,-0.35811 6.1,0.48z"/><path d="M153.48002,81.505c2.86694,1.44371 4.85703,4.18662 5.34,7.36c0.42,4.19 -2.95,8.63 -7.3,9.53c-5.79,1.21 -11.58,-4.58 -10.37,-10.37c0.78921,-3.22441 3.12708,-5.84701 6.24,-7c2.02641,-0.52716 4.17119,-0.35811 6.09,0.48z"/><path d="M189.45002,81.505c2.86694,1.44371 4.85703,4.18662 5.34,7.36c0.42,4.19 -2.95,8.63 -7.31,9.53c-5.79,1.21 -11.57,-4.58 -10.37,-10.37c0.78921,-3.22441 3.12708,-5.84701 6.24,-7c2.02975,-0.52712 4.17767,-0.35811 6.1,0.48z"/><path d="M225.41002,81.505c2.86694,1.44371 4.85703,4.18662 5.34,7.36c0.42,4.19 -2.95,8.63 -7.3,9.53c-5.79,1.21 -11.58,-4.58 -10.37,-10.37c0.78921,-3.22441 3.12708,-5.84701 6.24,-7c2.02641,-0.52716 4.17119,-0.35811 6.09,0.48z"/><path d="M261.38002,81.505c2.86694,1.44371 4.85703,4.18662 5.34,7.36c0.42,4.19 -2.95,8.63 -7.31,9.53c-5.79,1.21 -11.58,-4.58 -10.37,-10.37c0.78921,-3.22441 3.12707,-5.84701 6.24,-7c2.02976,-0.52712 4.17767,-0.35811 6.1,0.48z"/><path d="M297.34002,81.505c2.86694,1.44371 4.85703,4.18662 5.34,7.36c0.42,4.19 -2.95,8.63 -7.31,9.53c-5.78,1.21 -11.57,-4.58 -10.36,-10.37c0.78722,-3.22216 3.12093,-5.84429 6.23,-7c2.02969,-0.52791 4.17786,-0.35887 6.1,0.48z"/><path d="M-26.33998,117.445c2.86917,1.44109 4.86022,4.18531 5.34,7.36c0.42,4.18 -2.95,8.62 -7.3,9.52c-5.79,1.21 -11.62,-4.58 -10.37,-10.33c0.78921,-3.22441 3.12707,-5.84701 6.24,-7c2.0221,-0.54694 4.17025,-0.38821 6.09,0.45z"/><path d="M9.63002,117.445c2.86917,1.44109 4.86022,4.18531 5.34,7.36c0.42,4.18 -2.95,8.62 -7.31,9.52c-5.79,1.21 -11.58,-4.58 -10.37,-10.33c0.78921,-3.22441 3.12708,-5.84701 6.24,-7c2.02553,-0.54606 4.17653,-0.38739 6.1,0.45z"/><path d="M45.59002,117.445c2.86917,1.44109 4.86022,4.18531 5.34,7.36c0.42,4.18 -2.95,8.62 -7.31,9.52c-5.78,1.21 -11.54,-4.58 -10.36,-10.33c0.78722,-3.22216 3.12093,-5.84429 6.23,-7c2.02546,-0.54686 4.17672,-0.38817 6.1,0.45z"/><path d="M81.56002,117.485c2.86644,1.44223 4.85393,4.1867 5.33,7.36c0.43,4.18 -2.95,8.62 -7.3,9.52c-5.79,1.21 -11.58,-4.58 -10.37,-10.37c0.78921,-3.22441 3.12707,-5.84701 6.24,-7c2.03003,-0.53349 4.18116,-0.3607 6.1,0.49z"/><path d="M117.52002,117.485c2.86917,1.44109 4.86022,4.18531 5.34,7.36c0.42,4.18 -2.95,8.62 -7.31,9.52c-5.79,1.21 -11.57,-4.58 -10.36,-10.37c0.78723,-3.22216 3.12093,-5.84429 6.23,-7c2.02997,-0.5343 4.18135,-0.36147 6.1,0.49z"/><path d="M153.48002,117.485c2.86917,1.44109 4.86022,4.18531 5.34,7.36c0.42,4.18 -2.95,8.62 -7.3,9.52c-5.79,1.21 -11.58,-4.58 -10.37,-10.37c0.78921,-3.22441 3.12708,-5.84701 6.24,-7c2.02662,-0.53436 4.17489,-0.36152 6.09,0.49z"/><path d="M189.42002,117.425c2.86917,1.44109 4.86022,4.18531 5.34,7.36c0.42,4.18 -2.95,8.62 -7.31,9.52c-5.79,1.21 -11.57,-4.58 -10.37,-10.37c0.81274,-3.20839 3.16031,-5.80681 6.27,-6.94c2.01393,-0.54535 4.15307,-0.39382 6.07,0.43z"/><path d="M225.41002,117.425c2.86917,1.44109 4.86022,4.18531 5.34,7.36c0.42,4.18 -2.95,8.62 -7.3,9.52c-5.79,1.21 -11.58,-4.58 -10.37,-10.37c0.80677,-3.20161 3.14186,-5.79864 6.24,-6.94c2.01985,-0.55323 4.16793,-0.40156 6.09,0.43z"/><path d="M261.42001,117.425c2.86917,1.44109 4.86022,4.18531 5.34,7.36c0.42,4.18 -2.95,8.62 -7.31,9.52c-5.79,1.21 -11.58,-4.58 -10.37,-10.37c0.79878,-3.19262 3.11726,-5.78782 6.2,-6.94c2.03575,-0.56177 4.20243,-0.41003 6.14,0.43z"/><path d="M297.34002,117.485c2.86917,1.44109 4.86022,4.18531 5.34,7.36c0.42,4.18 -2.95,8.62 -7.31,9.52c-5.78,1.21 -11.57,-4.58 -10.36,-10.37c0.78722,-3.22216 3.12093,-5.84429 6.23,-7c2.02997,-0.5343 4.18135,-0.36147 6.1,0.49z"/><path d="M-26.33998,153.415c2.86693,1.44371 4.85703,4.18662 5.34,7.36c0.42,4.19 -2.95,8.63 -7.3,9.53c-5.79,1.2 -11.58,-4.58 -10.37,-10.37c0.78921,-3.22441 3.12707,-5.84701 6.24,-7c2.02642,-0.52716 4.17119,-0.35811 6.09,0.48z"/><path d="M9.63002,153.415c2.86694,1.44371 4.85703,4.18662 5.34,7.36c0.42,4.19 -2.95,8.63 -7.31,9.53c-5.79,1.2 -11.58,-4.58 -10.37,-10.37c0.78921,-3.22441 3.12708,-5.84701 6.24,-7c2.02976,-0.52713 4.17767,-0.35811 6.1,0.48z"/><path d="M45.59002,153.415c2.86693,1.44371 4.85703,4.18662 5.34,7.36c0.42,4.19 -2.95,8.63 -7.31,9.53c-5.78,1.2 -11.57,-4.58 -10.36,-10.37c0.78722,-3.22215 3.12093,-5.84429 6.23,-7c2.02969,-0.52791 4.17786,-0.35887 6.1,0.48z"/><path d="M81.56002,153.415c2.86531,1.44355 4.85233,4.18735 5.33,7.36c0.43,4.19 -2.95,8.63 -7.3,9.53c-5.79,1.2 -11.58,-4.58 -10.37,-10.37c0.78921,-3.22441 3.12707,-5.84701 6.24,-7c2.02975,-0.52713 4.17767,-0.35811 6.1,0.48z"/><path d="M117.52002,153.415c2.86693,1.44371 4.85703,4.18662 5.34,7.36c0.42,4.19 -2.95,8.63 -7.31,9.53c-5.79,1.2 -11.57,-4.58 -10.36,-10.37c0.78723,-3.22215 3.12093,-5.84429 6.23,-7c2.02975,-0.52713 4.17767,-0.35811 6.1,0.48z"/><path d="M153.48002,153.415c2.86694,1.44371 4.85703,4.18662 5.34,7.36c0.42,4.19 -2.95,8.63 -7.3,9.53c-5.79,1.2 -11.58,-4.58 -10.37,-10.37c0.78921,-3.22441 3.12708,-5.84701 6.24,-7c2.02641,-0.52716 4.17119,-0.35811 6.09,0.48z"/><path d="M189.45002,153.415c2.86694,1.44371 4.85703,4.18662 5.34,7.36c0.42,4.19 -2.95,8.63 -7.31,9.53c-5.79,1.2 -11.57,-4.58 -10.37,-10.37c0.78921,-3.22441 3.12708,-5.84701 6.24,-7c2.02975,-0.52713 4.17767,-0.35811 6.1,0.48z"/><path d="M225.41002,153.415c2.86694,1.44371 4.85703,4.18662 5.34,7.36c0.42,4.19 -2.95,8.63 -7.3,9.53c-5.79,1.2 -11.58,-4.58 -10.37,-10.37c0.78921,-3.22441 3.12708,-5.84701 6.24,-7c2.02641,-0.52716 4.17119,-0.35811 6.09,0.48z"/><path d="M261.38002,153.415c2.86694,1.44371 4.85703,4.18662 5.34,7.36c0.42,4.19 -2.95,8.63 -7.31,9.53c-5.79,1.2 -11.58,-4.58 -10.37,-10.37c0.78921,-3.22441 3.12707,-5.84701 6.24,-7c2.02976,-0.52713 4.17767,-0.35811 6.1,0.48z"/><path d="M297.34002,153.415c2.86694,1.44371 4.85703,4.18662 5.34,7.36c0.42,4.19 -2.95,8.63 -7.31,9.53c-5.78,1.2 -11.57,-4.58 -10.36,-10.37c0.78722,-3.22215 3.12093,-5.84429 6.23,-7c2.02969,-0.52791 4.17786,-0.35887 6.1,0.48z"/><path d="M-26.33998,189.415c2.86842,1.447 4.85846,4.19356 5.34,7.37c0.42,4.18 -2.95,8.62 -7.3,9.52c-5.79,1.21 -11.58,-4.58 -10.37,-10.37c0.79878,-3.21937 3.13317,-5.83809 6.24,-7c2.02642,-0.52716 4.17119,-0.35811 6.09,0.48z"/><path d="M9.63002,189.415c2.86842,1.447 4.85846,4.19356 5.34,7.37c0.42,4.18 -2.95,8.62 -7.31,9.52c-5.79,1.21 -11.58,-4.58 -10.37,-10.37c0.79878,-3.21937 3.13318,-5.83809 6.24,-7c2.02976,-0.52713 4.17767,-0.35811 6.1,0.48z"/><path d="M48.21002,191.385c4.16,4.13 3.51,10.31 -1.49,13.63c-2.83297,2.0404 -6.66194,2.00803 -9.46,-0.08c-3.03152,-1.91432 -4.61048,-5.467 -4,-9c0.78722,-3.22215 3.12093,-5.84429 6.23,-7c3.13612,-0.88486 6.50363,0.06128 8.72,2.45z"/><path d="M84.18002,191.385c4.16,4.13 3.51,10.31 -1.49,13.63c-2.84114,2.0262 -6.66349,1.99391 -9.47,-0.08c-3.02725,-1.91801 -4.60489,-5.4677 -4,-9c0.79878,-3.21937 3.13317,-5.83809 6.24,-7c3.13612,-0.88248 6.50239,0.06332 8.72,2.45z"/><path d="M117.52002,189.385c2.86842,1.447 4.85846,4.19356 5.34,7.37c0.56,5.52 -5.09,10.67 -10.51,9.52c-3.52462,-0.88333 -6.27667,-3.63538 -7.16,-7.16c-0.88,-4.11 1.99,-8.77 6.23,-10.18c2.02643,-0.53657 4.17425,-0.37813 6.1,0.45z"/><path d="M153.48002,189.385c2.86842,1.447 4.85846,4.19356 5.34,7.37c0.56,5.52 -5.08,10.67 -10.51,9.52c-3.52462,-0.88333 -6.27667,-3.63538 -7.16,-7.16c-0.87,-4.11 1.99,-8.77 6.24,-10.18c2.02308,-0.5366 4.16777,-0.37813 6.09,0.45z"/><path d="M189.45002,189.385c2.86842,1.447 4.85846,4.19356 5.34,7.37c0.56,5.52 -5.09,10.67 -10.51,9.52c-3.52622,-0.8841 -6.28098,-3.63502 -7.17,-7.16c-0.87,-4.11 2,-8.77 6.24,-10.18c2.02642,-0.53657 4.17425,-0.37813 6.1,0.45z"/><path d="M225.41002,189.385c2.86842,1.447 4.85846,4.19356 5.34,7.37c0.56,5.52 -5.08,10.67 -10.51,9.52c-3.52462,-0.88333 -6.27667,-3.63538 -7.16,-7.16c-0.87,-4.11 1.99,-8.77 6.24,-10.18c2.02308,-0.5366 4.16776,-0.37813 6.09,0.45z"/><path d="M261.38002,189.415c2.86842,1.447 4.85846,4.19356 5.34,7.37c0.42,4.18 -2.95,8.62 -7.31,9.52c-5.79,1.21 -11.58,-4.58 -10.37,-10.37c0.79878,-3.21937 3.13317,-5.83809 6.24,-7c2.02976,-0.52713 4.17767,-0.35811 6.1,0.48z"/><path d="M297.34002,189.415c2.86842,1.447 4.85846,4.19356 5.34,7.37c0.42,4.18 -2.95,8.62 -7.31,9.52c-5.78,1.21 -11.57,-4.58 -10.36,-10.37c0.78722,-3.22215 3.12093,-5.84429 6.23,-7c2.02969,-0.52791 4.17786,-0.35887 6.1,0.48z"/><path d="M-26.33998,225.415c2.86693,1.44371 4.85703,4.18662 5.34,7.36c0.42,4.19 -2.95,8.63 -7.3,9.53c-5.79,1.2 -11.58,-4.58 -10.37,-10.37c0.78921,-3.22441 3.12707,-5.84701 6.24,-7c2.026,-0.53189 4.17235,-0.36273 6.09,0.48z"/><path d="M9.63002,225.415c2.86694,1.44371 4.85703,4.18662 5.34,7.36c0.42,4.19 -2.95,8.63 -7.31,9.53c-5.79,1.2 -11.58,-4.58 -10.37,-10.37c0.78921,-3.22441 3.12708,-5.84701 6.24,-7c2.02934,-0.53185 4.17882,-0.36271 6.1,0.48z"/><path d="M48.21002,227.395c4.16,4.13 3.51,10.31 -1.49,13.62c-2.83297,2.0404 -6.66194,2.00803 -9.46,-0.08c-3.03366,-1.91248 -4.6133,-5.46666 -4,-9c0.78722,-3.22215 3.12093,-5.84429 6.23,-7c3.13799,-0.89444 6.51213,0.05743 8.72,2.46z"/><path d="M84.18002,227.395c4.16,4.13 3.51,10.31 -1.49,13.62c-2.83509,2.04531 -6.66988,2.01291 -9.47,-0.08c-3.02939,-1.91618 -4.60769,-5.46735 -4,-9c0.78921,-3.22441 3.12707,-5.84701 6.24,-7c3.138,-0.89202 6.51086,0.0595 8.72,2.46z"/><path d="M117.52002,225.385c2.86693,1.44371 4.85703,4.18662 5.34,7.36c0.56,5.53 -5.09,10.68 -10.51,9.53c-3.52385,-0.891 -6.27392,-3.64491 -7.16,-7.17c-0.88,-4.1 1.99,-8.77 6.23,-10.17c2.02591,-0.54208 4.17556,-0.3835 6.1,0.45z"/><path d="M153.48002,225.385c2.86694,1.44371 4.85703,4.18662 5.34,7.36c0.56,5.53 -5.08,10.68 -10.51,9.53c-3.52385,-0.891 -6.27391,-3.64491 -7.16,-7.17c-0.87,-4.1 1.99,-8.77 6.24,-10.17c2.02264,-0.54133 4.16889,-0.38274 6.09,0.45z"/><path d="M189.45002,225.385c2.86694,1.44371 4.85703,4.18662 5.34,7.36c0.56,5.53 -5.09,10.68 -10.51,9.53c-3.52546,-0.89175 -6.27824,-3.64454 -7.17,-7.17c-0.87,-4.1 2,-8.77 6.24,-10.17c2.02598,-0.54128 4.17538,-0.38272 6.1,0.45z"/><path d="M225.41002,225.385c2.86694,1.44371 4.85703,4.18662 5.34,7.36c0.56,5.53 -5.08,10.68 -10.51,9.53c-3.52385,-0.891 -6.27391,-3.64491 -7.16,-7.17c-0.87,-4.1 1.99,-8.77 6.24,-10.17c2.02264,-0.54133 4.16889,-0.38274 6.09,0.45z"/><path d="M261.38002,225.415c2.86694,1.44371 4.85703,4.18662 5.34,7.36c0.42,4.19 -2.95,8.63 -7.31,9.53c-5.79,1.2 -11.58,-4.58 -10.37,-10.37c0.78921,-3.22441 3.12707,-5.84701 6.24,-7c2.02934,-0.53185 4.17882,-0.36271 6.1,0.48z"/><path d="M297.34002,225.415c2.86694,1.44371 4.85703,4.18662 5.34,7.36c0.42,4.19 -2.95,8.63 -7.31,9.53c-5.78,1.2 -11.57,-4.58 -10.36,-10.37c0.78722,-3.22215 3.12093,-5.84429 6.23,-7c2.02927,-0.53263 4.17901,-0.36348 6.1,0.48z"/><path d="M-26.33998,261.325c2.86693,1.44371 4.85703,4.18662 5.34,7.36c0.42,4.19 -2.95,8.63 -7.3,9.53c-5.79,1.21 -11.58,-4.58 -10.37,-10.37c0.79878,-3.21937 3.13317,-5.83808 6.24,-7c2.02642,-0.52716 4.17119,-0.35811 6.09,0.48z"/><path d="M9.63002,261.325c2.86694,1.44371 4.85703,4.18662 5.34,7.36c0.42,4.19 -2.95,8.63 -7.31,9.53c-5.79,1.21 -11.58,-4.58 -10.37,-10.37c0.79878,-3.21937 3.13318,-5.83808 6.24,-7c2.02976,-0.52713 4.17767,-0.35811 6.1,0.48z"/><path d="M48.21002,263.305c4.16,4.13 3.51,10.31 -1.49,13.63c-2.83515,2.03746 -6.66413,2.00103 -9.46,-0.09c-3.03581,-1.91062 -4.61612,-5.4663 -4,-9c0.78722,-3.22215 3.12093,-5.84429 6.23,-7c3.138,-0.88241 6.50583,0.06769 8.72,2.46z"/><path d="M84.18002,263.305c4.16,4.13 3.51,10.31 -1.49,13.63c-2.8433,2.02324 -6.66567,1.98692 -9.47,-0.09c-3.03152,-1.91433 -4.61048,-5.467 -4,-9c0.79878,-3.21937 3.13317,-5.83808 6.24,-7c3.138,-0.88003 6.50459,0.06972 8.72,2.46z"/><path d="M117.52002,261.325c2.86693,1.44371 4.85703,4.18662 5.34,7.36c0.42,4.19 -2.95,8.63 -7.31,9.53c-5.79,1.21 -11.57,-4.58 -10.36,-10.37c0.78723,-3.22215 3.12093,-5.84429 6.23,-7c2.02975,-0.52713 4.17767,-0.35811 6.1,0.48z"/><path d="M153.48002,261.325c2.86694,1.44371 4.85703,4.18662 5.34,7.36c0.42,4.19 -2.95,8.63 -7.3,9.53c-5.79,1.21 -11.58,-4.58 -10.37,-10.37c0.79878,-3.21937 3.13318,-5.83808 6.24,-7c2.02641,-0.52716 4.17119,-0.35811 6.09,0.48z"/><path d="M189.45002,261.325c2.86694,1.44371 4.85703,4.18662 5.34,7.36c0.42,4.19 -2.95,8.63 -7.31,9.53c-5.79,1.21 -11.57,-4.58 -10.37,-10.37c0.79878,-3.21937 3.13318,-5.83808 6.24,-7c2.02975,-0.52713 4.17767,-0.35811 6.1,0.48z"/><path d="M225.41002,261.325c2.86694,1.44371 4.85703,4.18662 5.34,7.36c0.42,4.19 -2.95,8.63 -7.3,9.53c-5.79,1.21 -11.58,-4.58 -10.37,-10.37c0.79878,-3.21937 3.13318,-5.83808 6.24,-7c2.02641,-0.52716 4.17119,-0.35811 6.09,0.48z"/><path d="M261.38002,261.325c2.86694,1.44371 4.85703,4.18662 5.34,7.36c0.42,4.19 -2.95,8.63 -7.31,9.53c-5.79,1.21 -11.58,-4.58 -10.37,-10.37c0.79878,-3.21937 3.13317,-5.83808 6.24,-7c2.02976,-0.52713 4.17767,-0.35811 6.1,0.48z"/><path d="M297.34002,261.325c2.86694,1.44371 4.85703,4.18662 5.34,7.36c0.42,4.19 -2.95,8.63 -7.31,9.53c-5.78,1.21 -11.57,-4.58 -10.36,-10.37c0.78722,-3.22215 3.12093,-5.84429 6.23,-7c2.02969,-0.5279 4.17786,-0.35887 6.1,0.48z"/><path d="M-26.33998,297.295c2.86917,1.44108 4.86022,4.18531 5.34,7.36c0.42,4.19 -2.95,8.62 -7.3,9.52c-5.79,1.21 -11.58,-4.58 -10.37,-10.36c0.78921,-3.22442 3.12707,-5.84701 6.24,-7c2.026,-0.5319 4.17235,-0.36272 6.09,0.48z"/><path d="M9.63002,297.295c2.86917,1.44108 4.86022,4.18531 5.34,7.36c0.42,4.19 -2.95,8.62 -7.31,9.52c-5.79,1.21 -11.58,-4.58 -10.37,-10.36c0.78921,-3.22442 3.12708,-5.84701 6.24,-7c2.02934,-0.53184 4.17882,-0.36271 6.1,0.48z"/><path d="M45.59002,297.295c2.86917,1.44108 4.86022,4.18531 5.34,7.36c0.42,4.19 -2.95,8.62 -7.31,9.52c-5.78,1.21 -11.57,-4.58 -10.36,-10.36c0.78722,-3.22215 3.12093,-5.84429 6.23,-7c2.02927,-0.53264 4.17901,-0.36347 6.1,0.48z"/><path d="M81.56002,297.295c2.86644,1.44223 4.85393,4.18669 5.33,7.36c0.43,4.19 -2.95,8.62 -7.3,9.52c-5.79,1.21 -11.58,-4.58 -10.37,-10.36c0.78921,-3.22442 3.12707,-5.84701 6.24,-7c2.02934,-0.53184 4.17882,-0.36271 6.1,0.48z"/><path d="M117.52002,297.295c2.86917,1.44108 4.86022,4.18531 5.34,7.36c0.42,4.19 -2.95,8.62 -7.31,9.52c-5.79,1.21 -11.57,-4.58 -10.36,-10.36c0.78723,-3.22215 3.12093,-5.84429 6.23,-7c2.02927,-0.53264 4.17901,-0.36347 6.1,0.48z"/><path d="M153.48002,297.295c2.86917,1.44108 4.86022,4.18531 5.34,7.36c0.42,4.19 -2.95,8.62 -7.3,9.52c-5.79,1.21 -11.58,-4.58 -10.37,-10.36c0.78921,-3.22442 3.12708,-5.84701 6.24,-7c2.02599,-0.5319 4.17235,-0.36272 6.09,0.48z"/><path d="M189.45002,297.295c2.86917,1.44108 4.86022,4.18531 5.34,7.36c0.42,4.19 -2.95,8.62 -7.31,9.52c-5.79,1.21 -11.57,-4.58 -10.37,-10.36c0.78921,-3.22442 3.12708,-5.84701 6.24,-7c2.02934,-0.53184 4.17882,-0.36271 6.1,0.48z"/><path d="M225.41002,297.295c2.86917,1.44108 4.86022,4.18531 5.34,7.36c0.42,4.19 -2.95,8.62 -7.3,9.52c-5.79,1.21 -11.58,-4.58 -10.37,-10.36c0.78921,-3.22442 3.12708,-5.84701 6.24,-7c2.02599,-0.5319 4.17235,-0.36272 6.09,0.48z"/><path d="M261.38002,297.295c2.86917,1.44108 4.86022,4.18531 5.34,7.36c0.42,4.19 -2.95,8.62 -7.31,9.52c-5.79,1.21 -11.58,-4.58 -10.37,-10.36c0.78921,-3.22442 3.12707,-5.84701 6.24,-7c2.02934,-0.53184 4.17882,-0.36271 6.1,0.48z"/><path d="M297.34002,297.295c2.86917,1.44108 4.86022,4.18531 5.34,7.36c0.42,4.19 -2.95,8.62 -7.31,9.52c-5.78,1.21 -11.57,-4.58 -10.36,-10.36c0.78722,-3.22215 3.12093,-5.84429 6.23,-7c2.02927,-0.53264 4.17901,-0.36347 6.1,0.48z"/><path d="M-26.33998,334.235c2.86954,1.4457 4.86005,4.1929 5.34,7.37c0.42,4.18 -2.95,8.62 -7.3,9.52c-5.79,1.21 -11.58,-4.58 -10.37,-10.37c0.79878,-3.21937 3.13317,-5.83808 6.24,-7c2.02642,-0.52716 4.17119,-0.35811 6.09,0.48z"/><path d="M9.63002,334.205c2.86954,1.4457 4.86005,4.1929 5.34,7.37c0.56,5.52 -5.09,10.67 -10.54,9.52c-3.51578,-0.89173 -6.2581,-3.64174 -7.14,-7.16c-0.87,-4.11 2,-8.77 6.24,-10.18c2.02643,-0.53657 4.17425,-0.37813 6.1,0.45z"/><path d="M45.59002,334.235c2.86954,1.4457 4.86005,4.1929 5.34,7.37c0.42,4.18 -2.95,8.62 -7.31,9.52c-5.78,1.21 -11.57,-4.58 -10.36,-10.37c0.78722,-3.22215 3.12093,-5.84429 6.23,-7c2.02969,-0.5279 4.17786,-0.35887 6.1,0.48z"/><path d="M81.56002,334.235c2.86793,1.44552 4.85537,4.19364 5.33,7.37c0.43,4.18 -2.95,8.62 -7.3,9.52c-5.79,1.21 -11.58,-4.58 -10.37,-10.37c0.79878,-3.21937 3.13317,-5.83808 6.24,-7c2.02975,-0.52713 4.17767,-0.35811 6.1,0.48z"/><path d="M117.52002,334.235c2.86954,1.4457 4.86006,4.1929 5.34,7.37c0.42,4.18 -2.95,8.62 -7.31,9.52c-5.79,1.21 -11.57,-4.58 -10.36,-10.37c0.78723,-3.22215 3.12093,-5.84429 6.23,-7c2.02975,-0.52713 4.17767,-0.35811 6.1,0.48z"/><path d="M153.48002,334.235c2.86954,1.4457 4.86006,4.1929 5.34,7.37c0.42,4.18 -2.95,8.62 -7.3,9.52c-5.79,1.21 -11.58,-4.58 -10.37,-10.37c0.79878,-3.21937 3.13318,-5.83808 6.24,-7c2.02641,-0.52716 4.17119,-0.35811 6.09,0.48z"/><path d="M189.45002,334.235c2.86954,1.4457 4.86006,4.1929 5.34,7.37c0.42,4.18 -2.95,8.62 -7.31,9.52c-5.79,1.21 -11.57,-4.58 -10.37,-10.37c0.79878,-3.21937 3.13318,-5.83808 6.24,-7c2.02975,-0.52713 4.17767,-0.35811 6.1,0.48z"/><path d="M225.41002,334.235c2.86954,1.4457 4.86006,4.1929 5.34,7.37c0.42,4.18 -2.95,8.62 -7.3,9.52c-5.79,1.21 -11.58,-4.58 -10.37,-10.37c0.79878,-3.21937 3.13318,-5.83808 6.24,-7c2.02641,-0.52716 4.17119,-0.35811 6.09,0.48z"/><path d="M264.00002,336.205c4.16,4.13 3.51,10.31 -1.49,13.63c-2.84312,2.01992 -6.66141,1.98766 -9.47,-0.08c-3.02725,-1.91801 -4.60489,-5.4677 -4,-9c0.79878,-3.21937 3.13317,-5.83808 6.24,-7c3.13612,-0.88248 6.5024,0.06332 8.72,2.45z"/><path d="M299.96002,336.205c4.16,4.13 3.51,10.31 -1.49,13.63c-2.839,2.02136 -6.65559,1.98908 -9.46,-0.08c-3.03152,-1.91433 -4.61048,-5.467 -4,-9c0.78722,-3.22215 3.12093,-5.84429 6.23,-7c3.13612,-0.88486 6.50363,0.06128 8.72,2.45z"/><path d="M-26.33998,370.205c2.86917,1.44108 4.86022,4.18531 5.34,7.36c0.42,4.19 -2.95,8.63 -7.3,9.52c-5.79,1.21 -11.58,-4.58 -10.37,-10.36c0.78921,-3.22442 3.12707,-5.84701 6.24,-7c2.026,-0.5319 4.17235,-0.36273 6.09,0.48z"/><path d="M9.63002,370.175c2.86917,1.44108 4.86022,4.18531 5.34,7.36c0.56,5.52 -5.09,10.68 -10.54,9.52c-3.51578,-0.89173 -6.2581,-3.64174 -7.14,-7.16c-0.87,-4.1 2,-8.77 6.24,-10.17c2.02599,-0.54129 4.17538,-0.38272 6.1,0.45z"/><path d="M45.59002,370.205c2.86917,1.44108 4.86022,4.18531 5.34,7.36c0.42,4.19 -2.95,8.63 -7.31,9.52c-5.78,1.21 -11.57,-4.58 -10.36,-10.36c0.78722,-3.22215 3.12093,-5.84429 6.23,-7c2.02927,-0.53264 4.17901,-0.36348 6.1,0.48z"/><path d="M81.56002,370.205c2.86644,1.44223 4.85393,4.18669 5.33,7.36c0.43,4.19 -2.95,8.63 -7.3,9.52c-5.79,1.21 -11.58,-4.58 -10.37,-10.36c0.78921,-3.22442 3.12707,-5.84701 6.24,-7c2.02934,-0.53184 4.17882,-0.36271 6.1,0.48z"/><path d="M117.52002,370.205c2.86917,1.44108 4.86022,4.18531 5.34,7.36c0.42,4.19 -2.95,8.63 -7.31,9.52c-5.79,1.21 -11.57,-4.58 -10.36,-10.36c0.78723,-3.22215 3.12093,-5.84429 6.23,-7c2.02927,-0.53264 4.17901,-0.36348 6.1,0.48z"/><path d="M153.48002,370.205c2.86917,1.44108 4.86022,4.18531 5.34,7.36c0.42,4.19 -2.95,8.63 -7.3,9.52c-5.79,1.21 -11.58,-4.58 -10.37,-10.36c0.78921,-3.22442 3.12708,-5.84701 6.24,-7c2.02599,-0.5319 4.17235,-0.36273 6.09,0.48z"/><path d="M189.45002,370.205c2.86917,1.44108 4.86022,4.18531 5.34,7.36c0.42,4.19 -2.95,8.63 -7.31,9.52c-5.79,1.21 -11.57,-4.58 -10.37,-10.36c0.78921,-3.22442 3.12708,-5.84701 6.24,-7c2.02934,-0.53184 4.17882,-0.36271 6.1,0.48z"/><path d="M225.41002,370.205c2.86917,1.44108 4.86022,4.18531 5.34,7.36c0.42,4.19 -2.95,8.63 -7.3,9.52c-5.79,1.21 -11.58,-4.58 -10.37,-10.36c0.78921,-3.22442 3.12708,-5.84701 6.24,-7c2.02599,-0.5319 4.17235,-0.36273 6.09,0.48z"/><path d="M264.00002,372.185c4.16,4.13 3.51,10.31 -1.49,13.62c-2.83508,2.0453 -6.66987,2.01291 -9.47,-0.08c-3.02938,-1.91618 -4.60769,-5.46735 -4,-9c0.78921,-3.22442 3.12707,-5.84701 6.24,-7c3.13799,-0.89202 6.51086,0.0595 8.72,2.46z"/><path d="M299.96002,372.185c4.16,4.13 3.51,10.31 -1.49,13.62c-2.83297,2.04041 -6.66194,2.00803 -9.46,-0.08c-3.03366,-1.91247 -4.6133,-5.46666 -4,-9c0.78722,-3.22215 3.12093,-5.84429 6.23,-7c3.13799,-0.89444 6.51213,0.05743 8.72,2.46z"/><path d="M333.63002,-26.415c2.86694,1.44372 4.85703,4.18662 5.34,7.36c0.56,5.53 -5.09,10.68 -10.54,9.53c-3.51502,-0.89937 -6.25538,-3.65124 -7.14,-7.17c-0.87,-4.1 2,-8.77 6.24,-10.17c2.02598,-0.54128 4.17538,-0.38272 6.1,0.45z"/><path d="M369.59002,-26.415c2.86694,1.44372 4.85703,4.18662 5.34,7.36c0.42,4.19 -2.95,8.63 -7.31,9.53c-5.78,1.2 -11.54,-4.54 -10.36,-10.34c0.78722,-3.22216 3.12093,-5.84429 6.23,-7c2.02591,-0.54208 4.17556,-0.38349 6.1,0.45z"/><path d="M405.56002,-26.385c2.86532,1.44355 4.85233,4.18735 5.33,7.36c0.43,4.19 -2.95,8.63 -7.3,9.53c-5.79,1.2 -11.58,-4.58 -10.37,-10.37c0.78921,-3.22442 3.12707,-5.84701 6.24,-7c2.02934,-0.53185 4.17882,-0.36271 6.1,0.48z"/><path d="M441.52002,-26.385c2.86694,1.44372 4.85703,4.18662 5.34,7.36c0.42,4.19 -2.95,8.63 -7.31,9.53c-5.79,1.2 -11.57,-4.58 -10.36,-10.37c0.78722,-3.22216 3.12092,-5.84429 6.23,-7c2.02927,-0.53263 4.17902,-0.36348 6.1,0.48z"/><path d="M477.48002,-26.385c2.86694,1.44372 4.85703,4.18662 5.34,7.36c0.42,4.19 -2.95,8.63 -7.3,9.53c-5.79,1.2 -11.58,-4.58 -10.37,-10.37c0.78921,-3.22442 3.12707,-5.84701 6.24,-7c2.026,-0.53189 4.17235,-0.36273 6.09,0.48z"/><path d="M513.45002,-26.385c2.86694,1.44372 4.85703,4.18662 5.34,7.36c0.42,4.19 -2.95,8.63 -7.31,9.53c-5.79,1.2 -11.57,-4.58 -10.37,-10.37c0.78921,-3.22442 3.12707,-5.84701 6.24,-7c2.02934,-0.53185 4.17882,-0.36271 6.1,0.48z"/><path d="M333.63002,9.545c2.86694,1.44371 4.85703,4.18662 5.34,7.36c0.56,5.53 -5.09,10.68 -10.54,9.53c-3.5184,-0.89344 -6.26132,-3.64788 -7.14,-7.17c-0.87,-4.1 2,-8.76 6.24,-10.17c2.02643,-0.53657 4.17425,-0.37813 6.1,0.45z"/><path d="M369.59002,9.545c2.86694,1.44371 4.85703,4.18662 5.34,7.36c0.42,4.19 -2.95,8.63 -7.31,9.53c-5.78,1.21 -11.54,-4.58 -10.36,-10.34c0.78722,-3.22216 3.12093,-5.84429 6.23,-7c2.02635,-0.53735 4.17443,-0.37889 6.1,0.45z"/><path d="M405.56002,9.575c2.86532,1.44355 4.85233,4.18735 5.33,7.36c0.43,4.19 -2.95,8.63 -7.3,9.53c-5.79,1.21 -11.58,-4.58 -10.37,-10.37c0.79878,-3.21937 3.13317,-5.83808 6.24,-7c2.02976,-0.52712 4.17767,-0.35811 6.1,0.48z"/><path d="M441.52002,9.575c2.86694,1.44372 4.85703,4.18662 5.34,7.36c0.42,4.19 -2.95,8.63 -7.31,9.53c-5.79,1.21 -11.57,-4.58 -10.36,-10.37c0.78722,-3.22216 3.12092,-5.84429 6.23,-7c2.02976,-0.52712 4.17767,-0.35811 6.1,0.48z"/><path d="M477.48002,9.575c2.86694,1.44372 4.85703,4.18662 5.34,7.36c0.42,4.19 -2.95,8.63 -7.3,9.53c-5.79,1.21 -11.58,-4.58 -10.37,-10.37c0.79878,-3.21937 3.13317,-5.83808 6.24,-7c2.02641,-0.52716 4.17119,-0.35811 6.09,0.48z"/><path d="M513.45002,9.575c2.86694,1.44372 4.85703,4.18662 5.34,7.36c0.42,4.19 -2.95,8.63 -7.31,9.53c-5.79,1.21 -11.57,-4.58 -10.37,-10.37c0.79878,-3.21937 3.13317,-5.83808 6.24,-7c2.02976,-0.52712 4.17767,-0.35811 6.1,0.48z"/><path d="M333.63002,45.545c2.86917,1.44109 4.86022,4.18531 5.34,7.36c0.42,4.19 -2.95,8.62 -7.31,9.52c-5.79,1.21 -11.58,-4.58 -10.37,-10.36c0.78921,-3.22442 3.12707,-5.84701 6.24,-7c2.02934,-0.53184 4.17882,-0.3627 6.1,0.48z"/><path d="M369.59002,45.545c2.86917,1.44109 4.86022,4.18531 5.34,7.36c0.42,4.19 -2.95,8.62 -7.31,9.52c-5.78,1.21 -11.57,-4.58 -10.36,-10.36c0.78722,-3.22216 3.12093,-5.84429 6.23,-7c2.02927,-0.53263 4.17901,-0.36347 6.1,0.48z"/><path d="M405.56002,45.545c2.86644,1.44223 4.85393,4.1867 5.33,7.36c0.43,4.19 -2.95,8.62 -7.3,9.52c-5.79,1.21 -11.58,-4.58 -10.37,-10.36c0.78921,-3.22442 3.12707,-5.84701 6.24,-7c2.02934,-0.53184 4.17882,-0.3627 6.1,0.48z"/><path d="M441.52002,45.545c2.86917,1.44109 4.86022,4.18531 5.34,7.36c0.42,4.19 -2.95,8.62 -7.31,9.52c-5.79,1.21 -11.57,-4.58 -10.36,-10.36c0.78722,-3.22216 3.12092,-5.84429 6.23,-7c2.02927,-0.53263 4.17902,-0.36347 6.1,0.48z"/><path d="M477.48002,45.545c2.86917,1.44109 4.86022,4.18531 5.34,7.36c0.42,4.19 -2.95,8.62 -7.3,9.52c-5.79,1.21 -11.58,-4.58 -10.37,-10.36c0.78921,-3.22442 3.12707,-5.84701 6.24,-7c2.026,-0.53189 4.17235,-0.36272 6.09,0.48z"/><path d="M513.45002,45.545c2.86917,1.44109 4.86022,4.18531 5.34,7.36c0.42,4.19 -2.95,8.62 -7.31,9.52c-5.79,1.21 -11.57,-4.58 -10.37,-10.36c0.78921,-3.22442 3.12707,-5.84701 6.24,-7c2.02934,-0.53184 4.17882,-0.3627 6.1,0.48z"/><path d="M333.63002,81.505c2.86694,1.44371 4.85703,4.18662 5.34,7.36c0.42,4.19 -2.95,8.63 -7.31,9.53c-5.79,1.21 -11.58,-4.58 -10.37,-10.37c0.78921,-3.22441 3.12707,-5.84701 6.24,-7c2.02976,-0.52712 4.17767,-0.35811 6.1,0.48z"/><path d="M369.59002,81.505c2.86694,1.44371 4.85703,4.18662 5.34,7.36c0.42,4.19 -2.95,8.63 -7.31,9.53c-5.78,1.21 -11.57,-4.58 -10.36,-10.37c0.78722,-3.22216 3.12093,-5.84429 6.23,-7c2.02969,-0.52791 4.17786,-0.35887 6.1,0.48z"/><path d="M405.56002,81.505c2.86532,1.44355 4.85233,4.18735 5.33,7.36c0.43,4.19 -2.95,8.63 -7.3,9.53c-5.79,1.21 -11.58,-4.58 -10.37,-10.37c0.78921,-3.22441 3.12707,-5.84701 6.24,-7c2.02976,-0.52712 4.17767,-0.35811 6.1,0.48z"/><path d="M441.52002,81.505c2.86694,1.44371 4.85703,4.18662 5.34,7.36c0.42,4.19 -2.95,8.63 -7.31,9.53c-5.79,1.21 -11.57,-4.58 -10.36,-10.37c0.78722,-3.22216 3.12092,-5.84429 6.23,-7c2.02976,-0.52712 4.17767,-0.35811 6.1,0.48z"/><path d="M477.48002,81.505c2.86694,1.44371 4.85703,4.18662 5.34,7.36c0.42,4.19 -2.95,8.63 -7.3,9.53c-5.79,1.21 -11.58,-4.58 -10.37,-10.37c0.78921,-3.22441 3.12707,-5.84701 6.24,-7c2.02641,-0.52716 4.17119,-0.35811 6.09,0.48z"/><path d="M513.45002,81.505c2.86694,1.44371 4.85703,4.18662 5.34,7.36c0.42,4.19 -2.95,8.63 -7.31,9.53c-5.79,1.21 -11.57,-4.58 -10.37,-10.37c0.78921,-3.22441 3.12707,-5.84701 6.24,-7c2.02976,-0.52712 4.17767,-0.35811 6.1,0.48z"/><path d="M333.63002,117.485c2.86917,1.44109 4.86022,4.18531 5.34,7.36c0.42,4.18 -2.95,8.62 -7.31,9.52c-5.79,1.21 -11.58,-4.58 -10.37,-10.37c0.78921,-3.22441 3.12707,-5.84701 6.24,-7c2.03003,-0.53349 4.18116,-0.3607 6.1,0.49z"/><path d="M369.59002,117.485c2.86917,1.44109 4.86022,4.18531 5.34,7.36c0.42,4.18 -2.95,8.62 -7.31,9.52c-5.78,1.21 -11.57,-4.58 -10.36,-10.37c0.78722,-3.22216 3.12093,-5.84429 6.23,-7c2.02997,-0.5343 4.18135,-0.36147 6.1,0.49z"/><path d="M405.56002,117.485c2.86644,1.44223 4.85393,4.1867 5.33,7.36c0.43,4.18 -2.95,8.62 -7.3,9.52c-5.79,1.21 -11.58,-4.58 -10.37,-10.37c0.78921,-3.22441 3.12707,-5.84701 6.24,-7c2.03003,-0.53349 4.18116,-0.3607 6.1,0.49z"/><path d="M441.52002,117.485c2.86917,1.44109 4.86022,4.18531 5.34,7.36c0.42,4.18 -2.95,8.62 -7.31,9.52c-5.79,1.21 -11.57,-4.58 -10.36,-10.37c0.78722,-3.22216 3.12092,-5.84429 6.23,-7c2.02997,-0.5343 4.18135,-0.36147 6.1,0.49z"/><path d="M477.48002,117.485c2.86917,1.44109 4.86022,4.18531 5.34,7.36c0.42,4.18 -2.95,8.62 -7.3,9.52c-5.79,1.21 -11.58,-4.58 -10.37,-10.37c0.78921,-3.22441 3.12707,-5.84701 6.24,-7c2.02662,-0.53436 4.17488,-0.36152 6.09,0.49z"/><path d="M513.42002,117.425c2.86917,1.44109 4.86022,4.18531 5.34,7.36c0.42,4.18 -2.95,8.62 -7.31,9.52c-5.79,1.21 -11.57,-4.58 -10.37,-10.37c0.81274,-3.20839 3.1603,-5.80681 6.27,-6.94c2.01392,-0.54535 4.15307,-0.39382 6.07,0.43z"/><path d="M333.63002,153.415c2.86694,1.44371 4.85703,4.18662 5.34,7.36c0.42,4.19 -2.95,8.63 -7.31,9.53c-5.79,1.2 -11.58,-4.58 -10.37,-10.37c0.78921,-3.22441 3.12707,-5.84701 6.24,-7c2.02976,-0.52713 4.17767,-0.35811 6.1,0.48z"/><path d="M369.59002,153.415c2.86694,1.44371 4.85703,4.18662 5.34,7.36c0.42,4.19 -2.95,8.63 -7.31,9.53c-5.78,1.2 -11.57,-4.58 -10.36,-10.37c0.78722,-3.22215 3.12093,-5.84429 6.23,-7c2.02969,-0.52791 4.17786,-0.35887 6.1,0.48z"/><path d="M405.56002,153.415c2.86532,1.44355 4.85233,4.18735 5.33,7.36c0.43,4.19 -2.95,8.63 -7.3,9.53c-5.79,1.2 -11.58,-4.58 -10.37,-10.37c0.78921,-3.22441 3.12707,-5.84701 6.24,-7c2.02976,-0.52713 4.17767,-0.35811 6.1,0.48z"/><path d="M441.52002,153.415c2.86694,1.44371 4.85703,4.18662 5.34,7.36c0.42,4.19 -2.95,8.63 -7.31,9.53c-5.79,1.2 -11.57,-4.58 -10.36,-10.37c0.78722,-3.22215 3.12092,-5.84429 6.23,-7c2.02976,-0.52713 4.17767,-0.35811 6.1,0.48z"/><path d="M477.48002,153.415c2.86694,1.44371 4.85703,4.18662 5.34,7.36c0.42,4.19 -2.95,8.63 -7.3,9.53c-5.79,1.2 -11.58,-4.58 -10.37,-10.37c0.78921,-3.22441 3.12707,-5.84701 6.24,-7c2.02641,-0.52716 4.17119,-0.35811 6.09,0.48z"/><path d="M513.45002,153.415c2.86694,1.44371 4.85703,4.18662 5.34,7.36c0.42,4.19 -2.95,8.63 -7.31,9.53c-5.79,1.2 -11.57,-4.58 -10.37,-10.37c0.78921,-3.22441 3.12707,-5.84701 6.24,-7c2.02976,-0.52713 4.17767,-0.35811 6.1,0.48z"/><path d="M333.63002,189.415c2.86842,1.447 4.85846,4.19356 5.34,7.37c0.42,4.18 -2.95,8.62 -7.31,9.52c-5.79,1.21 -11.58,-4.58 -10.37,-10.37c0.79878,-3.21937 3.13317,-5.83809 6.24,-7c2.02976,-0.52713 4.17767,-0.35811 6.1,0.48z"/><path d="M372.21002,191.385c4.16,4.13 3.51,10.31 -1.49,13.63c-2.83297,2.0404 -6.66194,2.00803 -9.46,-0.08c-3.03152,-1.91432 -4.61048,-5.467 -4,-9c0.78722,-3.22215 3.12093,-5.84429 6.23,-7c3.13612,-0.88486 6.50363,0.06128 8.72,2.45z"/><path d="M408.18002,191.385c4.16,4.13 3.51,10.31 -1.49,13.63c-2.84114,2.0262 -6.6635,1.99391 -9.47,-0.08c-3.02726,-1.91801 -4.60489,-5.4677 -4,-9c0.79878,-3.21937 3.13317,-5.83809 6.24,-7c3.13612,-0.88248 6.5024,0.06332 8.72,2.45z"/><path d="M441.52002,189.385c2.86842,1.447 4.85846,4.19356 5.34,7.37c0.56,5.52 -5.09,10.67 -10.51,9.52c-3.52462,-0.88333 -6.27667,-3.63538 -7.16,-7.16c-0.88,-4.11 1.99,-8.77 6.23,-10.18c2.02643,-0.53657 4.17425,-0.37813 6.1,0.45z"/><path d="M477.48002,189.385c2.86842,1.447 4.85846,4.19356 5.34,7.37c0.56,5.52 -5.08,10.67 -10.51,9.52c-3.52462,-0.88333 -6.27668,-3.63538 -7.16,-7.16c-0.87,-4.11 1.99,-8.77 6.24,-10.18c2.02308,-0.5366 4.16776,-0.37813 6.09,0.45z"/><path d="M513.45002,189.385c2.86842,1.447 4.85846,4.19356 5.34,7.37c0.56,5.52 -5.09,10.67 -10.51,9.52c-3.52622,-0.8841 -6.28099,-3.63502 -7.17,-7.16c-0.87,-4.11 2,-8.77 6.24,-10.18c2.02643,-0.53657 4.17425,-0.37813 6.1,0.45z"/><path d="M333.63002,225.415c2.86694,1.44371 4.85703,4.18662 5.34,7.36c0.42,4.19 -2.95,8.63 -7.31,9.53c-5.79,1.2 -11.58,-4.58 -10.37,-10.37c0.78921,-3.22441 3.12707,-5.84701 6.24,-7c2.02934,-0.53185 4.17882,-0.36271 6.1,0.48z"/><path d="M372.21002,227.395c4.16,4.13 3.51,10.31 -1.49,13.62c-2.83297,2.0404 -6.66194,2.00803 -9.46,-0.08c-3.03366,-1.91248 -4.6133,-5.46666 -4,-9c0.78722,-3.22215 3.12093,-5.84429 6.23,-7c3.13799,-0.89444 6.51213,0.05743 8.72,2.46z"/><path d="M408.18002,227.395c4.16,4.13 3.51,10.31 -1.49,13.62c-2.83508,2.04531 -6.66988,2.01291 -9.47,-0.08c-3.02938,-1.91618 -4.60769,-5.46735 -4,-9c0.78921,-3.22441 3.12707,-5.84701 6.24,-7c3.13799,-0.89202 6.51086,0.0595 8.72,2.46z"/><path d="M441.52002,225.385c2.86694,1.44371 4.85703,4.18662 5.34,7.36c0.56,5.53 -5.09,10.68 -10.51,9.53c-3.52386,-0.891 -6.27391,-3.64491 -7.16,-7.17c-0.88,-4.1 1.99,-8.77 6.23,-10.17c2.02591,-0.54208 4.17557,-0.3835 6.1,0.45z"/><path d="M477.48002,225.385c2.86694,1.44371 4.85703,4.18662 5.34,7.36c0.56,5.53 -5.08,10.68 -10.51,9.53c-3.52386,-0.891 -6.27392,-3.64491 -7.16,-7.17c-0.87,-4.1 1.99,-8.77 6.24,-10.17c2.02263,-0.54133 4.16889,-0.38274 6.09,0.45z"/><path d="M513.45002,225.385c2.86694,1.44371 4.85703,4.18662 5.34,7.36c0.56,5.53 -5.09,10.68 -10.51,9.53c-3.52546,-0.89175 -6.27825,-3.64454 -7.17,-7.17c-0.87,-4.1 2,-8.77 6.24,-10.17c2.02598,-0.54128 4.17538,-0.38272 6.1,0.45z"/><path d="M333.63002,261.325c2.86694,1.44371 4.85703,4.18662 5.34,7.36c0.42,4.19 -2.95,8.63 -7.31,9.53c-5.79,1.21 -11.58,-4.58 -10.37,-10.37c0.79878,-3.21937 3.13317,-5.83808 6.24,-7c2.02976,-0.52713 4.17767,-0.35811 6.1,0.48z"/><path d="M372.21002,263.305c4.16,4.13 3.51,10.31 -1.49,13.63c-2.83515,2.03746 -6.66413,2.00103 -9.46,-0.09c-3.03581,-1.91062 -4.61611,-5.4663 -4,-9c0.78722,-3.22215 3.12093,-5.84429 6.23,-7c3.13799,-0.88241 6.50583,0.06769 8.72,2.46z"/><path d="M408.18002,263.305c4.16,4.13 3.51,10.31 -1.49,13.63c-2.8433,2.02324 -6.66567,1.98692 -9.47,-0.09c-3.03152,-1.91433 -4.61048,-5.467 -4,-9c0.79878,-3.21937 3.13317,-5.83808 6.24,-7c3.13799,-0.88003 6.5046,0.06972 8.72,2.46z"/><path d="M441.52002,261.325c2.86694,1.44371 4.85703,4.18662 5.34,7.36c0.42,4.19 -2.95,8.63 -7.31,9.53c-5.79,1.21 -11.57,-4.58 -10.36,-10.37c0.78722,-3.22215 3.12092,-5.84429 6.23,-7c2.02976,-0.52713 4.17767,-0.35811 6.1,0.48z"/><path d="M477.48002,261.325c2.86694,1.44371 4.85703,4.18662 5.34,7.36c0.42,4.19 -2.95,8.63 -7.3,9.53c-5.79,1.21 -11.58,-4.58 -10.37,-10.37c0.79878,-3.21937 3.13317,-5.83808 6.24,-7c2.02641,-0.52716 4.17119,-0.35811 6.09,0.48z"/><path d="M513.45002,261.325c2.86694,1.44371 4.85703,4.18662 5.34,7.36c0.42,4.19 -2.95,8.63 -7.31,9.53c-5.79,1.21 -11.57,-4.58 -10.37,-10.37c0.79878,-3.21937 3.13317,-5.83808 6.24,-7c2.02976,-0.52713 4.17767,-0.35811 6.1,0.48z"/><path d="M333.63002,297.295c2.86917,1.44108 4.86022,4.18531 5.34,7.36c0.42,4.19 -2.95,8.62 -7.31,9.52c-5.79,1.21 -11.58,-4.58 -10.37,-10.36c0.78921,-3.22442 3.12707,-5.84701 6.24,-7c2.02934,-0.53184 4.17882,-0.36271 6.1,0.48z"/><path d="M369.59002,297.295c2.86917,1.44108 4.86022,4.18531 5.34,7.36c0.42,4.19 -2.95,8.62 -7.31,9.52c-5.78,1.21 -11.57,-4.58 -10.36,-10.36c0.78722,-3.22215 3.12093,-5.84429 6.23,-7c2.02927,-0.53264 4.17901,-0.36347 6.1,0.48z"/><path d="M405.56002,297.295c2.86644,1.44223 4.85393,4.18669 5.33,7.36c0.43,4.19 -2.95,8.62 -7.3,9.52c-5.79,1.21 -11.58,-4.58 -10.37,-10.36c0.78921,-3.22442 3.12707,-5.84701 6.24,-7c2.02934,-0.53184 4.17882,-0.36271 6.1,0.48z"/><path d="M441.52002,297.295c2.86917,1.44108 4.86022,4.18531 5.34,7.36c0.42,4.19 -2.95,8.62 -7.31,9.52c-5.79,1.21 -11.57,-4.58 -10.36,-10.36c0.78722,-3.22215 3.12092,-5.84429 6.23,-7c2.02927,-0.53264 4.17902,-0.36347 6.1,0.48z"/><path d="M477.48002,297.295c2.86917,1.44108 4.86022,4.18531 5.34,7.36c0.42,4.19 -2.95,8.62 -7.3,9.52c-5.79,1.21 -11.58,-4.58 -10.37,-10.36c0.78921,-3.22442 3.12707,-5.84701 6.24,-7c2.026,-0.5319 4.17235,-0.36272 6.09,0.48z"/><path d="M513.45002,297.295c2.86917,1.44108 4.86022,4.18531 5.34,7.36c0.42,4.19 -2.95,8.62 -7.31,9.52c-5.79,1.21 -11.57,-4.58 -10.37,-10.36c0.78921,-3.22442 3.12707,-5.84701 6.24,-7c2.02934,-0.53184 4.17882,-0.36271 6.1,0.48z"/><path d="M333.63002,334.205c2.86954,1.4457 4.86005,4.1929 5.34,7.37c0.56,5.52 -5.09,10.67 -10.54,9.52c-3.51578,-0.89173 -6.25811,-3.64174 -7.14,-7.16c-0.87,-4.11 2,-8.77 6.24,-10.18c2.02643,-0.53657 4.17425,-0.37813 6.1,0.45z"/><path d="M369.59002,334.235c2.86954,1.4457 4.86006,4.1929 5.34,7.37c0.42,4.18 -2.95,8.62 -7.31,9.52c-5.78,1.21 -11.57,-4.58 -10.36,-10.37c0.78722,-3.22215 3.12093,-5.84429 6.23,-7c2.02969,-0.5279 4.17786,-0.35887 6.1,0.48z"/><path d="M405.56002,334.235c2.86793,1.44552 4.85537,4.19364 5.33,7.37c0.43,4.18 -2.95,8.62 -7.3,9.52c-5.79,1.21 -11.58,-4.58 -10.37,-10.37c0.79878,-3.21937 3.13317,-5.83808 6.24,-7c2.02976,-0.52713 4.17767,-0.35811 6.1,0.48z"/><path d="M441.52002,334.235c2.86954,1.4457 4.86005,4.1929 5.34,7.37c0.42,4.18 -2.95,8.62 -7.31,9.52c-5.79,1.21 -11.57,-4.58 -10.36,-10.37c0.78722,-3.22215 3.12092,-5.84429 6.23,-7c2.02976,-0.52713 4.17767,-0.35811 6.1,0.48z"/><path d="M477.48002,334.235c2.86954,1.4457 4.86006,4.1929 5.34,7.37c0.42,4.18 -2.95,8.62 -7.3,9.52c-5.79,1.21 -11.58,-4.58 -10.37,-10.37c0.79878,-3.21937 3.13317,-5.83808 6.24,-7c2.02641,-0.52716 4.17119,-0.35811 6.09,0.48z"/><path d="M513.45002,334.235c2.86954,1.4457 4.86005,4.1929 5.34,7.37c0.42,4.18 -2.95,8.62 -7.31,9.52c-5.79,1.21 -11.57,-4.58 -10.37,-10.37c0.79878,-3.21937 3.13317,-5.83808 6.24,-7c2.02976,-0.52713 4.17767,-0.35811 6.1,0.48z"/><path d="M333.63002,370.175c2.86917,1.44108 4.86022,4.18531 5.34,7.36c0.56,5.52 -5.09,10.68 -10.54,9.52c-3.51578,-0.89173 -6.25811,-3.64174 -7.14,-7.16c-0.87,-4.1 2,-8.77 6.24,-10.17c2.02598,-0.54129 4.17538,-0.38272 6.1,0.45z"/><path d="M369.59002,370.205c2.86917,1.44108 4.86022,4.18531 5.34,7.36c0.42,4.19 -2.95,8.63 -7.31,9.52c-5.78,1.21 -11.57,-4.58 -10.36,-10.36c0.78722,-3.22215 3.12093,-5.84429 6.23,-7c2.02927,-0.53264 4.17901,-0.36348 6.1,0.48z"/><path d="M405.56002,370.205c2.86644,1.44223 4.85393,4.18669 5.33,7.36c0.43,4.19 -2.95,8.63 -7.3,9.52c-5.79,1.21 -11.58,-4.58 -10.37,-10.36c0.78921,-3.22442 3.12707,-5.84701 6.24,-7c2.02934,-0.53184 4.17882,-0.36271 6.1,0.48z"/><path d="M441.52002,370.205c2.86917,1.44108 4.86022,4.18531 5.34,7.36c0.42,4.19 -2.95,8.63 -7.31,9.52c-5.79,1.21 -11.57,-4.58 -10.36,-10.36c0.78722,-3.22215 3.12092,-5.84429 6.23,-7c2.02927,-0.53264 4.17902,-0.36348 6.1,0.48z"/><path d="M477.48002,370.205c2.86917,1.44108 4.86022,4.18531 5.34,7.36c0.42,4.19 -2.95,8.63 -7.3,9.52c-5.79,1.21 -11.58,-4.58 -10.37,-10.36c0.78921,-3.22442 3.12707,-5.84701 6.24,-7c2.026,-0.5319 4.17235,-0.36273 6.09,0.48z"/><path d="M513.45002,370.205c2.86917,1.44108 4.86022,4.18531 5.34,7.36c0.42,4.19 -2.95,8.63 -7.31,9.52c-5.79,1.21 -11.57,-4.58 -10.37,-10.36c0.78921,-3.22442 3.12707,-5.84701 6.24,-7c2.02934,-0.53184 4.17882,-0.36271 6.1,0.48z"/></g></g></svg>