<svg version="1.1" xmlns="http://www.w3.org/2000/svg" xmlns:xlink="http://www.w3.org/1999/xlink" width="21.03614" height="20.29492" viewBox="0,0,21.03614,20.29492"><g transform="translate(-229.31393,-157.98175)"><g data-paper-data="{&quot;isPaintingLayer&quot;:true}" fill-rule="nonzero" stroke="none" stroke-width="1" stroke-linecap="butt" stroke-linejoin="miter" stroke-miterlimit="10" stroke-dasharray="" stroke-dashoffset="0" style="mix-blend-mode: normal"><path d="M248.68,161.11175l-1.11,-0.95l-3.57,1.94v0c-0.05796,0.02566 -0.11823,0.04575 -0.18,0.06h-0.2v0l-2.62,0.15v5.31l3.25,-0.06v0c0.09276,-0.01461 0.18724,-0.01461 0.28,0l3.78,1.1c0.53019,0.15464 0.83464,0.70981 0.68,1.24c-0.15464,0.53019 -0.70981,0.83464 -1.24,0.68l-3.65,-1.02l-3.1,0.06v0.66c1.98436,0.5043 3.28272,2.40722 3.02861,4.43882c-0.25411,2.0316 -1.98118,3.5561 -4.02861,3.5561c-2.04743,0 -3.7745,-1.5245 -4.02861,-3.5561c-0.25411,-2.0316 1.04426,-3.93453 3.02861,-4.43882v-0.68h-3.15l-3.4,1.2c-0.52191,0.18225 -1.09275,-0.09309 -1.275,-0.615c-0.18225,-0.52191 0.09309,-1.09275 0.615,-1.275l3.56,-1.26c0.10642,-0.03504 0.21798,-0.05194 0.33,-0.05h3.32v-5.21h-2.77v0h-0.17c-0.07127,-0.01077 -0.14152,-0.0275 -0.21,-0.05v0l-3.71,-1.74l-1.14,0.89c-0.40317,0.37832 -1.03668,0.35817 -1.415,-0.045c-0.37832,-0.40317 -0.35817,-1.03668 0.045,-1.415l1.49,-1.39l0.09,-0.09v0c0.07616,-0.07131 0.16413,-0.12883 0.26,-0.17h0.1h0.1c0.07297,-0.01039 0.14703,-0.01039 0.22,0c0.17794,0.00785 0.35056,0.06309 0.5,0.16l4,1.89l3.43,-0.04c0.04989,-0.0047 0.10011,-0.0047 0.15,0v0l3.24,-0.11l3.89,-2.11c0.09763,-0.06508 0.20595,-0.11247 0.32,-0.14v0c0.06053,-0.02591 0.12455,-0.04276 0.19,-0.05c0.09153,0.00694 0.18205,0.0237 0.27,0.05v0h0.11c0.08216,0.03698 0.15941,0.08401 0.23,0.14v0v0l0.06,0.05l1.72,1.37c0.41974,0.35899 0.46899,0.99026 0.11,1.41c-0.35899,0.41974 -0.99026,0.46899 -1.41,0.11z" data-paper-data="{&quot;index&quot;:null}" fill="#ffee00"/><path d="M248.68,161.11175l-1.11,-0.95l-3.57,1.94v0c-0.05796,0.02566 -0.11823,0.04575 -0.18,0.06h-0.2v0l-2.62,0.15v5.31l3.25,-0.06v0c0.09276,-0.01461 0.18724,-0.01461 0.28,0l3.78,1.1c0.53019,0.15464 0.83464,0.70981 0.68,1.24c-0.15464,0.53019 -0.70981,0.83464 -1.24,0.68l-3.65,-1.02l-3.1,0.06v0.66c1.98436,0.5043 3.28272,2.40722 3.02861,4.43882c-0.25411,2.0316 -1.98118,3.5561 -4.02861,3.5561c-2.04743,0 -3.7745,-1.5245 -4.02861,-3.5561c-0.25411,-2.0316 1.04426,-3.93453 3.02861,-4.43882v-0.68h-3.15l-3.4,1.2c-0.52191,0.18225 -1.09275,-0.09309 -1.275,-0.615c-0.18225,-0.52191 0.09309,-1.09275 0.615,-1.275l3.56,-1.26c0.10642,-0.03504 0.21798,-0.05194 0.33,-0.05h3.32v-5.21h-2.77v0h-0.17c-0.07127,-0.01077 -0.14152,-0.0275 -0.21,-0.05v0l-3.71,-1.74l-1.14,0.89c-0.40317,0.37832 -1.03668,0.35817 -1.415,-0.045c-0.37832,-0.40317 -0.35817,-1.03668 0.045,-1.415l1.49,-1.39l0.09,-0.09v0c0.07616,-0.07131 0.16413,-0.12883 0.26,-0.17h0.1h0.1c0.07297,-0.01039 0.14703,-0.01039 0.22,0c0.17794,0.00785 0.35056,0.06309 0.5,0.16l4,1.89l3.43,-0.04c0.04989,-0.0047 0.10011,-0.0047 0.15,0v0l3.24,-0.11l3.89,-2.11c0.09763,-0.06508 0.20595,-0.11247 0.32,-0.14v0c0.06053,-0.02591 0.12455,-0.04276 0.19,-0.05c0.09153,0.00694 0.18205,0.0237 0.27,0.05v0h0.11c0.08216,0.03698 0.15941,0.08401 0.23,0.14v0v0l0.06,0.05l1.72,1.37c0.41974,0.35899 0.46899,0.99026 0.11,1.41c-0.35899,0.41974 -0.99026,0.46899 -1.41,0.11z" data-paper-data="{&quot;index&quot;:null}" fill="#ff9400"/></g></g></svg>