<svg version="1.1" xmlns="http://www.w3.org/2000/svg" xmlns:xlink="http://www.w3.org/1999/xlink" width="16.65885" height="19.18222" viewBox="0,0,16.65885,19.18222"><g transform="translate(-231.68558,-161.3669)"><g data-paper-data="{&quot;isPaintingLayer&quot;:true}" fill="none" fill-rule="nonzero" stroke="none" stroke-width="1" stroke-linecap="butt" stroke-linejoin="miter" stroke-miterlimit="10" stroke-dasharray="" stroke-dashoffset="0" font-family="none" font-weight="none" font-size="none" text-anchor="none" style="mix-blend-mode: normal"><path d="M247.78,173.49182c0.42202,0.20427 0.64546,0.67433 0.5374,1.13057c-0.10806,0.45624 -0.51859,0.77615 -0.9874,0.76943c-0.15628,-0.00304 -0.30994,-0.0406 -0.45,-0.11l-0.36,-0.18l-1.72,3.42h0.51c0.55228,0 1,0.44772 1,1c0,0.55228 -0.44772,1 -1,1h-1.95c-0.07631,0.01042 -0.15369,0.01042 -0.23,0c-0.15574,0.00217 -0.30983,-0.03208 -0.45,-0.1c-0.31306,-0.16627 -0.5147,-0.48585 -0.53,-0.84c-0.00468,-0.02982 -0.00468,-0.06018 0,-0.09v0c0,-0.03 0,-0.09 0,-0.09c0.01531,-0.12551 0.05254,-0.24736 0.11,-0.36l1.64,-3.26l-3.59,1.18c-0.09908,0.03673 -0.20439,0.05371 -0.31,0.05h-0.02c-0.07656,0.00562 -0.15344,0.00562 -0.23,0v0c-0.07674,-0.01614 -0.15081,-0.04307 -0.22,-0.08l-3.43,-1.13l1.64,3.27c0.05794,0.10888 0.09523,0.22755 0.11,0.35c0,0.03 0,0.09 0,0.09v0c0.00468,0.02982 0.00468,0.06018 0,0.09c-0.0153,0.35415 -0.21694,0.67373 -0.53,0.84c-0.14017,0.06792 -0.29426,0.10217 -0.45,0.1c-0.07636,0.00973 -0.15364,0.00973 -0.23,0h-1.95c-0.55228,0 -1,-0.44772 -1,-1c0,-0.55228 0.44772,-1 1,-1h0.54l-1.71,-3.4l-0.37,0.19c-0.14006,0.0694 -0.29372,0.10696 -0.45,0.11c-0.46881,0.00672 -0.87935,-0.31319 -0.9874,-0.76943c-0.10806,-0.45624 0.11538,-0.9263 0.5374,-1.13057l6.75,-3.38v-0.8c-1.98435,-0.50429 -3.28272,-2.40722 -3.02861,-4.43882c0.25411,-2.0316 1.98118,-3.5561 4.02861,-3.5561c2.04743,0 3.7745,1.5245 4.02861,3.5561c0.25411,2.0316 -1.04425,3.93452 -3.02861,4.43882v0.73l6.78,3.41zM239,172.35182l-2.73,1.37l2.73,0.9zM241,174.67182l2.83,-0.93l-2.83,-1.42z" fill="#ffee00"/><path d="M247.78,173.49182c0.42202,0.20427 0.64546,0.67433 0.5374,1.13057c-0.10806,0.45624 -0.51859,0.77615 -0.9874,0.76943c-0.15628,-0.00304 -0.30994,-0.0406 -0.45,-0.11l-0.36,-0.18l-1.72,3.42h0.51c0.55228,0 1,0.44772 1,1c0,0.55228 -0.44772,1 -1,1h-1.95c-0.07631,0.01042 -0.15369,0.01042 -0.23,0c-0.15574,0.00217 -0.30983,-0.03208 -0.45,-0.1c-0.31306,-0.16627 -0.5147,-0.48585 -0.53,-0.84c-0.00468,-0.02982 -0.00468,-0.06018 0,-0.09v0c0,-0.03 0,-0.09 0,-0.09c0.01531,-0.12551 0.05254,-0.24736 0.11,-0.36l1.64,-3.26l-3.59,1.18c-0.09908,0.03673 -0.20439,0.05371 -0.31,0.05h-0.02c-0.07656,0.00562 -0.15344,0.00562 -0.23,0v0c-0.07674,-0.01614 -0.15081,-0.04307 -0.22,-0.08l-3.43,-1.13l1.64,3.27c0.05794,0.10888 0.09523,0.22755 0.11,0.35c0,0.03 0,0.09 0,0.09v0c0.00468,0.02982 0.00468,0.06018 0,0.09c-0.0153,0.35415 -0.21694,0.67373 -0.53,0.84c-0.14017,0.06792 -0.29426,0.10217 -0.45,0.1c-0.07636,0.00973 -0.15364,0.00973 -0.23,0h-1.95c-0.55228,0 -1,-0.44772 -1,-1c0,-0.55228 0.44772,-1 1,-1h0.54l-1.71,-3.4l-0.37,0.19c-0.14006,0.0694 -0.29372,0.10696 -0.45,0.11c-0.46881,0.00672 -0.87935,-0.31319 -0.9874,-0.76943c-0.10806,-0.45624 0.11538,-0.9263 0.5374,-1.13057l6.75,-3.38v-0.8c-1.98435,-0.50429 -3.28272,-2.40722 -3.02861,-4.43882c0.25411,-2.0316 1.98118,-3.5561 4.02861,-3.5561c2.04743,0 3.7745,1.5245 4.02861,3.5561c0.25411,2.0316 -1.04425,3.93452 -3.02861,4.43882v0.73l6.78,3.41zM239,172.35182l-2.73,1.37l2.73,0.9zM241,174.67182l2.83,-0.93l-2.83,-1.42z" fill="#ff9400"/></g></g></svg>