<svg version="1.1" xmlns="http://www.w3.org/2000/svg" xmlns:xlink="http://www.w3.org/1999/xlink" width="701" height="527" viewBox="0,0,701,527"><g transform="translate(112.69662,85.44745)"><g data-paper-data="{&quot;isPaintingLayer&quot;:true}" fill-rule="nonzero" stroke-linecap="butt" stroke-linejoin="miter" stroke-miterlimit="10" stroke-dasharray="" stroke-dashoffset="0" style="mix-blend-mode: normal"><path d="M-112.69662,441.55255v-527h701v527z" fill="none" stroke="none" stroke-width="0"/><path d="M305.30339,341.4729v-92.92036h35v92.92036z" fill="#789aab" stroke="#000000" stroke-width="4"/><path d="M305.30339,347.66759v-99.11505h35v99.11505z" fill="#789aab" stroke="none" stroke-width="0"/><path d="M305.30339,348.55255v-100h35v100z" fill="#789aab" stroke="none" stroke-width="0"/><path d="M305.30339,265.55254v-22h35v22z" fill="#58717e" stroke="none" stroke-width="0"/><path d="M447.3034,309.43837v73.16667h-35v-73.16667z" data-paper-data="{&quot;index&quot;:null}" fill="#789aab" stroke="#000000" stroke-width="4"/><path d="M447.3034,306.10502v91.5h-35v-91.5z" data-paper-data="{&quot;index&quot;:null}" fill="#789aab" stroke="none" stroke-width="0"/><path d="M447.3034,313.43837v26h-35v-26z" data-paper-data="{&quot;index&quot;:null}" fill="#58717e" stroke="none" stroke-width="0"/><path d="M451.30339,294.93837v30h-43v-30z" data-paper-data="{&quot;index&quot;:null}" fill="#2d81ab" stroke="#000000" stroke-width="2"/><path d="M438.7135,354.05256c0,4.97056 -4.02944,9 -9,9c-4.97056,0 -9,-4.02944 -9,-9c0,-4.97056 4.02944,-9 9,-9c4.97056,0 9,4.02944 9,9z" data-paper-data="{&quot;index&quot;:null}" fill="#2d81ab" stroke="#000000" stroke-width="2"/><path d="M299.80339,255.55255v-30h45v30z" fill="#2d81ab" stroke="#000000" stroke-width="2"/></g></g></svg>