<svg version="1.1" xmlns="http://www.w3.org/2000/svg" xmlns:xlink="http://www.w3.org/1999/xlink" width="20.01868" height="26.08604" viewBox="0,0,20.01868,26.08604"><g transform="translate(-231.27646,-154.39396)"><g data-paper-data="{&quot;isPaintingLayer&quot;:true}" fill="none" fill-rule="nonzero" stroke="none" stroke-width="1" stroke-linecap="butt" stroke-linejoin="miter" stroke-miterlimit="10" stroke-dasharray="" stroke-dashoffset="0" font-family="none" font-weight="none" font-size="none" text-anchor="none" style="mix-blend-mode: normal"><path d="M250.77,163.96c0.40219,0.21706 0.60604,0.67917 0.49519,1.12255c-0.11084,0.44338 -0.50817,0.75519 -0.96519,0.75745c-0.16718,-0.00195 -0.33157,-0.04305 -0.48,-0.12l-3.15,-1.69l-3.3,0.65l-2.1,5.72l2.47,3.4v0c0.03397,0.05793 0.06404,0.11807 0.09,0.18c0.03179,0.0528 0.05539,0.11012 0.07,0.17c0.00492,0.0599 0.00492,0.1201 0,0.18c0.00501,0.06991 0.00501,0.14009 0,0.21v0l-0.82,3.94h1c0.55228,0 1,0.44772 1,1c0,0.55228 -0.44772,1 -1,1v0l-2.08,-0.08v0l-0.19,-0.12h-0.11l-0.22,-0.1h-0.06c-0.27474,-0.19051 -0.4361,-0.50572 -0.43,-0.84c0.00379,-0.14222 0.03788,-0.282 0.1,-0.41l0.91,-4.4l-2.33,-2.94l-2.58,0.52l-2.39,3.06c0,0.03 0,0.09 0,0.09c-0.18627,0.27558 -0.49737,0.4405 -0.83,0.44h-0.07c-0.076,0.01434 -0.154,0.01434 -0.23,0c-0.12343,-0.02853 -0.23935,-0.08308 -0.34,-0.16v0l-1.69,-1.14c-0.31746,-0.34561 -0.35188,-0.86548 -0.08276,-1.24993c0.26912,-0.38445 0.76937,-0.53005 1.20276,-0.35007l1,0.69l2.14,-2.75c0.032,-0.03529 0.06907,-0.06562 0.11,-0.09c0.04507,-0.05169 0.09533,-0.0986 0.15,-0.14c0.06296,-0.03514 0.13018,-0.06203 0.2,-0.08l0.13,-0.05l3,-0.61l1.75,-4.77l-2.26,0.27l-2.27,2.53c-0.18906,0.20948 -0.45782,0.32933 -0.74,0.33c-0.39251,-0.0005 -0.74843,-0.23057 -0.91004,-0.58827c-0.16161,-0.35769 -0.09902,-0.77686 0.16004,-1.07173l2.52,-2.82c0.03,-0.04 0.11,-0.09 0.11,-0.09c0.05426,-0.0433 0.11103,-0.08337 0.17,-0.12c0.06669,-0.03228 0.13728,-0.05581 0.21,-0.07l0.14,-0.05l3.64,-0.43l0.29,-0.78c-1.79388,-0.84252 -2.71454,-2.85948 -2.1758,-4.76673c0.53873,-1.90725 2.37858,-3.14447 4.34816,-2.92394c1.96957,0.22053 3.49023,1.83402 3.59381,3.81319c0.10357,1.97917 -1.24036,3.74257 -3.17616,4.16748l1.84,-0.35c0.04987,-0.00501 0.10013,-0.00501 0.15,0c0.0599,-0.00501 0.1201,-0.00501 0.18,0c0.07951,0.0127 0.1569,0.03625 0.23,0.07h0.11l3.47,1.86zM244.18,162.55l0.48,-0.09c-0.15,0 -0.31,0 -0.46,0z" fill="#ffee00"/><path d="M250.77,163.96c0.40219,0.21706 0.60604,0.67917 0.49519,1.12255c-0.11084,0.44338 -0.50817,0.75519 -0.96519,0.75745c-0.16718,-0.00195 -0.33157,-0.04305 -0.48,-0.12l-3.15,-1.69l-3.3,0.65l-2.1,5.72l2.47,3.4v0c0.03397,0.05793 0.06404,0.11807 0.09,0.18c0.03179,0.0528 0.05539,0.11012 0.07,0.17c0.00492,0.0599 0.00492,0.1201 0,0.18c0.00501,0.06991 0.00501,0.14009 0,0.21v0l-0.82,3.94h1c0.55228,0 1,0.44772 1,1c0,0.55228 -0.44772,1 -1,1v0l-2.08,-0.08v0l-0.19,-0.12h-0.11l-0.22,-0.1h-0.06c-0.27474,-0.19051 -0.4361,-0.50572 -0.43,-0.84c0.00379,-0.14222 0.03788,-0.282 0.1,-0.41l0.91,-4.4l-2.33,-2.94l-2.58,0.52l-2.39,3.06c0,0.03 0,0.09 0,0.09c-0.18627,0.27558 -0.49737,0.4405 -0.83,0.44h-0.07c-0.076,0.01434 -0.154,0.01434 -0.23,0c-0.12343,-0.02853 -0.23935,-0.08308 -0.34,-0.16v0l-1.69,-1.14c-0.31746,-0.34561 -0.35188,-0.86548 -0.08276,-1.24993c0.26912,-0.38445 0.76937,-0.53005 1.20276,-0.35007l1,0.69l2.14,-2.75c0.032,-0.03529 0.06907,-0.06562 0.11,-0.09c0.04507,-0.05169 0.09533,-0.0986 0.15,-0.14c0.06296,-0.03514 0.13018,-0.06203 0.2,-0.08l0.13,-0.05l3,-0.61l1.75,-4.77l-2.26,0.27l-2.27,2.53c-0.18906,0.20948 -0.45782,0.32933 -0.74,0.33c-0.39251,-0.0005 -0.74843,-0.23057 -0.91004,-0.58827c-0.16161,-0.35769 -0.09902,-0.77686 0.16004,-1.07173l2.52,-2.82c0.03,-0.04 0.11,-0.09 0.11,-0.09c0.05426,-0.0433 0.11103,-0.08337 0.17,-0.12c0.06669,-0.03228 0.13728,-0.05581 0.21,-0.07l0.14,-0.05l3.64,-0.43l0.29,-0.78c-1.79388,-0.84252 -2.71454,-2.85948 -2.1758,-4.76673c0.53873,-1.90725 2.37858,-3.14447 4.34816,-2.92394c1.96957,0.22053 3.49023,1.83402 3.59381,3.81319c0.10357,1.97917 -1.24036,3.74257 -3.17616,4.16748l1.84,-0.35c0.04987,-0.00501 0.10013,-0.00501 0.15,0c0.0599,-0.00501 0.1201,-0.00501 0.18,0c0.07951,0.0127 0.1569,0.03625 0.23,0.07h0.11l3.47,1.86zM244.18,162.55l0.48,-0.09c-0.15,0 -0.31,0 -0.46,0z" fill="#ff9400"/></g></g></svg>