<svg version="1.1" xmlns="http://www.w3.org/2000/svg" xmlns:xlink="http://www.w3.org/1999/xlink" width="16.6593" height="26.97104" viewBox="0,0,16.6593,26.97104"><g transform="translate(-231.30342,-154.78508)"><g data-paper-data="{&quot;isPaintingLayer&quot;:true}" fill="none" fill-rule="nonzero" stroke="none" stroke-width="1" stroke-linecap="butt" stroke-linejoin="miter" stroke-miterlimit="10" stroke-dasharray="" stroke-dashoffset="0" font-family="none" font-weight="none" font-size="none" text-anchor="none" style="mix-blend-mode: normal"><path d="M247.9086,167.50428c0.08882,0.25889 0.06764,0.54287 -0.0586,0.78572c-0.16945,0.33628 -0.51344,0.54886 -0.89,0.55c-0.15574,0.00217 -0.30983,-0.03208 -0.45,-0.1l-5.91,-3v5.25l3.24,3.35c0.01439,0.02803 0.03111,0.05479 0.05,0.08c0.04245,0.05627 0.07929,0.11655 0.11,0.18c0.02927,0.05404 0.05274,0.11102 0.07,0.17v0.19c0.00473,0.06658 0.00473,0.13342 0,0.2v0.1l-0.69,2.9l0.72,-0.09c0.55228,-0.07456 1.06044,0.31272 1.135,0.865c0.07456,0.55228 -0.31272,1.06044 -0.865,1.135l-2,0.26c-0.10839,0.04298 -0.22345,0.06667 -0.34,0.07c-0.07631,0.01042 -0.15369,0.01042 -0.23,0c-0.52443,-0.12418 -0.85612,-0.64162 -0.75,-1.17l0.91,-3.83l-2.14,-2.22l-1.56,3l-0.6,4.26c-0.07025,0.49702 -0.49807,0.86494 -1,0.86v0l-1.88,0.45h-0.24c-0.55228,0.06075 -1.04925,-0.33772 -1.11,-0.89c-0.06075,-0.55228 0.33772,-1.04925 0.89,-1.11l1.46,-0.35l0.56,-3.69c0.0154,-0.05495 0.03547,-0.10848 0.06,-0.16c0,-0.05 0,-0.15 0,-0.15l2.2,-4.22v-5.4l-5.85,2.97c-0.14017,0.06792 -0.29426,0.10217 -0.45,0.1c-0.37656,-0.00114 -0.72055,-0.21372 -0.89,-0.55c-0.24692,-0.49165 -0.05031,-1.09042 0.44,-1.34l6.75,-3.38v-0.8c-1.98435,-0.50429 -3.28272,-2.40722 -3.02861,-4.43882c0.25411,-2.0316 1.98118,-3.5561 4.02861,-3.5561c2.04743,0 3.7745,1.5245 4.02861,3.5561c0.25411,2.0316 -1.04425,3.93452 -3.02861,4.43882v0.73l6.78,3.41c0.24873,0.11421 0.43978,0.32538 0.5286,0.58428z" fill="#ffee00"/><path d="M247.9086,167.50428c0.08882,0.25889 0.06764,0.54287 -0.0586,0.78572c-0.16945,0.33628 -0.51344,0.54886 -0.89,0.55c-0.15574,0.00217 -0.30983,-0.03208 -0.45,-0.1l-5.91,-3v5.25l3.24,3.35c0.01439,0.02803 0.03111,0.05479 0.05,0.08c0.04245,0.05627 0.07929,0.11655 0.11,0.18c0.02927,0.05404 0.05274,0.11102 0.07,0.17v0.19c0.00473,0.06658 0.00473,0.13342 0,0.2v0.1l-0.69,2.9l0.72,-0.09c0.55228,-0.07456 1.06044,0.31272 1.135,0.865c0.07456,0.55228 -0.31272,1.06044 -0.865,1.135l-2,0.26c-0.10839,0.04298 -0.22345,0.06667 -0.34,0.07c-0.07631,0.01042 -0.15369,0.01042 -0.23,0c-0.52443,-0.12418 -0.85612,-0.64162 -0.75,-1.17l0.91,-3.83l-2.14,-2.22l-1.56,3l-0.6,4.26c-0.07025,0.49702 -0.49807,0.86494 -1,0.86v0l-1.88,0.45h-0.24c-0.55228,0.06075 -1.04925,-0.33772 -1.11,-0.89c-0.06075,-0.55228 0.33772,-1.04925 0.89,-1.11l1.46,-0.35l0.56,-3.69c0.0154,-0.05495 0.03547,-0.10848 0.06,-0.16c0,-0.05 0,-0.15 0,-0.15l2.2,-4.22v-5.4l-5.85,2.97c-0.14017,0.06792 -0.29426,0.10217 -0.45,0.1c-0.37656,-0.00114 -0.72055,-0.21372 -0.89,-0.55c-0.24692,-0.49165 -0.05031,-1.09042 0.44,-1.34l6.75,-3.38v-0.8c-1.98435,-0.50429 -3.28272,-2.40722 -3.02861,-4.43882c0.25411,-2.0316 1.98118,-3.5561 4.02861,-3.5561c2.04743,0 3.7745,1.5245 4.02861,3.5561c0.25411,2.0316 -1.04425,3.93452 -3.02861,4.43882v0.73l6.78,3.41c0.24873,0.11421 0.43978,0.32538 0.5286,0.58428z" fill="#ff9400"/></g></g></svg>