<svg version="1.1" xmlns="http://www.w3.org/2000/svg" xmlns:xlink="http://www.w3.org/1999/xlink" width="448.69899" height="31.94408" viewBox="0,0,448.69899,31.94408"><g transform="translate(-15.13999,-323.52022)"><g data-paper-data="{&quot;isPaintingLayer&quot;:true}" fill-rule="nonzero" stroke-linecap="butt" stroke-linejoin="miter" stroke-miterlimit="10" stroke-dasharray="" stroke-dashoffset="0" style="mix-blend-mode: normal"><path d="M23.1875,344.2v-13.8h18.8v13.8z" data-paper-data="{&quot;origPos&quot;:null}" fill="#ffffff" stroke="none" stroke-width="NaN"/><g data-paper-data="{&quot;origPos&quot;:null}" fill="#000000" stroke="#000000" stroke-width="12"><path d="M66.72632,337.03307v8.72624h-2.53943l-0.05761,-1.45364h-0.03102c-0.62334,1.06949 -1.78064,1.71357 -3.01807,1.67966c-3.46125,0 -5.20738,-3.54545 -5.20738,-7.87533c0,-4.57806 2.04307,-8.11908 5.91204,-8.11908c2.18045,0 3.74488,1.17443 4.7775,3.10227l-2.0475,1.94557c-0.68693,-1.37829 -1.49352,-2.06523 -2.65909,-2.06523c-2.0475,0 -3.04466,2.21591 -3.04466,5.06113c0,2.84523 0.88636,4.98136 2.84966,4.98136c1.28523,0 2.26909,-1.03261 2.26909,-2.89841v-0.14182h-2.26909v-2.94273z"/><path d="M68.38382,334.88807h2.50841l0.06205,1.7417h0.02659c0.44318,-1.13454 1.09023,-1.94557 2.00318,-1.94557c0.27134,0.00327 0.5377,0.07328 0.77557,0.20386v3.01807c-0.25116,-0.04954 -0.50629,-0.07624 -0.76227,-0.07977c-1.20989,0 -1.87909,0.94841 -1.87909,2.12284v5.81011h-2.73443z"/><path d="M74.82325,330.21251h2.74329v2.99591h-2.76102zM74.82325,345.75931v-10.87124h2.74329v10.87124z"/><path d="M80.01734,337.33886h-1.37386v-2.45079h1.37386v-1.03261c0,-2.36659 0.85091,-3.86454 3.03136,-3.86454c0.47877,-0.00397 0.95444,0.07706 1.40489,0.23932v2.51284c-0.21133,-0.07071 -0.43309,-0.10517 -0.65591,-0.10193c-0.82432,0 -1.04591,0.36341 -1.04591,1.23648v1.01045h1.70182v2.45079h-1.70182v8.42045h-2.73443z"/><path d="M86.3371,337.33886h-1.37386v-2.45079h1.37386v-1.03261c0,-2.36659 0.85091,-3.86454 3.03136,-3.86454c0.47733,-0.00411 0.95157,0.07693 1.40045,0.23932v2.51284c-0.21116,-0.07138 -0.43304,-0.10587 -0.65591,-0.10193c-0.81989,0 -1.04591,0.36341 -1.04591,1.23648v1.01045h1.70182v2.45079h-1.67966v8.42045h-2.73z"/><path d="M94.66892,344.54499h-0.03102v4.91931h-2.73443v-14.57624h2.50398l0.07534,1.52011h0.03102c0.59829,-1.09466 1.4492,-1.7417 2.45079,-1.7417c2.10511,0 3.34159,2.38875 3.34159,5.6284c0,3.23966 -1.32954,5.69045 -3.37261,5.69045c-0.93511,0 -1.69739,-0.52739 -2.26466,-1.44034zM97.5496,340.33477c0,-1.66193 -0.47864,-2.99591 -1.49352,-2.99591c-1.01489,0 -1.50682,1.29409 -1.50682,3.03579c0,1.7417 0.50523,2.93829 1.49352,2.93829c0.98829,0 1.50682,-1.27636 1.50682,-2.97818z"/><path d="M106.30243,345.75931l-0.07534,-1.47579h-0.03102c-0.49193,1.09466 -1.32954,1.70182 -2.37545,1.70182c-1.59545,0 -2.65909,-1.40045 -2.65909,-3.34159c0,-1.23648 0.41659,-2.30898 1.56886,-2.83636c0.83318,-0.38557 2.02977,-0.48307 3.34159,-0.54511v-0.60716c0,-0.88636 -0.44318,-1.41818 -1.19216,-1.41818c-0.74898,0 -1.20989,0.56727 -1.43591,1.32954l-2.01204,-1.32954c0.63818,-1.72398 1.74614,-2.55273 3.64295,-2.55273c2.5217,0 3.70057,1.49795 3.70057,3.90886v7.16624zM106.0897,341.77068v-0.585c-0.47681,0.03561 -0.95064,0.10372 -1.41818,0.20386c-0.50495,0.05351 -0.87154,0.50531 -0.81989,1.01045c-0.03859,0.27641 0.04481,0.55595 0.22853,0.76605c0.18372,0.21009 0.44965,0.33001 0.72874,0.32861c0.77557,0 1.28079,-0.73125 1.28079,-1.7417z"/><path d="M109.66175,334.88807h1.38716v-3.44352h2.70341v3.44352h1.71954v2.45079h-1.71954v4.61795c0,0.84648 0.23932,1.37386 1.15227,1.37386c0.19054,-0.00028 0.38057,-0.01958 0.56727,-0.05761v2.46852c-0.51132,0.1638 -1.04525,0.24605 -1.58216,0.24375c-1.97216,0 -2.84079,-1.17443 -2.84079,-3.34159v-5.31818h-1.38716z"/><path d="M116.15879,340.37466c0,-3.25738 1.4492,-5.70818 4.22352,-5.70818c1.8525,0 3.01807,1.0725 3.64295,2.75216l-2.06079,1.44034c-0.29693,-0.975 -0.76227,-1.54227 -1.4625,-1.54227c-1.09023,0 -1.58216,1.32954 -1.58216,3.01807c0,1.68852 0.50966,2.99591 1.59989,2.99591c0.74454,0 1.2542,-0.60716 1.56443,-1.57773l1.98545,1.43591c-0.59386,1.66193 -1.77273,2.79648 -3.68727,2.79648c-2.74773,0 -4.22352,-2.37988 -4.22352,-5.61068z"/><path d="M124.98696,330.21251h2.73v6.07159h0.03102c0.34746,-0.95778 1.25036,-1.60145 2.26909,-1.61761c1.59545,0 2.68568,1.41818 2.68568,3.58534v7.50749h-2.73v-7.02886c0,-0.74898 -0.32795,-1.35614 -1.01489,-1.35614c-0.78,0 -1.24091,0.74898 -1.24091,1.77273v6.64772h-2.73z"/><path d="M138.15388,340.35693c0,-3.26182 1.4625,-5.69045 4.28556,-5.69045c2.82307,0 4.28556,2.38875 4.28556,5.65056c0,3.26182 -1.4625,5.66829 -4.28556,5.66829c-2.82307,0 -4.28556,-2.37988 -4.28556,-5.6284zM140.9149,340.33477c0,1.67966 0.46534,2.99591 1.51125,2.99591c1.04591,0 1.53784,-1.32954 1.53784,-2.99591c0,-1.66636 -0.46534,-3.01807 -1.51125,-3.01807c-1.04591,0 -1.53784,1.31625 -1.53784,3.01807z"/><path d="M147.97922,334.88807h2.50841l0.06205,1.48023h0.03102c0.49193,-1.09466 1.32954,-1.70182 2.35773,-1.70182c1.6442,0 2.76102,1.45807 2.76102,3.68284v7.40999h-2.73v-7.02886c0,-0.74898 -0.34568,-1.35614 -1.01489,-1.35614c-0.78,0 -1.24091,0.74898 -1.24091,1.77273v6.64772h-2.73443z"/><path d="M171.33488,330.21251l-3.98863,9.45306v6.09375h-2.91613v-6.05386l-3.98863,-9.49295h3.23966l2.2425,5.76136h0.02659l2.28682,-5.76136z"/><path d="M169.93443,340.35693c0,-3.26182 1.4625,-5.69045 4.28556,-5.69045c2.82307,0 4.28556,2.38875 4.28556,5.65056c0,3.26182 -1.4625,5.66829 -4.28556,5.66829c-2.82307,0 -4.28556,-2.37988 -4.28556,-5.6284zM172.69545,340.33477c0,1.67966 0.46534,2.99591 1.50682,2.99591c1.04148,0 1.53784,-1.32954 1.53784,-2.99591c0,-1.66636 -0.44318,-3.01807 -1.50682,-3.01807c-1.06364,0 -1.53784,1.31625 -1.53784,3.01807z"/><path d="M187.43566,345.75931h-2.50841l-0.06205,-1.47579h-0.04875c-0.49193,1.09466 -1.32954,1.70182 -2.35773,1.70182c-1.62648,0 -2.76102,-1.45807 -2.76102,-3.68727v-7.40999h2.73v7.0067c0,0.78886 0.32795,1.39602 1.01932,1.39602c0.77557,0 1.23648,-0.70909 1.23648,-1.70182v-6.7009h2.73443z"/><path d="M190.73736,345.75931v-12.48885h-3.57204v-3.05795h10.06022v3.05795h-3.54545v12.48885z"/><path d="M204.17463,345.75931h-2.51727l-0.06205,-1.47579h-0.02659c-0.49193,1.09466 -1.32954,1.70182 -2.36216,1.70182c-1.62648,0 -2.76102,-1.45807 -2.76102,-3.68727v-7.40999h2.73443v7.0067c0,0.78886 0.32795,1.39602 1.01489,1.39602c0.77557,0 1.23648,-0.70909 1.23648,-1.70182v-6.7009h2.73443z"/><path d="M208.34053,344.28352h-0.03545l-0.06205,1.47579h-2.37545v-15.54681h2.73443v6.09375h0.03102c0.42374,-0.95887 1.3547,-1.59439 2.40204,-1.63977c1.98545,0 3.23966,2.42863 3.23966,5.60625c0,3.17761 -1.29852,5.71261 -3.41693,5.71261c-1.06807,0 -1.95,-0.65148 -2.51727,-1.70182zM211.52258,340.33477c0,-1.67966 -0.49193,-2.99591 -1.50682,-2.99591c-1.01489,0 -1.49352,1.37829 -1.49352,3.03579c0,1.6575 0.47864,2.93829 1.47579,2.93829c0.99716,0 1.52454,-1.23648 1.52454,-2.97818z"/><path d="M222.93007,344.02204c-0.68963,1.25633 -2.02906,2.01609 -3.46125,1.96329c-2.89841,0 -4.32988,-2.29125 -4.32988,-5.61068c0,-3.31943 1.41818,-5.70818 4.13488,-5.70818c2.7167,0 3.93988,2.3267 3.93988,5.36693c0.00366,0.44434 -0.02151,0.88846 -0.07534,1.32954h-5.31818c0.11966,1.23648 0.585,2.0475 1.71954,2.0475c0.64261,0 1.2542,-0.32352 1.77273,-1.23648zM220.62996,339.24011c-0.08864,-1.23204 -0.44318,-1.98102 -1.37386,-1.98102c-0.93068,0 -1.32954,0.74898 -1.43148,1.98102z"/><path d="M228.45654,338.2075h3.85125v3.05795h-3.85125z"/><path d="M238.1046,345.75931v-15.54681h8.13681v3.01807h-5.22511v3.42136h4.51602v2.99591h-4.51602v6.11147z"/><path d="M246.70675,340.35693c0,-3.26182 1.4625,-5.69045 4.28556,-5.69045c2.82307,0 4.29,2.38875 4.29,5.65056c0,3.26182 -1.4625,5.66829 -4.28556,5.66829c-2.82307,0 -4.29,-2.37988 -4.29,-5.6284zM249.46777,340.33477c0,1.67966 0.44318,2.99591 1.51125,2.99591c1.06807,0 1.53341,-1.32954 1.53341,-2.99591c0,-1.66636 -0.44318,-3.01807 -1.50682,-3.01807c-1.06364,0 -1.53784,1.31625 -1.53784,3.01807z"/><path d="M256.53209,334.88807h2.50841l0.06205,1.7417h0.02659c0.44318,-1.13454 1.09023,-1.94557 2.00318,-1.94557c0.27126,0.00381 0.53749,0.07379 0.77557,0.20386v3.01807c-0.2512,-0.0493 -0.50631,-0.076 -0.76227,-0.07977c-1.20989,0.01773 -1.87466,0.94841 -1.87466,2.12284v5.81011h-2.73443z"/><path d="M266.47708,334.88807h1.39159v-3.44352h2.69898v3.44352h1.71954v2.45079h-1.71954v4.61795c0,0.84648 0.23932,1.37386 1.15227,1.37386c0.19054,-0.00028 0.38057,-0.01958 0.56727,-0.05761v2.46852c-0.51132,0.1638 -1.04525,0.24605 -1.58216,0.24375c-1.97216,0 -2.83636,-1.17443 -2.83636,-3.34159v-5.31818h-1.39159z"/><path d="M273.5281,330.21251h2.73v6.07159h0.03102c0.34746,-0.95778 1.25036,-1.60145 2.26909,-1.61761c1.59989,0 2.68568,1.41818 2.68568,3.58534v7.50749h-2.73v-7.02886c0,-0.74898 -0.32795,-1.35614 -1.01489,-1.35614c-0.77557,0 -1.24091,0.74898 -1.24091,1.77273v6.64772h-2.73z"/><path d="M290.24933,344.02204c-0.68809,1.25785 -2.02854,2.01818 -3.46125,1.96329c-2.89841,0 -4.32988,-2.29125 -4.32988,-5.61068c0,-3.31943 1.41818,-5.70818 4.13488,-5.70818c2.7167,0 3.93988,2.3267 3.93988,5.36693c0.00264,0.44419 -0.02104,0.88815 -0.07091,1.32954h-5.31818c0.11523,1.23648 0.58057,2.0475 1.71511,2.0475c0.64261,0 1.2542,-0.32352 1.77273,-1.23648zM287.94922,339.24011c-0.08864,-1.23204 -0.44318,-1.98102 -1.36943,-1.98102c-0.92625,0 -1.32954,0.74898 -1.43591,1.98102z"/><path d="M295.23956,343.8359l1.4492,-2.53057c0.84046,1.06495 2.10959,1.70276 3.46568,1.7417c1.19216,0 1.82148,-0.60716 1.82148,-1.63977c0,-1.13454 -0.88636,-1.39602 -2.52613,-1.88352c-1.95443,-0.585 -3.76261,-1.63977 -3.76261,-4.69772c0,-2.65909 1.50682,-4.83511 4.48056,-4.83511c1.67467,-0.01904 3.28121,0.66213 4.43181,1.87909l-1.24091,2.61477c-1.04591,-1.01489 -2.1317,-1.56 -3.25295,-1.56c-0.41693,-0.03232 -0.82715,0.11929 -1.12285,0.41499c-0.2957,0.2957 -0.44731,0.70592 -0.41499,1.12285c0,1.0725 0.78886,1.32954 2.41977,1.80375c2.04307,0.60716 3.86454,1.56 3.86454,4.75534c0,2.87625 -1.6575,4.96363 -4.7642,4.96363c-1.85875,0.05731 -3.64275,-0.73358 -4.84841,-2.14943z"/><path d="M308.78318,344.54499h-0.02659v4.91931h-2.73443v-14.57624h2.50841l0.07534,1.52011h0.03102c0.59386,-1.09466 1.44477,-1.7417 2.44636,-1.7417c2.10511,0 3.34602,2.38875 3.34602,5.6284c0,3.23966 -1.32954,5.69045 -3.37704,5.69045c-0.93954,0 -1.70182,-0.52739 -2.26909,-1.44034zM311.66386,340.33477c0,-1.66193 -0.4742,-2.99591 -1.48909,-2.99591c-1.01489,0 -1.51125,1.29409 -1.51125,3.03579c0,1.7417 0.50966,2.93829 1.49352,2.93829c0.98386,0 1.50682,-1.27636 1.50682,-2.97818z"/><path d="M323.08908,344.02204c-0.69035,1.2578 -2.03192,2.01779 -3.46568,1.96329c-2.89398,0 -4.32988,-2.29125 -4.32988,-5.61068c0,-3.31943 1.41818,-5.70818 4.13488,-5.70818c2.7167,0 3.94432,2.3267 3.94432,5.36693c0.00138,0.44429 -0.02378,0.88826 -0.07534,1.32954h-5.31818c0.11966,1.23648 0.58057,2.0475 1.71511,2.0475c0.64261,0 1.2542,-0.32352 1.77273,-1.23648zM320.78897,339.24011c-0.08864,-1.23204 -0.44318,-1.98102 -1.37386,-1.98102c-0.93068,0 -1.32954,0.74898 -1.43148,1.98102z"/><path d="M331.95271,344.02204c-0.69035,1.2578 -2.03192,2.01779 -3.46568,1.96329c-2.89398,0 -4.32988,-2.29125 -4.32988,-5.61068c0,-3.31943 1.41818,-5.70818 4.13931,-5.70818c2.65909,0 3.93988,2.3267 3.93988,5.36693c0.00138,0.44429 -0.02378,0.88826 -0.07534,1.32954h-5.31818c0.11966,1.23648 0.585,2.0475 1.71954,2.0475c0.63818,0 1.2542,-0.32352 1.77273,-1.23648zM329.6526,339.24011c-0.08864,-1.23204 -0.44318,-1.98102 -1.37386,-1.98102c-0.93068,0 -1.32954,0.74898 -1.43148,1.98102z"/><path d="M333.03851,340.39682c0,-3.26182 1.29852,-5.73034 3.34159,-5.73034c0.95727,0 1.73284,0.54511 2.30011,1.47579h0.03102v-5.92977h2.73v15.54681h-2.5217l-0.05761,-1.51568h-0.03102c-0.56727,1.09023 -1.4625,1.7417 -2.50841,1.7417c-2.06079,0 -3.28397,-2.41091 -3.28397,-5.58852zM338.79986,340.31704c0,-1.7417 -0.49193,-2.97818 -1.50682,-2.97818c-1.01489,0 -1.49352,1.27636 -1.49352,3.01807c0,1.61761 0.47864,2.95602 1.49352,2.95602c1.01489,0 1.50682,-1.31625 1.50682,-2.99591z"/><path d="M343.14747,334.88807h2.50841l0.05761,1.7417h0.03102c0.44318,-1.13454 1.09023,-1.94557 1.99875,-1.94557c0.27274,0.00327 0.54054,0.07326 0.78,0.20386v3.01807c-0.2512,-0.0493 -0.50631,-0.076 -0.76227,-0.07977c-1.20989,0 -1.88352,0.94841 -1.88352,2.12284v5.81011h-2.73z"/><path d="M357.27167,345.75931h-2.50841l-0.05761,-1.47579h-0.03102c-0.49193,1.09466 -1.32954,1.70182 -2.35773,1.70182c-1.63091,0 -2.76545,-1.45807 -2.76545,-3.68727v-7.40999h2.73443v7.0067c0,0.78886 0.32795,1.39602 1.01489,1.39602c0.77557,0 1.24091,-0.70909 1.24091,-1.70182v-6.7009h2.73z"/><path d="M358.98678,334.88807h2.50841l0.05761,1.48023h0.03102c0.49193,-1.09466 1.32954,-1.70182 2.35773,-1.70182c1.6442,0 2.76102,1.45807 2.76102,3.68284v7.40999h-2.73v-7.02886c0,-0.74898 -0.34568,-1.35614 -1.01489,-1.35614c-0.77557,0 -1.24091,0.74898 -1.24091,1.77273v6.64772h-2.73z"/><path d="M380.82233,345.75931l-0.88636,-1.29409c-0.79672,1.0271 -2.04834,1.59572 -3.34602,1.52011c-2.97818,0 -4.485,-1.98545 -4.485,-4.59579c-0.06534,-1.83545 0.87838,-3.55966 2.45966,-4.49386c-0.73125,-1.0725 -1.2542,-2.10511 -1.2542,-3.35932c0,-1.88352 1.13454,-3.52329 3.73602,-3.52329c2.3267,0 3.59863,1.39602 3.59863,3.50113c0,1.56 -0.68693,2.65909 -2.07852,3.60307l-0.44318,0.3058l1.50682,2.12284l0.64261,-2.04307h2.68568l-1.52011,4.59579l2.61034,3.68284zM375.84984,338.66841c-0.557,0.62507 -0.85078,1.44129 -0.81989,2.27795c0,1.29409 0.59829,2.28682 1.70182,2.28682c0.65591,0 1.14784,-0.34568 1.58216,-1.05477zM376.17779,333.79341c0.02569,0.64616 0.25704,1.26723 0.66034,1.77273c0.6342,-0.33463 1.03028,-0.99361 1.02818,-1.71068c0,-0.65148 -0.23932,-1.21875 -0.83761,-1.21875c-0.59829,0 -0.85091,0.54955 -0.85091,1.1567z"/><path d="M391.24596,345.75931v-12.48885h-3.54545v-3.05795h10.06465v3.05795h-3.58977v12.48885z"/><path d="M404.68765,345.75931h-2.50841l-0.06205,-1.47579h-0.02659c-0.49636,1.09466 -1.32954,1.70182 -2.36216,1.70182c-1.62648,0 -2.76102,-1.45807 -2.76102,-3.68727v-7.40999h2.73443v7.0067c0,0.78886 0.32795,1.39602 1.01489,1.39602c0.77557,0 1.23648,-0.70909 1.23648,-1.70182v-6.7009h2.73443z"/><path d="M405.65822,334.88807h1.38716v-3.44352h2.70341v3.44352h1.71954v2.45079h-1.71954v4.61795c0,0.84648 0.23932,1.37386 1.15227,1.37386c0.19054,-0.00028 0.38057,-0.01958 0.56727,-0.05761v2.46852c-0.51132,0.1638 -1.04525,0.24605 -1.58216,0.24375c-1.97216,0 -2.84079,-1.17443 -2.84079,-3.34159v-5.31818h-1.38716z"/><path d="M412.14197,340.35693c0,-3.26182 1.4625,-5.69045 4.28113,-5.69045c2.81863,0 4.28556,2.38875 4.28556,5.65056c0,3.26182 -1.4492,5.66829 -4.28556,5.66829c-2.83636,0 -4.28113,-2.37988 -4.28113,-5.6284zM414.90299,340.33477c0,1.67966 0.44318,2.99591 1.50682,2.99591c1.06364,0 1.53784,-1.32954 1.53784,-2.99591c0,-1.66636 -0.44318,-3.01807 -1.50682,-3.01807c-1.06364,0 -1.53784,1.31625 -1.53784,3.01807z"/><path d="M421.9673,334.88807h2.50841l0.05761,1.7417h0.04432c0.44318,-1.13454 1.09023,-1.94557 1.99875,-1.94557c0.27267,0.0038 0.54034,0.07376 0.78,0.20386v3.01807c-0.2512,-0.0493 -0.50631,-0.076 -0.76227,-0.07977c-1.20989,0 -1.88352,0.94841 -1.88352,2.12284v5.81011h-2.73z"/><path d="M428.4023,330.21251h2.76102v2.99591h-2.76102zM428.4023,345.75931v-10.87124h2.73443v10.87124z"/><path d="M437.5407,345.75931l-0.07534,-1.47579h-0.03545c-0.49193,1.09466 -1.32954,1.70182 -2.37102,1.70182c-1.59989,0 -2.65909,-1.40045 -2.65909,-3.34159c0,-1.23648 0.42102,-2.30898 1.56886,-2.83636c0.83761,-0.38557 2.02977,-0.48307 3.34602,-0.54511v-0.60716c0,-0.88636 -0.44318,-1.41818 -1.19659,-1.41818c-0.75341,0 -1.20989,0.56727 -1.43148,1.32954l-2.01648,-1.32954c0.64261,-1.72398 1.74614,-2.55273 3.64295,-2.55273c2.5217,0 3.705,1.49795 3.705,3.90886v7.16624zM437.3324,341.77068v-0.585c-0.47685,0.03529 -0.9507,0.10341 -1.41818,0.20386c-0.24334,0.02461 -0.46692,0.14492 -0.62152,0.33443c-0.1546,0.18951 -0.22756,0.4327 -0.2028,0.67602c-0.03859,0.27641 0.04481,0.55595 0.22853,0.76605c0.18372,0.21009 0.44965,0.33001 0.72874,0.32861c0.77557,0 1.28523,-0.73125 1.28523,-1.7417z"/><path d="M441.7066,345.75931v-15.54681h2.73443v15.54681z"/><path d="M445.51796,344.6292l1.0592,-2.38875c0.75831,0.76162 1.77583,1.20946 2.84966,1.2542c0.67364,0 1.19659,-0.1817 1.19659,-0.77114c0,-0.58943 -0.62932,-0.78886 -1.94113,-1.11239c-1.53784,-0.40773 -2.85409,-1.23648 -2.85409,-3.38147c0,-1.90125 1.04591,-3.54545 3.57204,-3.54545c1.34509,-0.02842 2.65496,0.43129 3.68727,1.29409l-1.03261,2.27352c-0.74006,-0.6503 -1.67569,-1.03547 -2.65909,-1.09466c-0.61602,0 -0.91295,0.28364 -0.91295,0.6692c0,0.585 0.49193,0.70466 1.77273,1.05034c1.48023,0.38557 2.98704,1.03261 2.98704,3.34159c0,2.30898 -1.41818,3.76704 -3.86454,3.76704c-1.4087,0.03174 -2.7808,-0.4503 -3.86011,-1.35614z"/><path d="M454.65637,330.21251h3.01363l-0.29693,10.68954h-2.38875zM454.78932,342.07647h2.74773v3.68284h-2.74773z"/></g><g data-paper-data="{&quot;origPos&quot;:null}" fill="#ffffff" stroke="none" stroke-width="1"><path d="M66.72632,336.5633v8.72624h-2.53943l-0.05761,-1.45364h-0.03102c-0.62194,1.07092 -1.78017,1.71551 -3.01807,1.67966c-3.46125,0 -5.20738,-3.54545 -5.20738,-7.87533c0,-4.57806 2.04307,-8.11908 5.91204,-8.11908c2.18045,0 3.74488,1.17443 4.7775,3.10227l-2.0475,1.94557c-0.68693,-1.37829 -1.49352,-2.06523 -2.65909,-2.06523c-2.0475,0 -3.04466,2.21591 -3.04466,5.06113c0,2.84523 0.88636,4.98136 2.84966,4.98136c1.28523,0 2.26909,-1.03261 2.26909,-2.89841v-0.14182h-2.26909v-2.94273z"/><path d="M68.38382,334.4183h2.50841l0.06205,1.7417h0.02659c0.44318,-1.13454 1.09023,-1.94557 2.00318,-1.94557c0.27134,0.00327 0.5377,0.07328 0.77557,0.20386v3.01807c-0.25116,-0.04954 -0.50629,-0.07624 -0.76227,-0.07977c-1.20989,0 -1.87909,0.94841 -1.87909,2.12284v5.81011h-2.73443z"/><path d="M74.82325,329.74273h2.74329v2.99591h-2.76102zM74.82325,345.28954v-10.87124h2.74329v10.87124z"/><path d="M80.01734,336.86909h-1.37386v-2.45079h1.37386v-1.03261c0,-2.36659 0.85091,-3.86454 3.03136,-3.86454c0.47877,-0.00397 0.95444,0.07706 1.40489,0.23932v2.51284c-0.21133,-0.07071 -0.43309,-0.10517 -0.65591,-0.10193c-0.82432,0 -1.04591,0.36341 -1.04591,1.23648v1.01045h1.70182v2.45079h-1.70182v8.42045h-2.73443z"/><path d="M86.3371,336.86909h-1.37386v-2.45079h1.37386v-1.03261c0,-2.36659 0.85091,-3.86454 3.03136,-3.86454c0.47733,-0.00411 0.95157,0.07693 1.40045,0.23932v2.51284c-0.21116,-0.07138 -0.43304,-0.10587 -0.65591,-0.10193c-0.81989,0 -1.02375,0.35455 -1.02375,1.24091v1.01045h1.70182v2.44636h-1.70182v8.42045h-2.73z"/><path d="M94.66892,344.07522h-0.03102v4.92375h-2.73443v-14.58067h2.50398l0.07534,1.52011h0.03102c0.59829,-1.09466 1.4492,-1.7417 2.45079,-1.7417c2.10511,0 3.34159,2.38875 3.34159,5.6284c0,3.23966 -1.32954,5.69045 -3.37261,5.69045c-0.93511,0 -1.69739,-0.52739 -2.26466,-1.44034zM97.5496,339.865c0,-1.66193 -0.47864,-2.99591 -1.49352,-2.99591c-1.01489,0 -1.50682,1.29409 -1.50682,3.03579c0,1.7417 0.50523,2.93829 1.49352,2.93829c0.98829,0 1.50682,-1.27636 1.50682,-2.97818z"/><path d="M106.30243,345.28954l-0.07534,-1.47579h-0.03102c-0.49193,1.09466 -1.32954,1.70182 -2.37545,1.70182c-1.59545,0 -2.65909,-1.40045 -2.65909,-3.34159c0,-1.23648 0.41659,-2.30898 1.56886,-2.83636c0.83318,-0.38114 2.02977,-0.48307 3.34159,-0.54511v-0.60716c0,-0.88636 -0.44318,-1.41818 -1.19216,-1.41818c-0.74898,0 -1.20989,0.56727 -1.43591,1.32954l-2.01204,-1.32954c0.63818,-1.72398 1.74614,-2.55273 3.64295,-2.55273c2.5217,0 3.70057,1.49795 3.70057,3.90886v7.16624zM106.0897,341.30091v-0.585c-0.47681,0.03561 -0.95064,0.10372 -1.41818,0.20386c-0.50495,0.05351 -0.87154,0.50531 -0.81989,1.01045c-0.03859,0.27641 0.04481,0.55595 0.22853,0.76605c0.18372,0.21009 0.44965,0.33001 0.72874,0.32861c0.77557,0 1.28079,-0.74898 1.28079,-1.7417z"/><path d="M109.66175,334.4183h1.38716v-3.43909h2.70341v3.43909h1.71954v2.45079h-1.71954v4.61795c0,0.84648 0.23932,1.37386 1.15227,1.37386c0.19054,-0.00028 0.38057,-0.01958 0.56727,-0.05761v2.46852c-0.51132,0.1638 -1.04525,0.24605 -1.58216,0.24375c-1.97216,0 -2.84079,-1.17443 -2.84079,-3.34159v-5.31818h-1.38716z"/><path d="M116.15879,339.90488c0,-3.25738 1.4492,-5.70818 4.22352,-5.70818c1.8525,0 3.01807,1.0725 3.64295,2.75216l-2.06079,1.44034c-0.29693,-0.975 -0.76227,-1.54227 -1.4625,-1.54227c-1.09023,0 -1.58216,1.32954 -1.58216,3.01807c0,1.68852 0.50966,2.99591 1.59989,2.99591c0.74454,0 1.2542,-0.60716 1.56443,-1.57773l1.98545,1.43591c-0.59386,1.66193 -1.77273,2.79648 -3.68727,2.79648c-2.74773,0 -4.22352,-2.35329 -4.22352,-5.61068z"/><path d="M124.98696,329.74273h2.73v6.07159h0.03102c0.34746,-0.95778 1.25036,-1.60145 2.26909,-1.61761c1.59545,0 2.68568,1.41818 2.68568,3.58534v7.50749h-2.73v-7.04215c0,-0.74898 -0.32795,-1.35614 -1.01489,-1.35614c-0.78,0 -1.24091,0.74898 -1.24091,1.77273v6.64772h-2.73z"/><path d="M138.15388,339.88716c0,-3.26182 1.4625,-5.69045 4.28556,-5.69045c2.82307,0 4.28556,2.38875 4.28556,5.65056c0,3.26182 -1.4625,5.66829 -4.28556,5.66829c-2.82307,0 -4.28556,-2.38875 -4.28556,-5.6284zM140.9149,339.88716c0,1.67966 0.46534,2.99591 1.51125,2.99591c1.04591,0 1.53784,-1.32954 1.53784,-2.99591c0,-1.66636 -0.46534,-3.01807 -1.51125,-3.01807c-1.04591,0 -1.53784,1.29409 -1.53784,2.99591z"/><path d="M147.97922,334.4183h2.50841l0.06205,1.48023h0.03102c0.49193,-1.09466 1.32954,-1.70182 2.35773,-1.70182c1.6442,0 2.76102,1.45807 2.76102,3.68284v7.40999h-2.73v-7.04215c0,-0.74898 -0.34568,-1.35614 -1.01489,-1.35614c-0.78,0 -1.24091,0.74898 -1.24091,1.77273v6.64772h-2.73443z"/><path d="M171.33488,329.74273l-3.98863,9.45306v6.09375h-2.91613v-6.04943l-3.98863,-9.49738h3.23966l2.2425,5.76136h0.02659l2.28682,-5.76136z"/><path d="M169.93443,339.88716c0,-3.26182 1.4625,-5.69045 4.28556,-5.69045c2.82307,0 4.28556,2.38875 4.28556,5.65056c0,3.26182 -1.4625,5.66829 -4.28556,5.66829c-2.82307,0 -4.28556,-2.38875 -4.28556,-5.6284zM172.69545,339.88716c0,1.67966 0.46534,2.99591 1.50682,2.99591c1.04148,0 1.53784,-1.32954 1.53784,-2.99591c0,-1.66636 -0.44318,-3.01807 -1.50682,-3.01807c-1.06364,0 -1.53784,1.29409 -1.53784,2.99591z"/><path d="M187.43566,345.28954h-2.50841l-0.06205,-1.47579h-0.04875c-0.49193,1.09466 -1.32954,1.70182 -2.35773,1.70182c-1.62648,0 -2.76102,-1.45807 -2.76102,-3.68727v-7.40999h2.73v7.0067c0,0.78886 0.32795,1.39602 1.01932,1.39602c0.77557,0 1.23648,-0.70909 1.23648,-1.70182v-6.7009h2.73443z"/><path d="M190.73736,345.28954v-12.48885h-3.57204v-3.05795h10.06022v3.05795h-3.54545v12.48885z"/><path d="M204.17463,345.28954h-2.51727l-0.06205,-1.47579h-0.02659c-0.49193,1.09466 -1.32954,1.70182 -2.36216,1.70182c-1.62648,0 -2.76102,-1.45807 -2.76102,-3.68727v-7.40999h2.73443v7.0067c0,0.78886 0.32795,1.39602 1.01489,1.39602c0.77557,0 1.23648,-0.70909 1.23648,-1.70182v-6.7009h2.73443z"/><path d="M208.34053,343.81375h-0.03545l-0.06205,1.47579h-2.37545v-15.54681h2.73443v6.09375h0.03102c0.42374,-0.95887 1.3547,-1.59439 2.40204,-1.63977c1.98545,0 3.23966,2.42863 3.23966,5.60625c0,3.17761 -1.29852,5.71261 -3.41693,5.71261c-1.06807,0 -1.95,-0.64704 -2.51727,-1.70182zM211.52258,339.865c0,-1.67966 -0.49193,-2.99591 -1.50682,-2.99591c-1.01489,0 -1.49352,1.37829 -1.49352,3.03579c0,1.6575 0.47864,2.93829 1.47579,2.93829c0.99716,0 1.52454,-1.23648 1.52454,-2.97818z"/><path d="M222.93007,343.55227c-0.68963,1.25633 -2.02906,2.01609 -3.46125,1.96329c-2.89841,0 -4.32988,-2.28682 -4.32988,-5.61068c0,-3.32386 1.41818,-5.70818 4.13488,-5.70818c2.7167,0 3.93988,2.3267 3.93988,5.36693c0.00331,0.44434 -0.02185,0.88843 -0.07534,1.32954h-5.31818c0.11966,1.23204 0.585,2.04307 1.71954,2.04307c0.64261,0 1.2542,-0.32352 1.77273,-1.23648zM220.62996,338.77034c-0.08864,-1.23204 -0.44318,-1.98102 -1.37386,-1.98102c-0.93068,0 -1.32954,0.74898 -1.43148,1.98102z"/><path d="M228.45654,337.73773h3.85125v3.05795h-3.85125z"/><path d="M238.1046,345.28954v-15.54681h8.13681v3.01807h-5.22511v3.42136h4.51602v2.99147h-4.51602v6.1159z"/><path d="M246.70675,339.88716c0,-3.26182 1.4625,-5.69045 4.28556,-5.69045c2.82307,0 4.29,2.38875 4.29,5.65056c0,3.26182 -1.4625,5.66829 -4.28556,5.66829c-2.82307,0 -4.29,-2.38875 -4.29,-5.6284zM249.46777,339.88716c0,1.67966 0.44318,2.99591 1.51125,2.99591c1.06807,0 1.53341,-1.32954 1.53341,-2.99591c0,-1.66636 -0.44318,-3.01807 -1.50682,-3.01807c-1.06364,0 -1.53784,1.29409 -1.53784,2.99591z"/><path d="M256.53209,334.4183h2.50841l0.06205,1.7417h0.02659c0.44318,-1.13454 1.09023,-1.94557 2.00318,-1.94557c0.27126,0.00381 0.53749,0.07379 0.77557,0.20386v3.01807c-0.2512,-0.0493 -0.50631,-0.076 -0.76227,-0.07977c-1.20989,0 -1.87466,0.93068 -1.87466,2.12284v5.81011h-2.73443z"/><path d="M266.47708,334.4183h1.39159v-3.43909h2.69898v3.43909h1.71954v2.45079h-1.71954v4.61795c0,0.84648 0.23932,1.37386 1.15227,1.37386c0.19054,-0.00028 0.38057,-0.01958 0.56727,-0.05761v2.46852c-0.51132,0.1638 -1.04525,0.24605 -1.58216,0.24375c-1.97216,0 -2.83636,-1.17443 -2.83636,-3.34159v-5.31818h-1.39159z"/><path d="M273.5281,329.74273h2.73v6.07159h0.03102c0.34746,-0.95778 1.25036,-1.60145 2.26909,-1.61761c1.59989,0 2.68568,1.41818 2.68568,3.58534v7.50749h-2.73v-7.04215c0,-0.74898 -0.32795,-1.35614 -1.01489,-1.35614c-0.77557,0 -1.24091,0.74898 -1.24091,1.77273v6.64772h-2.73z"/><path d="M290.24933,343.55227c-0.68809,1.25785 -2.02854,2.01818 -3.46125,1.96329c-2.89841,0 -4.32988,-2.28682 -4.32988,-5.61068c0,-3.32386 1.41818,-5.70818 4.13488,-5.70818c2.7167,0 3.93988,2.3267 3.93988,5.36693c0.00232,0.44419 -0.02136,0.88813 -0.07091,1.32954h-5.31818c0.11523,1.23204 0.58057,2.04307 1.71511,2.04307c0.64261,0 1.2542,-0.32352 1.77273,-1.23648zM287.94922,338.77034c-0.08864,-1.23204 -0.44318,-1.98102 -1.36943,-1.98102c-0.92625,0 -1.32954,0.74898 -1.43591,1.98102z"/><path d="M295.23956,343.36613l1.4492,-2.53057c0.84046,1.06495 2.10959,1.70276 3.46568,1.7417c1.19216,0 1.82148,-0.60716 1.82148,-1.63977c0,-1.13454 -0.88636,-1.39602 -2.52613,-1.88352c-1.95443,-0.585 -3.76261,-1.63977 -3.76261,-4.69772c0,-2.65909 1.50682,-4.83511 4.48056,-4.83511c1.67467,-0.01904 3.28121,0.66213 4.43181,1.87909l-1.24091,2.61477c-1.04591,-1.01489 -2.1317,-1.56 -3.25295,-1.56c-0.41693,-0.03232 -0.82715,0.11929 -1.12285,0.41499c-0.2957,0.2957 -0.44731,0.70592 -0.41499,1.12285c0,1.0725 0.78886,1.32954 2.41977,1.80375c2.04307,0.60716 3.86454,1.56 3.86454,4.75534c0,2.87625 -1.6575,4.96363 -4.7642,4.96363c-1.85875,0.05731 -3.64275,-0.73358 -4.84841,-2.14943z"/><path d="M308.78318,344.07522h-0.02659v4.92375h-2.73443v-14.58067h2.50841l0.07534,1.52011h0.03102c0.59386,-1.09466 1.44477,-1.7417 2.44636,-1.7417c2.10511,0 3.34602,2.38875 3.34602,5.6284c0,3.23966 -1.32954,5.69045 -3.37704,5.69045c-0.93954,0 -1.70182,-0.52739 -2.26909,-1.44034zM311.66386,339.865c0,-1.66193 -0.4742,-2.99591 -1.48909,-2.99591c-1.01489,0 -1.51125,1.29409 -1.51125,3.03579c0,1.7417 0.50966,2.93829 1.49352,2.93829c0.98386,0 1.50682,-1.27636 1.50682,-2.97818z"/><path d="M323.08908,343.55227c-0.69035,1.2578 -2.03192,2.01779 -3.46568,1.96329c-2.89398,0 -4.32988,-2.28682 -4.32988,-5.61068c0,-3.32386 1.41818,-5.70818 4.13488,-5.70818c2.7167,0 3.94432,2.3267 3.94432,5.36693c0.00104,0.44428 -0.02412,0.88823 -0.07534,1.32954h-5.31818c0.11966,1.23204 0.58057,2.04307 1.71511,2.04307c0.64261,0 1.2542,-0.32352 1.77273,-1.23648zM320.78897,338.77034c-0.08864,-1.23204 -0.44318,-1.98102 -1.37386,-1.98102c-0.93068,0 -1.32954,0.74898 -1.43148,1.98102z"/><path d="M331.95271,343.55227c-0.69035,1.2578 -2.03192,2.01779 -3.46568,1.96329c-2.89398,0 -4.32988,-2.28682 -4.32988,-5.61068c0,-3.32386 1.41818,-5.70818 4.13931,-5.70818c2.65909,0 3.93988,2.3267 3.93988,5.36693c0.00104,0.44428 -0.02412,0.88823 -0.07534,1.32954h-5.31818c0.11966,1.23204 0.585,2.04307 1.71954,2.04307c0.63818,0 1.2542,-0.32352 1.77273,-1.23648zM329.6526,338.77034c-0.08864,-1.23204 -0.44318,-1.98102 -1.37386,-1.98102c-0.93068,0 -1.32954,0.74898 -1.43148,1.98102z"/><path d="M333.03851,339.92704c0,-3.26182 1.29852,-5.73034 3.34159,-5.73034c0.95727,0 1.73284,0.54511 2.30011,1.47579h0.03102v-5.92977h2.73v15.54681h-2.5217l-0.05761,-1.51568h-0.03102c-0.56727,1.09466 -1.4625,1.7417 -2.50841,1.7417c-2.06079,0 -3.28397,-2.41091 -3.28397,-5.58852zM338.79986,339.84727c0,-1.7417 -0.49193,-2.97818 -1.50682,-2.97818c-1.01489,0 -1.49352,1.27636 -1.49352,3.01807c0,1.61761 0.47864,2.95602 1.49352,2.95602c1.01489,0 1.50682,-1.31625 1.50682,-2.99591z"/><path d="M343.14747,334.4183h2.50841l0.05761,1.7417h0.03102c0.44318,-1.13454 1.09023,-1.94557 1.99875,-1.94557c0.27274,0.00327 0.54054,0.07326 0.78,0.20386v3.01807c-0.2512,-0.0493 -0.50631,-0.076 -0.76227,-0.07977c-1.20989,0 -1.88352,0.94841 -1.88352,2.12284v5.81011h-2.73z"/><path d="M357.27167,345.28954h-2.50841l-0.05761,-1.47579h-0.03102c-0.49193,1.09466 -1.32954,1.70182 -2.35773,1.70182c-1.63091,0 -2.76545,-1.45807 -2.76545,-3.68727v-7.40999h2.73443v7.0067c0,0.78886 0.32795,1.39602 1.01489,1.39602c0.77557,0 1.24091,-0.70909 1.24091,-1.70182v-6.7009h2.73z"/><path d="M358.98678,334.4183h2.50841l0.05761,1.48023h0.03102c0.49193,-1.09466 1.32954,-1.70182 2.35773,-1.70182c1.6442,0 2.76102,1.45807 2.76102,3.68284v7.40999h-2.73v-7.04215c0,-0.74898 -0.34568,-1.35614 -1.01489,-1.35614c-0.77557,0 -1.24091,0.74898 -1.24091,1.77273v6.64772h-2.73z"/><path d="M380.82233,345.28954l-0.88636,-1.29409c-0.79672,1.0271 -2.04834,1.59572 -3.34602,1.52011c-2.95602,0 -4.46284,-1.98545 -4.46284,-4.61795c-0.06534,-1.83545 0.87838,-3.55966 2.45966,-4.49386c-0.73125,-1.0725 -1.2542,-2.10511 -1.2542,-3.35932c0,-1.88352 1.13454,-3.54545 3.73602,-3.54545c2.3267,0 3.59863,1.39602 3.59863,3.50113c0,1.56 -0.68693,2.65909 -2.07852,3.60307l-0.44318,0.3058l1.50682,2.12284l0.64261,-2.04307h2.68568l-1.52011,4.59579l2.61034,3.68284zM375.84984,338.19864c-0.56352,0.63178 -0.85776,1.45881 -0.81989,2.30454c0,1.29409 0.59829,2.28682 1.70182,2.28682c0.65591,0 1.14784,-0.34568 1.58216,-1.05477zM376.17779,333.32364c0.02721,0.64585 0.25839,1.26647 0.66034,1.77273c0.642,-0.34205 1.03888,-1.01434 1.02818,-1.7417c0,-0.65148 -0.23932,-1.21432 -0.83761,-1.21432c-0.59829,0 -0.85091,0.57614 -0.85091,1.18773z"/><path d="M391.24596,345.28954v-12.48885h-3.54545v-3.05795h10.06465v3.05795h-3.58977v12.48885z"/><path d="M404.68765,345.28954h-2.50841l-0.06205,-1.47579h-0.02659c-0.49636,1.09466 -1.32954,1.70182 -2.36216,1.70182c-1.62648,0 -2.76102,-1.45807 -2.76102,-3.68727v-7.40999h2.73443v7.0067c0,0.78886 0.32795,1.39602 1.01489,1.39602c0.77557,0 1.23648,-0.70909 1.23648,-1.70182v-6.7009h2.73443z"/><path d="M405.65822,334.4183h1.38716v-3.43909h2.70341v3.43909h1.71954v2.45079h-1.71954v4.61795c0,0.84648 0.23932,1.37386 1.15227,1.37386c0.19054,-0.00028 0.38057,-0.01958 0.56727,-0.05761v2.46852c-0.51132,0.1638 -1.04525,0.24605 -1.58216,0.24375c-1.97216,0 -2.84079,-1.17443 -2.84079,-3.34159v-5.31818h-1.38716z"/><path d="M412.14197,339.88716c0,-3.26182 1.4625,-5.69045 4.28113,-5.69045c2.81863,0 4.28556,2.38875 4.28556,5.65056c0,3.26182 -1.4492,5.66829 -4.28556,5.66829c-2.83636,0 -4.28113,-2.38875 -4.28113,-5.6284zM414.90299,339.88716c0,1.67966 0.44318,2.99591 1.50682,2.99591c1.06364,0 1.53784,-1.32954 1.53784,-2.99591c0,-1.66636 -0.44318,-3.01807 -1.50682,-3.01807c-1.06364,0 -1.53784,1.29409 -1.53784,2.99591z"/><path d="M421.9673,334.4183h2.50841l0.05761,1.7417h0.04432c0.44318,-1.13454 1.09023,-1.94557 1.99875,-1.94557c0.27267,0.0038 0.54034,0.07376 0.78,0.20386v3.01807c-0.2512,-0.0493 -0.50631,-0.076 -0.76227,-0.07977c-1.20989,0 -1.88352,0.94841 -1.88352,2.12284v5.81011h-2.73z"/><path d="M428.4023,329.74273h2.76102v2.99591h-2.76102zM428.4023,345.28954v-10.87124h2.73443v10.87124z"/><path d="M437.5407,345.28954l-0.07534,-1.47579h-0.03545c-0.49193,1.09466 -1.32954,1.70182 -2.37102,1.70182c-1.59989,0 -2.65909,-1.40045 -2.65909,-3.34159c0,-1.23648 0.42102,-2.30898 1.56886,-2.83636c0.83761,-0.38114 2.02977,-0.48307 3.34602,-0.54511v-0.60716c0,-0.88636 -0.44318,-1.41818 -1.19659,-1.41818c-0.75341,0 -1.20989,0.56727 -1.43148,1.32954l-2.01648,-1.32954c0.64261,-1.72398 1.74614,-2.55273 3.64295,-2.55273c2.5217,0 3.705,1.49795 3.705,3.90886v7.16624zM437.3324,341.30091v-0.585c-0.47685,0.03529 -0.9507,0.10341 -1.41818,0.20386c-0.24334,0.02461 -0.46692,0.14492 -0.62152,0.33443c-0.1546,0.18951 -0.22756,0.4327 -0.2028,0.67602c-0.03859,0.27641 0.04481,0.55595 0.22853,0.76605c0.18372,0.21009 0.44965,0.33001 0.72874,0.32861c0.77557,0 1.28523,-0.74898 1.28523,-1.7417z"/><path d="M441.7066,345.28954v-15.54681h2.73443v15.54681z"/><path d="M445.51796,344.15943l1.0592,-2.38875c0.75831,0.76162 1.77583,1.20946 2.84966,1.2542c0.67364,0 1.19659,-0.1817 1.19659,-0.77114c0,-0.58943 -0.62932,-0.78886 -1.94113,-1.11239c-1.53784,-0.4033 -2.85409,-1.23648 -2.85409,-3.38147c0,-1.90125 1.04591,-3.54545 3.57204,-3.54545c1.34509,-0.02842 2.65496,0.43129 3.68727,1.29409l-1.03261,2.27352c-0.74006,-0.6503 -1.67569,-1.03547 -2.65909,-1.09466c-0.61602,0 -0.91295,0.28364 -0.91295,0.6692c0,0.585 0.49193,0.70909 1.77273,1.05034c1.48023,0.38557 2.98704,1.03261 2.98704,3.34159c0,2.30898 -1.41818,3.76704 -3.86454,3.76704c-1.4087,0.03174 -2.7808,-0.4503 -3.86011,-1.35614z"/><path d="M454.65637,329.74273h3.01363l-0.31023,10.68954h-2.38875zM454.78932,341.6067h2.74773v3.68284h-2.74773z"/></g><path d="M44.81986,326.69808c1.4277,0.37782 2.54275,1.49287 2.92057,2.92057c0.69579,2.61034 0.69579,8.03931 0.69579,8.03931c0,0 0,5.41125 -0.69579,8.00386c-0.37809,1.4312 -1.49168,2.55155 -2.92057,2.93829c-2.61477,0.67807 -13.04283,0.67807 -13.04283,0.67807c0,0 -10.38374,0 -13.01624,-0.69579c-1.42781,-0.39916 -2.54356,-1.51491 -2.94273,-2.94273c-0.67807,-2.57045 -0.67807,-7.99943 -0.67807,-7.99943c0,0 0,-5.41125 0.67807,-8.02158c0.40328,-1.43005 1.51574,-2.55089 2.94273,-2.96488c2.61034,-0.67807 13.01624,-0.67807 13.01624,-0.67807c0,0 10.42806,0 13.04283,0.72239zM28.46647,332.64114v9.97602l8.65977,-4.97693l-8.65977,-5.01681z" data-paper-data="{&quot;origPos&quot;:null}" fill="#ff0000" stroke="none" stroke-width="1"/></g></g></svg>