<svg version="1.1" xmlns="http://www.w3.org/2000/svg" xmlns:xlink="http://www.w3.org/1999/xlink" width="16.12432" height="24.26504"><g transform="translate(-231.82,-154.31508)"><g data-paper-data="{&quot;isPaintingLayer&quot;:true}" fill="none" fill-rule="nonzero" stroke="none" stroke-width="1" stroke-linecap="butt" stroke-linejoin="miter" stroke-miterlimit="10" stroke-dasharray="" stroke-dashoffset="0" font-family="none" font-weight="none" font-size="none" text-anchor="none" style="mix-blend-mode: normal"><path d="M241,164.97v5.7l2.48,1.65l0.08,0.07c0.05169,0.04507 0.0986,0.09533 0.14,0.15c0.04227,0.04926 0.07914,0.1029 0.11,0.16l0.06,0.09l1.49,3.79h1.48c0.55228,0 1,0.44772 1,1c0,0.55228 -0.44772,1 -1,1h-2.11v0c-0.12033,0.00201 -0.2397,-0.02186 -0.35,-0.07l-0.17,-0.07l-0.07,-0.06c-0.20076,-0.12789 -0.34413,-0.32862 -0.4,-0.56l-1.58,-4l-2.16,-1.42l-2.39,1.43l-1.63,4c-0.05982,0.2215 -0.19399,0.41569 -0.38,0.55l-0.1,0.06l-0.14,0.07c-0.11548,0.04244 -0.23703,0.06607 -0.36,0.07h-2.18c-0.55228,0 -1,-0.44772 -1,-1c0,-0.55228 0.44772,-1 1,-1h1.51l1.55,-3.8c0.01,-0.04 0.06,-0.1 0.06,-0.1c0.0295,-0.06099 0.06645,-0.1181 0.11,-0.17c0.04293,-0.05087 0.09354,-0.09473 0.15,-0.13c0.01841,-0.03381 0.04619,-0.06159 0.08,-0.08l2.72,-1.69v-5.71h-3.36c-0.14149,-0.00066 -0.28124,-0.03133 -0.41,-0.09l-0.09,-0.06c-0.09049,-0.04883 -0.17171,-0.11313 -0.24,-0.19v0l-2.36,-2.95c-0.16665,-0.20784 -0.24347,-0.47359 -0.21344,-0.7383c0.03004,-0.2647 0.16445,-0.50648 0.37344,-0.6717c0.4366,-0.3358 1.06254,-0.25532 1.4,0.18l2.06,2.61h2.84v-0.68c-1.98435,-0.50429 -3.28272,-2.40722 -3.02861,-4.43882c0.25411,-2.0316 1.98118,-3.5561 4.02861,-3.5561c2.04743,0 3.7745,1.5245 4.02861,3.5561c0.25411,2.0316 -1.04425,3.93452 -3.02861,4.43882v0.66l2.77,0.11l2.4,-2.55c0.23695,-0.28991 0.61601,-0.42317 0.98225,-0.3453c0.36624,0.07787 0.6583,0.35381 0.75681,0.71505c0.09851,0.36124 -0.01304,0.74724 -0.28906,1.00025l-2.69,2.87v0c-0.07885,0.07786 -0.17009,0.14206 -0.27,0.19h-0.06c-0.12028,0.04997 -0.24981,0.07383 -0.38,0.07v0z" fill="#ffee00"/><path d="M241,164.97v5.7l2.48,1.65l0.08,0.07c0.05169,0.04507 0.0986,0.09533 0.14,0.15c0.04227,0.04926 0.07914,0.1029 0.11,0.16l0.06,0.09l1.49,3.79h1.48c0.55228,0 1,0.44772 1,1c0,0.55228 -0.44772,1 -1,1h-2.11v0c-0.12033,0.00201 -0.2397,-0.02186 -0.35,-0.07l-0.17,-0.07l-0.07,-0.06c-0.20076,-0.12789 -0.34413,-0.32862 -0.4,-0.56l-1.58,-4l-2.16,-1.42l-2.39,1.43l-1.63,4c-0.05982,0.2215 -0.19399,0.41569 -0.38,0.55l-0.1,0.06l-0.14,0.07c-0.11548,0.04244 -0.23703,0.06607 -0.36,0.07h-2.18c-0.55228,0 -1,-0.44772 -1,-1c0,-0.55228 0.44772,-1 1,-1h1.51l1.55,-3.8c0.01,-0.04 0.06,-0.1 0.06,-0.1c0.0295,-0.06099 0.06645,-0.1181 0.11,-0.17c0.04293,-0.05087 0.09354,-0.09473 0.15,-0.13c0.01841,-0.03381 0.04619,-0.06159 0.08,-0.08l2.72,-1.69v-5.71h-3.36c-0.14149,-0.00066 -0.28124,-0.03133 -0.41,-0.09l-0.09,-0.06c-0.09049,-0.04883 -0.17171,-0.11313 -0.24,-0.19v0l-2.36,-2.95c-0.16665,-0.20784 -0.24347,-0.47359 -0.21344,-0.7383c0.03004,-0.2647 0.16445,-0.50648 0.37344,-0.6717c0.4366,-0.3358 1.06254,-0.25532 1.4,0.18l2.06,2.61h2.84v-0.68c-1.98435,-0.50429 -3.28272,-2.40722 -3.02861,-4.43882c0.25411,-2.0316 1.98118,-3.5561 4.02861,-3.5561c2.04743,0 3.7745,1.5245 4.02861,3.5561c0.25411,2.0316 -1.04425,3.93452 -3.02861,4.43882v0.66l2.77,0.11l2.4,-2.55c0.23695,-0.28991 0.61601,-0.42317 0.98225,-0.3453c0.36624,0.07787 0.6583,0.35381 0.75681,0.71505c0.09851,0.36124 -0.01304,0.74724 -0.28906,1.00025l-2.69,2.87v0c-0.07885,0.07786 -0.17009,0.14206 -0.27,0.19h-0.06c-0.12028,0.04997 -0.24981,0.07383 -0.38,0.07v0z" fill="#ff9400"/></g></g></svg>