<svg version="1.1" xmlns="http://www.w3.org/2000/svg" xmlns:xlink="http://www.w3.org/1999/xlink" width="20.98298" height="16.97724" viewBox="0,0,20.98298,16.97724"><g transform="translate(-229.29811,-158.98943)"><g data-paper-data="{&quot;isPaintingLayer&quot;:true}" fill="#ff9400" fill-rule="nonzero" stroke="none" stroke-width="1" stroke-linecap="butt" stroke-linejoin="miter" stroke-miterlimit="10" stroke-dasharray="" stroke-dashoffset="0" style="mix-blend-mode: normal"><path d="M248.77999,161.89943l-1.19,-0.79l-3.69,1.56h-0.16c-0.06989,0.00566 -0.14011,0.00566 -0.21,0l-2.53,0.15v3.69h3.25v0c0.07301,-0.00976 0.14699,-0.00976 0.22,0l3.78,0.86c0.25868,0.05952 0.48307,0.21944 0.62375,0.44453c0.14068,0.22509 0.1861,0.49687 0.12625,0.75547c-0.13747,0.52653 -0.67073,0.84648 -1.2,0.72l-3.67,-0.84h-2.28c1.60973,0.87186 2.42214,2.72527 1.97243,4.49985c-0.44971,1.77458 -2.04675,3.01739 -3.87743,3.01739c-1.83068,0 -3.42772,-1.24281 -3.87743,-3.01739c-0.44971,-1.77458 0.3627,-3.62799 1.97243,-4.49985h-2.22l-3.43,0.95c-0.25594,0.07048 -0.5294,0.0363 -0.76012,-0.095c-0.23072,-0.1313 -0.39977,-0.34896 -0.46988,-0.605c-0.14749,-0.53 0.16082,-1.0796 0.69,-1.23l3.57,-1c0.08636,-0.01037 0.17364,-0.01037 0.26,0h3.32v-3.67h-2.77c-0.05653,0.00561 -0.11347,0.00561 -0.17,0c-0.05318,0.00563 -0.10682,0.00563 -0.16,0l-3.9,-1.43l-1.15,0.83c-0.44731,0.29598 -1.04846,0.18635 -1.3625,-0.24847c-0.31404,-0.43482 -0.2291,-1.03996 0.1925,-1.37153l1.53,-1.12c0.0984,-0.07918 0.21015,-0.14014 0.33,-0.18c0.10613,-0.01518 0.21387,-0.01518 0.32,0c0.09187,0.01042 0.18237,0.03053 0.27,0.06h0.06c0.04862,0.01059 0.09567,0.0274 0.14,0.05l4,1.47h3.46h0.12v0l3.29,-0.08l3.84,-1.63c0.15809,-0.10215 0.3418,-0.15761 0.53,-0.16c0.21901,0.00266 0.43193,0.07247 0.61,0.2l1.61,1.07c0.31895,0.18856 0.5075,0.53801 0.48998,0.90811c-0.01751,0.3701 -0.23823,0.70017 -0.57356,0.85776c-0.33533,0.15758 -0.7303,0.11684 -1.02641,-0.10587z" data-paper-data="{&quot;index&quot;:null}"/><path d="M248.77999,161.89943l-1.19,-0.79l-3.69,1.56h-0.16c-0.06989,0.00566 -0.14011,0.00566 -0.21,0l-2.53,0.15v3.69h3.25v0c0.07301,-0.00976 0.14699,-0.00976 0.22,0l3.78,0.86c0.25868,0.05952 0.48307,0.21944 0.62375,0.44453c0.14068,0.22509 0.1861,0.49687 0.12625,0.75547c-0.13747,0.52653 -0.67073,0.84648 -1.2,0.72l-3.67,-0.84h-2.28c1.60973,0.87186 2.42214,2.72527 1.97243,4.49985c-0.44971,1.77458 -2.04675,3.01739 -3.87743,3.01739c-1.83068,0 -3.42772,-1.24281 -3.87743,-3.01739c-0.44971,-1.77458 0.3627,-3.62799 1.97243,-4.49985h-2.22l-3.43,0.95c-0.25594,0.07048 -0.5294,0.0363 -0.76012,-0.095c-0.23072,-0.1313 -0.39977,-0.34896 -0.46988,-0.605c-0.14749,-0.53 0.16082,-1.0796 0.69,-1.23l3.57,-1c0.08636,-0.01037 0.17364,-0.01037 0.26,0h3.32v-3.67h-2.77c-0.05653,0.00561 -0.11347,0.00561 -0.17,0c-0.05318,0.00563 -0.10682,0.00563 -0.16,0l-3.9,-1.43l-1.15,0.83c-0.44731,0.29598 -1.04846,0.18635 -1.3625,-0.24847c-0.31404,-0.43482 -0.2291,-1.03996 0.1925,-1.37153l1.53,-1.12c0.0984,-0.07918 0.21015,-0.14014 0.33,-0.18c0.10613,-0.01518 0.21387,-0.01518 0.32,0c0.09187,0.01042 0.18237,0.03053 0.27,0.06h0.06c0.04862,0.01059 0.09567,0.0274 0.14,0.05l4,1.47h3.46h0.12v0l3.29,-0.08l3.84,-1.63c0.15809,-0.10215 0.3418,-0.15761 0.53,-0.16c0.21901,0.00266 0.43193,0.07247 0.61,0.2l1.61,1.07c0.31895,0.18856 0.5075,0.53801 0.48998,0.90811c-0.01751,0.3701 -0.23823,0.70017 -0.57356,0.85776c-0.33533,0.15758 -0.7303,0.11684 -1.02641,-0.10587z" data-paper-data="{&quot;index&quot;:null}"/></g></g></svg>