<svg version="1.1" xmlns="http://www.w3.org/2000/svg" xmlns:xlink="http://www.w3.org/1999/xlink" width="802.40091" height="527" viewBox="0,0,802.40091,527"><g transform="translate(112.69662,85.44738)"><g data-paper-data="{&quot;isPaintingLayer&quot;:true}" fill-rule="nonzero" stroke-linecap="butt" stroke-linejoin="miter" stroke-miterlimit="10" stroke-dasharray="" stroke-dashoffset="0" style="mix-blend-mode: normal"><path d="M405.30338,292.05258v-282l26.99999,-3.00001l0.5,28.5l254.50001,256.50001z" fill="#7091a1" stroke="#000000" stroke-width="2"/><path d="M409.3034,-5.57483v234.47504h-35v-234.47504z" data-paper-data="{&quot;index&quot;:null}" fill="#789aab" stroke="#000000" stroke-width="4"/><path d="M409.3034,-3.89494v265.25025h-35v-265.25025z" data-paper-data="{&quot;index&quot;:null}" fill="#789aab" stroke="none" stroke-width="0"/><path d="M409.3034,3.43842v26h-35v-26z" data-paper-data="{&quot;index&quot;:null}" fill="#58717e" stroke="none" stroke-width="0"/><path d="M431.8034,6.93842v26h-20.25v-26z" data-paper-data="{&quot;index&quot;:null}" fill="#58717e" stroke="none" stroke-width="0"/><path d="M434.30339,-15.06158v30h-138v-30z" data-paper-data="{&quot;index&quot;:null}" fill="#2d81ab" stroke="#000000" stroke-width="2"/><path d="M400.7135,90.05255c0,4.97056 -4.02944,9 -9,9c-4.97056,0 -9,-4.02944 -9,-9c0,-4.97056 4.02944,-9 9,-9c4.97056,0 9,4.02944 9,9z" data-paper-data="{&quot;index&quot;:null}" fill="#2d81ab" stroke="#000000" stroke-width="2"/><path d="M400.7135,57.05255c0,4.97056 -4.02944,9 -9,9c-4.97056,0 -9,-4.02944 -9,-9c0,-4.97056 4.02944,-9 9,-9c4.97056,0 9,4.02944 9,9z" data-paper-data="{&quot;index&quot;:null}" fill="#2d81ab" stroke="#000000" stroke-width="2"/><path d="M-112.69662,441.55262v-527h701v527z" fill="none" stroke="none" stroke-width="0"/><path d="M-21.16666,374.5001l-0.33334,-209.14815h213.4702c0.18035,53.80368 44.01149,97.52127 97.85525,97.52127c53.84376,0 97.6749,-43.71759 97.85524,-97.52127h105.34026l0.33333,209.14815z" fill="#2d81ab" stroke="#000000" stroke-width="4"/><path d="M-25.5,374.5001l1,-209.14815h216.4702c0.18035,53.80368 44.01149,97.52127 97.85525,97.52127c53.84376,0 97.6749,-43.71759 97.85524,-97.52127h105.34026l0.33333,209.14815z" fill="#2d81ab" stroke="none" stroke-width="0"/><path d="M-50.83333,374.16681v-144.14815h65.52095l35.66667,144.14815z" data-paper-data="{&quot;index&quot;:null}" fill="#226282" stroke="none" stroke-width="0"/><path d="M-44.5,374.50015v-144.14815h56.52095l22,144.14815z" data-paper-data="{&quot;index&quot;:null}" fill="#2d81ab" stroke="#000000" stroke-width="4"/><path d="M-52.5,374.50015v-144.14815h64.52095l22,144.14815z" data-paper-data="{&quot;index&quot;:null}" fill="#2d81ab" stroke="none" stroke-width="0"/></g></g></svg>