<svg version="1.1" xmlns="http://www.w3.org/2000/svg" xmlns:xlink="http://www.w3.org/1999/xlink" width="701" height="527" viewBox="0,0,701,527"><g transform="translate(112.69662,85.44742)"><g data-paper-data="{&quot;isPaintingLayer&quot;:true}" fill-rule="nonzero" stroke-linecap="butt" stroke-linejoin="miter" stroke-miterlimit="10" stroke-dasharray="" stroke-dashoffset="0" style="mix-blend-mode: normal"><path d="M-112.69662,441.55258v-527h701v527z" fill="none" stroke="none" stroke-width="0"/><path d="M-24.98791,290.71926l-0.16668,-255.16668l254.50001,256.50001z" fill="#7091a1" stroke="#000000" stroke-width="2"/><path d="M-29.86329,289.38591v-258.13333l6.13333,8.6l1.2,249.53333z" fill="#7091a1" stroke="#000000" stroke-width="0"/><path d="M-30.28653,382.1051v-216.89634c0,0 41.26111,0 66.58991,0c20.37772,0 58.36359,94.81301 219.55336,96c135.79716,1 136.04839,26 136.04839,26v94.89634z" fill="#2d81ab" stroke="#000000" stroke-width="4"/><path d="M-34.29103,382.1051v-216.89634c0,0 45.26561,0 70.59441,0c20.37772,0 58.36358,94.81301 219.55336,96c135.79716,1 136.04839,26 136.04839,26v94.89634z" fill="#2d81ab" stroke="none" stroke-width="0"/><path d="M345.60675,382.6051c0,0 0,-51.81186 0,-69.5c0,-10.92227 17.61497,-26.5 29,-26.5c16.30773,0 59.5,0 59.5,0v96z" fill="#789aab" stroke="#000000" stroke-width="2"/><path d="M403.60675,308.10502c0,-4.97056 4.02944,-9 9,-9c4.97056,0 9,4.02944 9,9c0,4.97056 -4.02944,9 -9,9c-4.97056,0 -9,-4.02944 -9,-9z" fill="#2d81ab" stroke="#000000" stroke-width="2"/></g></g></svg>