<svg version="1.1" xmlns="http://www.w3.org/2000/svg" xmlns:xlink="http://www.w3.org/1999/xlink" width="701" height="527" viewBox="0,0,701,527"><g transform="translate(112.69662,85.44746)"><g data-paper-data="{&quot;isPaintingLayer&quot;:true}" fill-rule="nonzero" stroke-linecap="butt" stroke-linejoin="miter" stroke-miterlimit="10" stroke-dasharray="" stroke-dashoffset="0" style="mix-blend-mode: normal"><path d="M231.30338,384.05258c0,0 0,-329.5993 0,-389.28039c0,-17.8235 18.40215,-34.7196 36,-34.7196c13.08725,0 39.00328,0 69.84831,0c83.16143,0 202.15169,119 202.15169,119v305z" fill="#2d81ab" stroke="#000000" stroke-width="4"/><path d="M231.30338,384.05258c0,0 0,-329.5993 0,-389.28039c0,-17.8235 18.40215,-34.7196 36,-34.7196c13.08725,0 39.00328,0 69.84831,0c83.16143,0 202.15169,119 202.15169,119v305z" fill="#2d81ab" stroke="none" stroke-width="0"/><path d="M-112.69662,441.55254v-527h701v527z" fill="none" stroke="none" stroke-width="0"/><path d="M226.21349,32.60505c0,0 0,-34.81186 0,-52.5c0,-10.92227 17.61497,-26.5 29,-26.5c16.30773,0 59.5,0 59.5,0v79z" data-paper-data="{&quot;index&quot;:null}" fill="#789aab" stroke="#000000" stroke-width="2"/><path d="M283.21349,-23.89497c0,-4.97056 4.02944,-9 9,-9c4.97056,0 9,4.02944 9,9c0,4.97056 -4.02944,9 -9,9c-4.97056,0 -9,-4.02944 -9,-9z" data-paper-data="{&quot;index&quot;:null}" fill="#2d81ab" stroke="#000000" stroke-width="2"/></g></g></svg>