<svg version="1.1" xmlns="http://www.w3.org/2000/svg" xmlns:xlink="http://www.w3.org/1999/xlink" width="21.00753" height="9.01864" viewBox="0,0,21.00753,9.01864"><g transform="translate(-229.3018,-159.97858)"><g data-paper-data="{&quot;isPaintingLayer&quot;:true}" fill="#ff9400" fill-rule="nonzero" stroke="none" stroke-width="1" stroke-linecap="butt" stroke-linejoin="miter" stroke-miterlimit="10" stroke-dasharray="" stroke-dashoffset="0" style="mix-blend-mode: normal"><path d="M250.28,167.37001c0.13211,0.53565 -0.19455,1.07709 -0.73,1.21l-1.66,0.41c-0.07971,0.00963 -0.16029,0.00963 -0.24,0h-0.12l-4.12,-0.64h-3.41h-3.72l-4.28,0.58h-0.1c-0.08636,0.01037 -0.17364,0.01037 -0.26,0l-1.59,-0.43c-0.53572,-0.14083 -0.85583,-0.68928 -0.715,-1.225c0.14083,-0.53572 0.68928,-0.85583 1.225,-0.715l1.38,0.37l4.14,-0.56h1l-0.08,-0.09h-1.41l-3.56,-0.36c-0.26395,-0.02771 -0.50605,-0.15921 -0.67299,-0.36554c-0.16693,-0.20632 -0.245,-0.47054 -0.21701,-0.73446c0.05782,-0.54537 0.54409,-0.94241 1.09,-0.89l3.52,0.36h0.31c-0.16569,-2.20914 1.49086,-4.13431 3.7,-4.3c2.20914,-0.16569 4.13431,1.49086 4.3,3.7c-0.00463,0.20787 -0.02468,0.4151 -0.06,0.62h0.18l3.73,-0.31c0.26545,-0.02497 0.52988,0.05709 0.73455,0.22796c0.20467,0.17087 0.33263,0.4164 0.35545,0.68204c0.04616,0.54927 -0.36085,1.03233 -0.91,1.08l-3.78,0.32h-1.23l-0.08,0.11h0.51h0.07h0.07l4,0.62l1.44,-0.35c0.51406,-0.12354 1.03546,0.1744 1.19,0.68z"/><path d="M250.28,167.37001c0.13211,0.53565 -0.19455,1.07709 -0.73,1.21l-1.66,0.41c-0.07971,0.00963 -0.16029,0.00963 -0.24,0h-0.12l-4.12,-0.64h-3.41h-3.72l-4.28,0.58h-0.1c-0.08636,0.01037 -0.17364,0.01037 -0.26,0l-1.59,-0.43c-0.53572,-0.14083 -0.85583,-0.68928 -0.715,-1.225c0.14083,-0.53572 0.68928,-0.85583 1.225,-0.715l1.38,0.37l4.14,-0.56h1l-0.08,-0.09h-1.41l-3.56,-0.36c-0.26395,-0.02771 -0.50605,-0.15921 -0.67299,-0.36554c-0.16693,-0.20632 -0.245,-0.47054 -0.21701,-0.73446c0.05782,-0.54537 0.54409,-0.94241 1.09,-0.89l3.52,0.36h0.31c-0.16569,-2.20914 1.49086,-4.13431 3.7,-4.3c2.20914,-0.16569 4.13431,1.49086 4.3,3.7c-0.00463,0.20787 -0.02468,0.4151 -0.06,0.62h0.18l3.73,-0.31c0.26545,-0.02497 0.52988,0.05709 0.73455,0.22796c0.20467,0.17087 0.33263,0.4164 0.35545,0.68204c0.04616,0.54927 -0.36085,1.03233 -0.91,1.08l-3.78,0.32h-1.23l-0.08,0.11h0.51h0.07h0.07l4,0.62l1.44,-0.35c0.51406,-0.12354 1.03546,0.1744 1.19,0.68z"/></g></g></svg>