<?xml version="1.0" encoding="utf-8"?>
<!-- Generator: Adobe Illustrator 19.0.0, SVG Export Plug-In . SVG Version: 6.00 Build 0)  -->
<svg version="1.1" id="图层_1" xmlns="http://www.w3.org/2000/svg" xmlns:xlink="http://www.w3.org/1999/xlink" x="0px" y="0px"
	 viewBox="1810.1 300 200 200" style="enable-background:new 1810.1 300 200 200;" xml:space="preserve">
<style type="text/css">
	.st0{clip-path:url(#SVGID_2_);fill:#FFFFFF;}
</style>
<g>
	<g>
		<defs>
			<path id="SVGID_1_" d="M1822.2,316.2H1998c6.7,0,12.1,5.6,12.1,12.5v142.5c0,6.9-5.4,12.5-12.1,12.5h-175.7
				c-6.7,0-12.1-5.6-12.1-12.5V328.7C1810.1,321.8,1815.5,316.2,1822.2,316.2z"/>
		</defs>
		<clipPath id="SVGID_2_">
			<use xlink:href="#SVGID_1_"  style="overflow:visible;"/>
		</clipPath>
		<path class="st0" d="M1974.8,474.7l32.6-87.9c1.2-3.3-1.2-6.9-4.6-6.9h-154.7l-38,102.5h153.8
			C1968.8,482.4,1973.1,479.3,1974.8,474.7z M1835.1,367.6l-25,115.8V316.3h56l25,25.6h77.8c1.8,0,3.2,1.5,3.2,3.3v19.4
			c0,1.6-1.3,3-2.9,3L1835.1,367.6L1835.1,367.6z"/>
	</g>
</g>
</svg>
