<?xml version="1.0" encoding="utf-8"?>
<!-- Generator: Adobe Illustrator 19.0.0, SVG Export Plug-In . SVG Version: 6.00 Build 0)  -->
<svg version="1.1" id="图层_1" xmlns="http://www.w3.org/2000/svg" xmlns:xlink="http://www.w3.org/1999/xlink" x="0px" y="0px"
	 viewBox="1810.1 300 200 200" style="enable-background:new 1810.1 300 200 200;fill:#ffffff;" xml:space="preserve">
<style type="text/css">
</style>
<path d="M1975,462.1l-73.9-22.7c-2.8-0.9-3.8-4.4-1.9-6.6l40-46.1c3.3-3.9-2-9.1-5.8-5.8l-62.3,55
	c-1.2,1-2.8,1.3-4.2,0.7l-54.2-21.7c-3.2-1.3-3.5-5.8-0.4-7.4l191.8-101.9c3.1-1.6,6.6,1,5.9,4.4l-29.8,149
	C1979.7,461.4,1977.3,462.9,1975,462.1z M1895.1,490.6v-27c0-3,3.2-5,5.9-3.7l15.4,7.7c2.3,1.2,3,4.2,1.4,6.2l-15.4,19.3
	C1900,496.2,1895.1,494.5,1895.1,490.6z"/>
</svg>
