<?xml version="1.0" encoding="utf-8"?>
<!-- Generator: Adobe Illustrator 19.0.0, SVG Export Plug-In . SVG Version: 6.00 Build 0)  -->
<svg version="1.1" id="图层_1" xmlns="http://www.w3.org/2000/svg" xmlns:xlink="http://www.w3.org/1999/xlink" x="0px" y="0px"
	 viewBox="1810.1 300 200 200" style="enable-background:new 1810.1 300 200 200;fill:#ffffff;" xml:space="preserve">
<style type="text/css">
</style>
<g>
	<path  d="M2009.8,336.4c-0.2-1.7-0.8-3.2-2-4.6l-30.1-29.8c-0.7-0.7-1.8-1.2-3.5-1.6s-3.3-0.6-4.9-0.6h-130.5
		c-8.9,0-15.9,2.7-21.1,8c-5.2,5.3-7.8,12.4-7.8,21.3v144.1c0,9,2.6,15.8,7.8,20.2s12.2,6.7,21.1,6.7h142.4c8.7,0,15.7-2.6,20.9-7.9
		c5.3-5.3,7.9-11.7,7.9-19.5V340.5C2010.1,339.5,2010,338.1,2009.8,336.4L2009.8,336.4z M1964.3,469.8h-123.7v-36
		c0-3.3,0.9-5.9,2.7-7.9c1.8-2,4.6-2.9,8.4-2.9h101.7c7.2,0.2,10.8,3.8,10.8,10.8l0,0L1964.3,469.8L1964.3,469.8z M1964.3,361.4
		c0,5.3-1.5,9.2-4.6,11.8c-3,2.6-6.8,3.9-11.2,3.9h-93.6c-2,0-3.8-0.4-5.5-1.3c-1.7-0.9-3.2-2.1-4.6-3.5s-2.3-2.9-3.1-4.7
		c-0.7-1.7-1.1-3.4-1.1-5.1v-40.2c0-2,0.7-3.7,2.2-5.2s3.5-2.1,5.9-2h107.4c5.1,0,7.8,2.5,8.1,7.6l0,0V361.4L1964.3,361.4z"/>
	<path  d="M1943.9,320.6c-4.8,0-8.8,3.9-8.8,8.8v33c0,4.8,3.9,8.8,8.8,8.8s8.8-3.9,8.8-8.8v-33
		C1952.6,324.5,1948.7,320.6,1943.9,320.6L1943.9,320.6z"/>
</g>
</svg>
